<mxfile host="app.diagrams.net" modified="2024-01-14T03:45:22.825Z" agent="Mozilla/5.0 (Macintosh; Intel Mac OS X 10_15_7) AppleWebKit/537.36 (KHTML, like Gecko) Chrome/120.0.0.0 Safari/537.36" etag="coxraUTk4-PuOKXZEObh" version="22.1.18" type="device">
  <diagram name="페이지-1" id="f9MEuatNYY-QyWfrpD-a">
    <mxGraphModel dx="1845" dy="1285" grid="1" gridSize="10" guides="1" tooltips="1" connect="1" arrows="1" fold="1" page="1" pageScale="1" pageWidth="827" pageHeight="1169" math="0" shadow="0">
      <root>
        <mxCell id="0" />
        <mxCell id="1" parent="0" />
        <mxCell id="ybhc-z9wy3QsHHDPgn1F-49" value="부하 테스트" style="text;strokeColor=none;align=center;fillColor=none;html=1;verticalAlign=middle;whiteSpace=wrap;rounded=0;" vertex="1" parent="1">
          <mxGeometry x="234" y="920" width="100" height="50" as="geometry" />
        </mxCell>
        <mxCell id="ybhc-z9wy3QsHHDPgn1F-44" value="" style="rounded=0;whiteSpace=wrap;html=1;fillColor=none;strokeWidth=2;" vertex="1" parent="1">
          <mxGeometry x="60" y="865" width="430" height="180" as="geometry" />
        </mxCell>
        <mxCell id="ybhc-z9wy3QsHHDPgn1F-26" value="" style="whiteSpace=wrap;html=1;fillColor=none;strokeWidth=2;strokeColor=#3399FF;" vertex="1" parent="1">
          <mxGeometry x="290" y="270" width="350" height="530" as="geometry" />
        </mxCell>
        <mxCell id="ybhc-z9wy3QsHHDPgn1F-2" value="" style="shape=image;verticalLabelPosition=bottom;labelBackgroundColor=default;verticalAlign=top;aspect=fixed;imageAspect=0;image=data:image/png,iVBORw0KGgoAAAANSUhEUgAAAOEAAADhCAMAAAAJbSJIAAAAe1BMVEX///8AAAAUFBSUlJTz8/Pv7+8aGhqYmJj8/Pyenp4YGBgJCQm/v7/09PRYWFheXl6ioqLo6OjMzMypqalKSkpTU1N8fHy6urqvr69lZWU5OTkjIyPc3NyOjo5vb2/V1dVCQkIpKSkzMzPGxsaFhYUtLS14eHhNTU1sbGwJpY22AAAMAklEQVR4nO2d6XqqMBCGpcpiEdeKdalLte25/ys8rWSyTiDBsMjD96vYEPISlmRmMgwG9oom6Wfsva7ni7xSi/k68OLPdBLllbpXFRRWNTWoyp3eAw+01TZssaWFXt/1Ve3tqor1VblTNPN4TfBSG6HQDD/3DqtyqGjnidpgpd6lQmesXdGnVArtIKOqXOrHk3VSCy2VQjOkqqlSaqkWOimF1s6ZBMln9Fd75aRGe7WU2j9YVUohs6ocCjugN5dLrZBCynlAq1qVqsql6F3/koZr+Hsnl6JtX4fpC/wt369oVUon7kyqcqkjOcb27zRO4IgHsdABfr8OuOflsbqqHCo6Z4e4JPfNOX5OobnjbB/y9gykuuDn7JIbk32kNwZ0dHYjJJdsq8LHaUKalWabCwGFCsCz0zBIyaZUlydUlQgoVAC+EKoKRk6peI3i7BDDbNMPhE1QSJoVia2U6hLPTkQ2Q7HQkCD5wmZcH+FrTYSvPaEz9YSZesJMPeFdPaFz9YSZnpkwiYV2wCBOapaENBc3QeTXubgpDQDJyQoSYTNOHDJlivzlahyG4QchnP5tKJtEY5gCSJtCoRBOw4z8LG2SQsQMEH+om+PV0nc1Aj/dZNtMW7S7ISYUa13PTXPk6qyx0BlrsS4+SMP6yTUmF2lTfIAW6AGrxry49lZIsYV1DbA0oniJxi/tUiy0rtSFuuAqOE4O/qhd8g+TI9fCMo8b9hRN/TJnqAb5KW1jCVv/le6MeBNaI+YhuVrvS1/0D71uKhe9l862e56eoQf/RHvRdgB3g3uwkma5FNyLN7vdqCO0rQ8ZJp+0dGc304DdqBPEXw3bpRU998dSnQFXN4zc2ZO1PYKnJ3iC7J4Y4Jk8iF3aLpFOAxec4l7NFZmCx74I3C4RJJ8M4MZ6HETEqvBCbD7D5jByRCxgI+IcDvU4PWFXCKOEDdyTj2wnmTBoh3DCDx5ADYHZHM9BzAklDA5+G3QIUEK++cH5uBEg37HgFoSwHSMcHyeUtWehRZEaytUFQs/7Id2oBON1htDbZfb/mbbA0xNmEYNIBF13CP/C/KK8/z8/YRCxkLJLyqYm4bSA0H/nZzJ1xV/nE05D1qL0AlgTOkXeCk65cT6hPJn6rNWYoyEURt4JBIenAxKK/CJ2Az5qA0J1MvVWORYnDaE4aoO773NARi+SlSOfEHk41dmJRoRwccbgXpb+nU+IDMSlwNBKZUYIbuUBiTZYo/82J6zzKWtGSAZqATXei75UW8LS/q0yMiKEd8SMRk548wUbvWtmTzIh+IHOdSxlYdIQfiQMYEE9g3PexRS8ggLN7EkkfDmMsvpq5dMSxlz7GdTvI5CtKlJVQFhd5E4ZQlT/BqKf0JKwoUGcDeH9LTbR///pCcnzUx9x8eyE1Pl9unSS8ItzuEUrfJ7/zITKK+ywGRvPntpJyM+expOigXL+7Ik8m84VERTJZPZUqPxRG1n9We9IhslsXFqgfMLB4s2reSzKqw7CX8ZDczabegibVE9opJ6wUfWERuoJG1VPaKTuExb4LZpVyZH3YTJX1y49FSG/Zmo+kYzw0QoPVXgqQkn7FedsWmpCMZ6a8JeRRivq/dzPTUhnsDmLm4wJk8lwu15vcW/wcvvGafr9jjmqkuHPFom3v25/hnKdFtbEu7GthEVY1olLiDRTAlkRT1UcystAsxDKD3nfzH8iHdbWIlzCqi9qIYWrTEUjkOYMSiaQf9mveH6af+UJt/ldaESIXOTCKiTdXT7juxFWOktxvsSDdBF73IbwtxOpG2qcRFQWYxp0gRtvwhljBf70xbU7fy23ZLbUjmkYQMKchtRDKt7lxoSaHuKuQS2h98keIWar1YsIeUG4yBqyGVl5uZloIidZ7IbSE3L3l3tC6LqgVKQCE+8MeHvjNs4K4XSdic+0R13rFRDSSIUy0SZU7Bo93jvtwJYE0utUyakQbaiL9qtCQhptUiZiiOoLmkpfgnShFc3ihmSNiP7JneieECKGdjTqS0wqaTZ7ogvcODeWspYMzYsBL+GpQ0Jh9kSTu92YBzhIx1Rzs9kTjFY+sB8hHwhKOPLEX10QzuYMIKU3wnUQvXp6FRDCYE14IftwwDxCeh6W7ghR/eUpLB9BC+HTW7FZM1a3nhAu8E3FhBuuRfaEIzKtlMbLsDjTKD/NqlrC7ORH+twe+YSaDDwwjjMinFdKCBkWI20vliIkT1MYJeGEEKL6XiUhd/uUW1GiISSXfe7bgs5IJtURXoQJWrQ5BkihcoR/89Y3+orECWHAv6iI8PJdEHxu9MbXEmJViYR0UjlwR+gyUuFhQjoYgl0rGJc2SsgW3YLBoxOEp2WmyfBCAb+hUCcIEbEA1a4SMstJRwk5w1o3CfkXchcJvwTbePcI41AccXSNcPsuuy06QQjvwxO2hqEThLmFekLxuLXFYrSMMH9uEW2+sUlwdfPDCggFBd8uskY8MsevmtATs0aoX+15hNDITlMDIbPjl84a8ZCtrQ5CyHDWjL0UJ5RcYKSqvfgKrS9rhMbmTa75fJu3rD3XIibiwJGSzVlmjRhgNjYzQo3fIhYba0YIriDhCPD1malY1iprxKAh35Miea+7yGpk+e608j1xWSNq9R8qwnJtYtXnEIr+w8eyRlBRHzC1R1DAM/xiRsgiAigiRFMwX3g+YUHWCCmLZ5V+fFwmVdkQPpY1gskiFqOAcHDWVaV8180yFqO2eJoiQoOqrAhJ1oh9qawRnMxjoooIDaqyIYR3xJQZGVzGtfEBeMaEeIZNZJWjZVxbbbGJxYSFVeUT4iqXNUKUWXzpP2zXoqpm6HplG8LjwE2MMNcwTYxwrNk1typNAusaskaoInHeoSbO+2do/vGbKC9k3JaQPD87H6v/e5K/NCWem5DPGjHo4JqZi5I1olPrnlbyuidFXVy7Jqr76w97wkbVExqpJ2xUPaGResJG1RMaqSdsVH3WCI1scu41LJOcexsla4RV3sSGZTYD3vFZI04dzRpBrRidt0S5yBpRqxrIGlGzas8aUbvKZ414Nc3n3bAs83mz5OXmOdkblmVOdoiJKZk1oglZekgf83I3olqzRjSiOrNGNKM6s0Y0o7JZI2y+FdSsjL4VhGSN2Nt876lRWX3v6dr1b3bto65/d+0+9M4ZmD494YNZI5pSiawRJVcjNCVjQi56upPfIb0IEWNd+5bs/u2oRhx163vAhRdCJ7/p3BO2Ty78FhAziUbvNi4SiQyLdOwihgCJWP/Vz3K2QeT0Qwj8So+DCBaGQHz7VXeUBgWWJZgdKaG7uYJOO9IfVsN2aUVHH7D0xG44QlddtmMUkyfojJ3lR4lhmWRaXLRhgZHiVlxUELaWrJWiTwhN2LtedEpV53dw7UXXEp2td2VPzzb3ImvltbiwrDXdOW3r48ZPaRvXxaUV8X7F4+Tgj9ol/zA5ci0s9dVs0Tccv7RLsdA6bHmUgdBlaa1U6c/4PQviA98pzAliaJFKXqKZFlozXGv0U+ohw+n6VnyQBnUu8R5UdLrpk580q93NeqimUeQvV3+Lij7II3qarTCSNqU1U560KRQKYZ0uLFaSNkkhco/EH+rmeLX0LWcTBkoIErGIJIGwCZKWNs/FTRD5dS5uSpYIAh4kwmZsvlzTViNCSExAmgw80B9G2a4JklkGHrIZYxnf3KgnzNQTZuoJ7+oJnasnzNQTZnoOQtEXC3pmQhimETPxQmwlCIZpZGwF1iKpLk+oCjKzSd4VODsLoaqgulEbxKWQb9nB8cX0RNRTkoHDWblIdZHYiCDr6RCvCmbg2eg1Ifu8OQdjAuvWPbkbjYiTpqDUSPs3daPfP/mWqvpGq8K/f5iR06qOg+pErRovaUjtqWe5FA1dWYfpC9/Gwqrkjma5xNbhTVuVS0VY3I2SqgrzGF/kuZzDqpwKCfOTM+INuE7MabtZVdh5eMjwVKy1ckDEkLBUCm3VQkjeVKSqk1JoqhZyKiVhLXpG5f45O6yq0mv03i7x1GvuetHQusVb5bAqt3pna26OWlvlgn7ikM/JXK4qFgC7r/geBEXX9DP2gtk81xa7mK8DL97d8g2ak3QXe/tpUVXTrKoyHfgfzUvwdoWruFwAAAAASUVORK5CYII=;" vertex="1" parent="1">
          <mxGeometry x="10" y="372" width="50" height="50" as="geometry" />
        </mxCell>
        <mxCell id="ybhc-z9wy3QsHHDPgn1F-15" value="" style="shape=image;verticalLabelPosition=bottom;labelBackgroundColor=default;verticalAlign=top;aspect=fixed;imageAspect=0;image=data:image/png,iVBORw0KGgoAAAANSUhEUgAAAOEAAADhCAMAAAAJbSJIAAAAb1BMVEX///8AAABWVlZMTEyioqJhYWGlpaWTk5MXFxecnJzv7++Xl5cLCwtZWVn4+Pjz8/Nzc3N8fHzX19coKCjj4+PLy8syMjK0tLTc3NyHh4etra3CwsJra2s2Njbp6enZ2dmIiIi9vb1GRkYfHx8tLS1kOISsAAAEUElEQVR4nO3de1+qMBzHcRG7AAnIzfuxUz7/x3hOuaEUbrBL+zW+n//iFcQ7NWELnM1knZKwDGhWhslJuv+yitA1Q1JY6AET14ABJTrA3PXeDypXBy5c7/vAFqrAyvWeD65SFP6O5+hHis/TuN3AMlpQLFq2exgrCdds7XKj9hv6gTb8nXqttPqWrV0b3i2T1Wwft0prs5dhY3inzNbovBDnl5VDw/tkNnbINVdaGUISQSjsqzDLX1TejS30kmc2hGnjjvStJrUgpHUixU+ZTAoP7jg9HSwIH9xxenqAEML7wuMictniaF24VNqWuZYQjghCN0E4Jgh/oJR3XeSV8G87K1ReT5d8Eu6Cm878YfRImHXPt/npkkfCL7MmnOSR8E9XyEdEPRLyn8/iI+8+CePjDTDiS30Szmb76OnS+jpB6JewLwjHBKGbIBzTVIXzNHNZOrcuDF7cFtgX0ghCCCF0H4QawiZ5clnSWBf6f0wDoe0gHBOEbvJMmMWXvJ17ent/vnScwNxTibknlTD3ZLkJzD0tO0Iv557eboDt5Wk+CWezmp+p7TD3BGF/ELoJwjFNVThPY5f9xNzTs9sC+0IaQQghhO6DUEN4jBKXRbjuaUwQugnCMUHoJt+E3y578ku4P/N/13s+tEifhI/BTe+Ye1IJc0+Ww9zTpV8t/DOBuac9v1cE5p4gvBOEboJwTBC6yb6QSBBCOE3hyh2np5UFYX3/xzmIn0wZvX8ppXvQtydTZu9BW+0eaXRzMoW77AqDkEQQCoOQRBAKg5BEEAqDkEQQCoOQRBAKg5BEEAqDkEQQCoOQRBAKg5BEEAqDkEQQCoOQRBAKg5BEEAqDkEQQCoOQRBAKg5BEEAqDkEQQCoOQRBAKg5BEEAqDkEQQCoNQoVO9Ttb1yeAWSQmL1fmyxeC8KkxtlJCw6l6D+lDJVxkSHWHnpk+fPRrZLhlh3yW2K/lq8qgI+68hNkEkIrx3fe1CvqosGsLNHWAQbLS3TUN4aEV5HcdxnbdfH7S3TUJYcE/JH7JNyRdpvy+SEG6Zpmk/d2uWsU+iDLa6Gych7Hu82sdVd+MUhPzvTPc1x1+bun9rKAj3zLIfsHR8FIRrZsk6SzO2dK25dQpCfkT6ZTFbqnt0SkHo/2Po/+vQ/7+l7fvhLaY9VNXdOAnhK8OUN8c0/LDtVXfjJITX41J+VFN4dlzaObeo4sq/c4vu+WHnHta+nB/2DENdMjAYRUTo/zjNBMbaJjBeOoEx7/8VW/ZJRsFx6+O8xUdptd9Fu32Vyr91aMSEFoJQGIQkglAYhCSCUBiEJIJQGBtOaQzvk9nYRGQu/86e+MxmLf9WZ/HbqKvNtPIJh1J/vMhW7XS52vRHHPCW0YJi0fVTvWK139B1XJN6ai/Db59eRzjlIRFKnxUgSuN/q37H81T1OfpZ4nrvB5TIGaKK0DVAUqg/bHdKwlL+g5xUhon8f8b/AeTfffdiRh/cAAAAAElFTkSuQmCC;" vertex="1" parent="1">
          <mxGeometry x="80" y="455" width="100" height="100" as="geometry" />
        </mxCell>
        <mxCell id="ybhc-z9wy3QsHHDPgn1F-16" value="" style="shape=image;verticalLabelPosition=bottom;labelBackgroundColor=default;verticalAlign=top;aspect=fixed;imageAspect=0;image=data:image/png,iVBORw0KGgoAAAANSUhEUgAAAOEAAADhCAMAAAAJbSJIAAAAgVBMVEX///8AAADy8vIhISG5ubl7e3vNzc1WVlbq6ur6+vqjo6NLS0s4ODiMjIza2tr39/fn5+fGxsbi4uIxMTE/Pz8MDAyrq6ucnJzU1NQWFhbAwMDKysrc3Nw8PDypqam0tLRmZmaGhoaQkJBxcXEaGhopKSl0dHRbW1toaGh+fn5GRkZvd+hvAAAGMElEQVR4nO2da3uqOhBGCVoL1IqXKgi6re2x7fb//8AjZCYkyM2tbSXPu75NHWEWBKtJCI4DAAAAAAAAAAAAAAAAAAAAAAAAAAB+AT8JUj2KZtqLMyNKg8TXo2FYRCMtmkVmnh6NSu/auUUUG9Em2HndNeqZH4QQTxx5i1N05BLc7Ska80794ylaqJ0+naLBnKPPU7SedMzbcPR+ikTM0d8sUkf7OYuSGxiOsw2JD4qOefSpFVfov+bRC0UPebTQyxGD8Dzvw8jbyzw6p1EeLekQ/skjQdFQRtefxbnc0FLu05ORkFEo9H36FE1ltJYRnY6FjEZanteS5/DxFHQhPMpoJyN5nMSfqw1To57YsCB7qm5KkWxU3lKvzh0U1ZXyRFXeUB5B8l3JY/Eio0gWJtuPeP41Q7fScAjDBkMHhjCEIQxhCEMYwhCGMIQhDGEIQxjCEIZWG46oAtknOjF8uda5UatpKLuow0NROedNqvIMQ7+D4ds/OIWjocYb1bPKo4iiP3kUUBTkEXVJiyiPVlT5Wx7t/pPRPjnLE0beusg7ReT7kEdD8n2XkeyLF6+JKjV12+Xyk0bF9JD1rF2vaJX9pMMoRtq+lXsmsl1QPNjdREW7Ye8F2wy1JjroG8suhprgxO0Z/mMHQ62JTlpa8x3SwbA4g8tNQ9q90m6oNdE+CrYb9l2w1bDf12BGi2HPr8GMZsPeN1GnxdC1QLDZMLBAsNnwoe/XYEYnwz4LdjJ8/OGabssNDOejSuZhTX64KWVuajNrNk3EnfqXrjb0XkQdjzv/LN2NqvKP0Xmx4eqxdsvMYT8/e9+tDf1xYwVpKT2oy1yuSpnJoNUvZ//dhrOWAswOoNeGzHcj860h0+Slro3fyLD2pDBBR8FiOvVlgkIszq+FHzXUvrC35e5U5mXdQu9Vhf2g4ZZT3bbMtWpvh4sMm3/1fL8hzz13otZMnnueXCaobhD4TsPx1CsxndFwifhLqVuKX+NS6uiTXuGbF74oPqbFZjf02bpyiz/tKW/Z9I/xVoYVV3tIAznUTPkGhdf6KgSF9MaDnmKOHxL8gRQ79XyjITdLuglk01CNOdjKx8L4F1lpyJf2zqnnOw3pclrLNsSfj1WDQDxkLD8yeKB0pKdUGvL3Df1fUpn7MOQhYxjCsAoYwhCGMJTA0IFhQ4UwhCEM7TY0fx9aaMgzYOk3vjWG/lQyH3Kn9d40jKfn8Gs9MAy5E0ljYho20QPDT3EGd6DZYTgR5/DokB2Gu/OiVTeYHYaxKFP0CNphqLp2ia3WOWqJobsQBV/GQkaWGKrbdcTZGj9smG4mZTY8ztoHQ8ctxulNRWu+08hVvip2bI+hulerdBYtMnTCYn6GtmubDPVrsdi3VYaOW5xF1VDtMtSvRd67ZYb6J2pip6Gm2OE3fj/HgNUXuAt6ojZ3aEjft6pmtPAXOFq8kuuu3Ay95huReSy2+kFg6Bd30z2wN5qbWLlYKDVU/jSVHRzV93LujSpkJ92XmbKqqiWpa0EF188vzdbZLE+dJNzsEKubxvM+nLrJktkSqx+q0Ez4qzznMPP+LM8NyryPjff43mKOcFw//9Ez5vF6DbN6XeM1N66oOoynVX9smUSLed4wvH9gCMP7B4YwvH9gCMP7p5Oh/9uLW1xB87oYZLj87eVJrqJxbRO+S9YGYNh/qg3b78XqD9X9Q177G3tDTf/JbP3bhd2I+jX33FStPZjQPa7jPq6b2HKvMEFG6gFP9q19+VwytG/9UhjCEIYwhCEMYQhDGMIQhjCEIQxhCEMYwrDZ8FbPdL6V4f0+l5t6edW0T362umPUYz5bXfbEms9Wd656tjrdDdf0bHW6U/fyZ6t7+kHMkH3LvKCj3CdPFn4yzrf53Hs5pMXPvZdNYxAWeUd65SOPxhTtZR7NQZVd7LwUHXWWUzTUj9NFJKVzPz9oEo6XHeQjd5/n84O3PBziZ/oLtctMf6CmhWZa60ld3kHlZdNx12oS9Lt2QuUEXKEWS80PWuW05Ta8XWBMs/aTINWjSB//mBlRGiS+EWkjCaNgqKI0KuX51Xl5pI0nxcFOizbB7h/OIAAAAAAAAAAAAAAAAAAAAAAAAAAAuJz/Ae9b1ptpSk/uAAAAAElFTkSuQmCC;" vertex="1" parent="1">
          <mxGeometry x="70" y="367" width="60" height="60" as="geometry" />
        </mxCell>
        <mxCell id="ybhc-z9wy3QsHHDPgn1F-17" value="" style="shape=image;verticalLabelPosition=bottom;labelBackgroundColor=default;verticalAlign=top;aspect=fixed;imageAspect=0;image=data:image/png,iVBORw0KGgoAAAANSUhEUgAAAOEAAADhCAMAAAAJbSJIAAAAe1BMVEX///8AAACEhIQtLS2ysrL6+vrq6uqlpaXv7++goKD4+Pj19fXPz8/CwsKtra3n5+c5OTna2tpubm4XFxe6urqampqUlJR3d3eLi4taWlowMDBkZGTf398dHR0+Pj5HR0dPT08kJCRfX1/KyspLS0sMDAx9fX0aGhpqamp0VuN2AAAQ+UlEQVR4nO1daXeyOhCuWNzQKmrdN7Ra//8vvK8oM5NkEhJI1J5z51OlLHlIMvsMHx8W1Bss1rvfxjvR7269GPRsBm9Bg/Wr4WhpPfCAr394NQwj/fTrAry8GkIpXWrhS/avHr8F7ZPqAFuTV4/eiiatqgDj1avHbkmruCLC46tHbk3HagC7rx63A3WrAEyEW+wX3c93ou5CZIJVuE1Erl8Pq7yjwDSkmkjkfn2LXD71PzwvNCVjdOenX3jxKcDg/NAJB/nlfPGy3i5+EiE3XLpe2joXl67y371oNTnW1gE9Uf84WUV3wwJE9tl1mabi9G/uf3/7Hmsl+r4PZnP7GzdT6niXAVx5Y6NxwZrfYRb7hQC7aTJDGKerIdWGK2+/YEbrKfJ+CMydfNZgnG3H2yyKC7PbL9jQTe/jdaemwAKz4tfC8TaRgAkEjzPHCkDA5XMxDXhdZb6IEMT/O0gOWFA59/SE8GN2/1HZTPFJhVE3y3/5Qnjn0MuO37FWpE6+Th+SyxvCj+Fp6ipxwlE6PRW2gD+E70r/I9TS/wjfht4FYdKfzqLx8bAbrUa7w3Eczab9Gm5OQq9HGKfdy6jB0+jSTetK2NciTNJueVRn3U3rzOYrEQ7WWSm8O2U1YkgvQ5hezjwaDZ0vFfWJ1yDsfNvOnjCT31WUwlcgbEU8AguK3H2Cz0fYqhdxvLj6np+NsDWuhe9GY7d5fC7C+Nsw8uZhebzOo1k0vx6Xh6bhzG8XGflUhCdNvHE7XnymQ1HoJcP0czHe8hesHLzsT0TYubKjXbeH+imJh21eJbhas9XnIZwy48wiGyGXRhlzrW006FkIY4aDjk+2+yk+MQzqYnf1kxAOd/L4tl9u4rvzpezJnZXgeA5CZYVmn46Pu9GnslhtVupTEMo6zK5qRHUqLwWLUT8D4VwalmsAgVJbute49IonIFxKYzLvv06JxtKReE5pGCE4wkRcWCtN+K1zai/2D3tqbk6a7It6w67EPA6NsCMOh3tKPPyai7mp5xI5IO7rpnnWAyPsieolw2HSiHHSlO0ukTdnxjkPjFDI2hkp8qvT5TXVskn8GAqvZW86NSxCIfFNCQ8P9ZZUuTInMGgTuwmKUBjFTPpnarAUzxbOtQW9YK4/LyRCgSFIodPEaAlbRZKFxEH98AMiFNiBxGNkwS2Rncr6aXgAUjiEQ/p80WJNdT7uxwzaumJO9CrdReEQUjYq6tmaCRxdo+7X9JQ6uGHoLOoYajCEdBMKezDmjPZDN02qBCjoXtSk8oRCSDehwEU3Krw6ZR8zch9+KwZCSPOHBU4ubJ18cX3Wy26gEom9UyCE5Lkjelw2hff1q3YI12KlYhiEfQKC8jgp9z3zkXpLeTZnuIRBSN4r3RwSE/WUqknWxYj5dxCEZKoogxOXqLXUKyXixmOSzkIg7OATt+SwyGR85toSL5zKbEIgJO+UbAxBTJy9ZtqSba8KxQAISZkCsWTjjABcVS614omo8cqdAyBcsI+jtkSZa8WZyEtVcPhHSHYh2fekOsNsklcjwtvknegfIU7hCg9iZv+/GayAoJTQGyInO3tHSPQ1YlEQAbkKkoNKrAxpC3hHSJYje7BC/ZEV4QMkl7p3hLhcsNCIbM1gNVL4EqUB+UaIUo8Ie6KHy/4of4RifyMc940Q+QwuFiLrD6X37XUqNkJApVfkNb4Roo8b9xuZQqMumrbHu1X2m61247Z7ihfKRM2I/CBE3XPNPNq0RlPB/3kbkCtI9I4Ie90zQpyuAXNsq9yloL4Ugstp6aa8Yq2ZYAn7RUgK9OEYYaQ6g16OCQKVxBolgsuEuha/CNHeRh0f2bhOW6MeAZlcphFtGrrd/SJsMyPDCKnGLU3VAZUcynfxTVGh7xchrjY4hKKCczF8lDdHcahohGto/NEvQngEhlbQocnPRnkupj1EZFehEOJ8oY8CFynLNcxL1PRqGMLMR6LWeEXIVBUjJ2UjZhKTOS8v3Wn3spRSwG3ZjVR9HQAhCO1fsGDQv8bxmY4A5TAoprkzEFoznS2FRgIJD0Rx84oQhnVUT2twgRfqkt+K0nJA09gMIV6BIKp+wGNeEULHoYt66Ie5B7X81Q4yNAnAUoMDtjXBYz4RonkP8qgHhziVlKhq3ONJgM6ygBrlMRr6PhHilABrQE7CWL4k4sAjIG/AzkGOj8NJ94kQVV9g1ug+YZgFisqMj44SH6ud5YziCje1T4SwRrawRgBEk7Frt8x4RMJ3pjdLKCVwS3Rk+kQIcFA/g3XGLEN84RwXuhMKjY32HErg08M594kQDqFHFKwpJlMNVzBNZEiEwsope46eQINCOD4RgnTDOcnUdwqEGik6PFq3STuQ33COnXb6U5yOEtQnQnAj4JIEccgE9mAFo91Y6HjIlvbqPU0E90Qnik+EzO1BK2MWGQx+rNwB4YA9ZhfsYF6yT4TAFmCJoA6gcstY5QpJ8ULOKjMeWaXbwEY5BEH4o9wLLQvVPEjg0WAIoMoAAhvMlaZVRA5Ghawg7Bx+ZMUhVSfBOQRDIIY5hAkDc+Ut5hAQ4j5cKA9Egn14hUPFrsOdCdVgb7EPOdvlIRC5gBMwJhSf8eMIzhcIODteyrzkINKCvu/FqpHxpXRoOuASjufNRnOOAFE5txsfrIsw8hA4uxjlHWpCLaivUEdMLFQjol/ErpAosE6DXMHqDqiX6uPe6Md6C70UFM2JnV8F41Q6b5o27KmhDuhQ6BP2iRADT3ZOB3T+aVxNxFFll0KFAjWMfWg06BkiYTd+nZKSKbvoP/eOfSJExmfZtY2EnK7Mv0lldHkRXk6YVoPczauvDRaVpfePprqN5Flq0YR+Oz6DKg1xCXhFCIqpbW9BGvc9t6mYiNvUWWzb8pBzKXhFCIaATVXPjZKMwGisusVUbcSKr8z2dvBWiMHtFSH6JWwjDXLmfra8dC/LTDpquUYJqyPmaKDYk3XaDHrT9GSd7Y7uSWLKBIofHqzvY+oFcif7bGLQu8/kYPAYcCmVQXRIl4ZrKC8PFcd3SF8zL1SHggyU99QrFCoXw1JE57TR96Jp2jKZG+EKorI1WD6NS3ZaT86HKmjhdBe4bBQun4ZYtW6NIYZy34V8HbhVZKC9KXiPPSNEiXRwvF+nLbYm2LVdc4kxxiFI43C5ie4lMcPBbLz82f0sx7NBhavhySvhuG+EuEyrFsVU7QT5rXmyb4QkNO/rk2B2hHxGWj3e87xxNz33KwI4hZI17R0hKVCrNWJXwsdKQSDvCGN8VJ1OO65EShuljey/ZgYV/MnzGrTH+PEw2YMStO7J9WsE1QmVoolsLYetXXPRKusQMaQVyzQAQjKJz/oWBEktUhweIWpIySRW/xBUZza+2CaWEv6tbowQCAk7rSz27y4fu656PePzgtRyk8Tftfpfl7sfbE4mjTaYhIgw9fikr0mVj5aQDmgWvgJSP3pg/h2+p4J71XafOIPLXxB9FhcRCt8X49dV7gudF0oRxqTVG4shEMKYTIOjyBArhEpXAC2YYt9lqP40dO24eKXERmzljIq+D/5tBOsxRJ1L9tqb5Fks/QgsfYrGzx4MYUz7RNmairJ3uGyN0vN1myFcJyz6jUu7shelg1QZm6EFN9qajID92oR6GItZ3GQSwLL9K8y4drpD9tyzbIr3IKXX8M6lx6d+uoP2TRTq0kpmRHV7l+ikglQx8LKwvS+FUSwNkdzkpyGTOSSTCIVRpryBwP1LhXFstXslFXvQ3sgcY+0Lzb3ViiJCgRHGoqtes1uYIkTjoKWeYeZmKaH7CMfi8jty9iITlTHmJvTE0vad2Qb1gTDJSXeiVGmvWP0tpSF9w+zg+RRPLVPs6iMsSKtgSXJ8KZo4J+6TQQbnR3oQTy1NTvKHUL8b5FPpo9gv0BvGIt+rXOX1h9BQ1aJwku5DmMfsRz0OuvvEyvuw8CB4RGgoTVK7Jsxu+3bI9rrONBpmMpPPtOr65hOhIa10eFBOXgw1SRj8sDeq0nO0ihJ7RWhKZ1MmQEdcPKf3tVdPtDTJvCI0KsuM3sKRyhuTAdeXd2Lr4fKLkE2ELSjW5ZRQkgpHWqdI1VhvtLD2b3lGaBZPKSfcBdrC1mr1B7Mrj+4ft3UI+dRHuJ0K30Yx36esDcboer19qrO5nZjOcoqG1Ee4opmrjdLEy/JcxBI6z9wcsH40byERtgRiInwwwZV+u659Mz3ZFoJoM2tSJS31zdR2D5z7sp6EcZvuVePrgIdK0Uhv9qEgCrQ+GfXbXba071bsrOzPAhZ9MvxqkvS0veZrgSq8RfXPtnu08QWIbJdSiY/O04YFTaJpraa8QToO5KTENnsSE/36KPle7nZ07U5r93P16qcRIUq2m5TrvO0LjrjTpj/4jubj6/q4Hs+jWfezv/GTcOTXEyVCHNMhSi7tfSLwJoe+c64UrDPkjTLkD5LWHYmQbftAVSHf3kTJDHzYcLJL+1NUg/TdWzyQd3+p5Os73KYxzdSpJYfOgZon38m/R1j2ycxkgyKPX1Cj1muPfYVC5LXpC0TuiD9EyVgl48aBgmR9cQ1lC8pDSlS3ccljqEJh4hZaI/D++TwaALfr6FGDAkVmUl5dud7h0IwSb18q0VGw2BPnzX7sOKrAhmrRjhQuuvYpT+PkgYaakuFatAMFjB9KQYbdQ4em0sQcB/VD4RBKUrBQzOjXvGxrtGtRMIQSO4WoDdXfnpLoHgqhaEr8pspljTpJ4C4UCGEiADwwTXf/bcyw2lpBgRAK5jx6F2W3xWox7fxNiS94iHExxson7m/0c/k+bYbBkIZBSOzdFWEnJm/3ZHTI/ReRsnaH0zbRC4YD+qs16J5KXk0QhDFaF0fyfLsgqWxq5FeNiveUC9lmwbhy5SEz7+cgCLEuiCZo2LTAaCgx4ELqJAipUTTHLPiWUbcNghAZCl1edgAlhMCUI+FXbnL1iqiyMVc+CEKUCeSgrX9bRAgTn/tyQOPLy7XhRZ4/DBS4KgiPUYMiMqEVEYLbJ+99CXjzfmmo4ZocPUEQMm2vqRr+feOPa52v408gRHFYuCioQfHIZugNpxHn7vgTCInOdndmUy6T0WTJePM1W4t6wJ9ASDfdctoSP+XEsfakP83+FkIl7x5JZ1CA7+ZvINSLBl2MP/5rCHX6y0F3uz+HUJOQoHdb/AWEw9OUBtvZlAT9SDwjTKengqN5Q5hryEuMSSdMvqTBL+MVYSeXs99+ET4sI/pNN7nIYGkKyftEWPTjmvlECJEIat2dqF+taQ5k+0TYFQ57QggCUDRk+ov769zOyyxxnwhBF5zWQgh6Snb7Ba9N4axxp9+Ky30wOoTw6vIYFSDMVT9EKLJowJQvqKz45dppBaMPt19gqjl86c4KIdw4DwCASp+nEoO2K71WKArMeXuDv3E5oUy/sWWo+q3qA9UhhPYMd29B4cu6636F0JW2eDG3+9u0o9Lv0IExJ+krbo+3W7n7lRZha0KXWOduhzyCIA+Pl5Jc/vDt5MKJ+dqdJbUgeHZvANeLVpNjdS+2FuFHvFidl+jvmY3OB5yN7x2bk9k/TlbR3UoDDdk94wOtVx+pBnqE9Qh9C+7dgEj0zEMgNxBCbGlaIbGMphvUjyKFQUjt1AppSTRQdqwdCgSE/pL4hjSK4CrvbyRG0PaL7mcN+sqKG82nde4D1F2Iqn+lcDNbHfmmVJEb1qqceCpVTYmIbT31r6ZV5eBky1ie9DZU2ubGQJwl/3a0r5cNX/7V6VdT7RTrvlri+0704yPjg61ifQ9au5pMOuoNFuudXZ3vs+h3t14MrLo2/gfmmdcSauUsogAAAABJRU5ErkJggg==;" vertex="1" parent="1">
          <mxGeometry x="140" y="372" width="50" height="50" as="geometry" />
        </mxCell>
        <mxCell id="ybhc-z9wy3QsHHDPgn1F-20" value="" style="shape=image;verticalLabelPosition=bottom;labelBackgroundColor=default;verticalAlign=top;aspect=fixed;imageAspect=0;image=data:image/png,iVBORw0KGgoAAAANSUhEUgAAAOEAAADhCAMAAAAJbSJIAAAAh1BMVEX///8AAAChoaFbW1uysrLPz8/S0tJxcXHw8PD6+vr39/f09PQ+Pj78/PyxsbHs7Ozl5eVwcHAzMzO7u7uYmJiJiYmqqqrFxcUuLi7b29siIiK/v79mZmYSEhI5OTlVVVV9fX0aGhpBQUFWVlaMjIxMTExISEgnJycNDQ1/f3+kpKSTk5MXFxclXjiqAAANuElEQVR4nNVd60LyMAx14HAwkSnXcZGLooK+//N98mHSduvatGtHd/4JY/asl6RpcnZ313b08/PuY7mJNsvjaZYPb90c1xjGD5GAr1186zY5xdNrVMZhfOtmOUO8kPC74DG/ddOcYLir4HfB+61b5wDZi4JgFB1Ht25gXeQbJcEoWma3bmI99DT8Lmg1xUzk0p2s4l48nryJvdjigTrkF9HjijEZjXnzcbxhE2uCs/KbVeG7e45ia1fUFePwIPm6y75uqV3sszHakV4wxe8fG26aI8w0BHmK7XTglEP0Chyohwbb5QxjyhDEp9DGnQb2z1xxEa6ou4Za5RAJzdqBXfxq35Z4Tht/OJbbZzBwnVRfNoLLZub/IotXk/f7+FbPBqZh9UJ6BfioJ8P7J51HeDj7U8+2lTUwfCT2zYQ0XYtI3yMBx+Y7MtkTVtILYCIuTe6+ikqY1misFXB+6XZ/8d91G4Obd8oEo2g7qNNec+DOMNVciHtk+r2nMoK/07FZih77cCYn2PQ+M10S5yFMKfI8VARGTNfjWuiDs/KkuRDW0g/qnfnowLL7fOApNrqigj3cOboOwMUGptewyP0nfvJm3VwLoMFSX4bz9Uy77RDDrwvWYSxa0qTpJ/qlaNmIAyxHMgn3KVJs0iri3mKtvOwIl/Vpt/2WPjgWMLFurwW2lE7ELtS5rwBwBrvixzg7m1xrcF+kWiU3lMfAYQjXFwI7A/i8GLT0Cpwx1ZMD588rcQOMDIuOBPTtvX17zXFGilX/lvmXOqsJgKX3q3gSsP77YlKjwcbgLJecIiO4oN4zrepD2GZWBS59gA/bSwcqF/MnR9pwlBZXFFhMGxylAsHf5aZIYv7IvtyR7zqEpakwGnEro3OD3aFA8BdrnmN85L55MYizgZP3Kf4GN1SN7aCeSgT/99XTPEuz+UzMPNmYHJHi1umb/xQ9nRfHPCpR7kEFjIw0O3PlLGKCvjfRu60NjuCXlqChs8zO5LAXY3YzXUTBEfge7CXqXIyF6Sk+c72j5SRLktE9dw7ZkDUUCP7+rcqneTAP5j8obrdzzUWKIsFfD7WqGxc2XmRflb/y7JaLFDxBtA/3S1lzZsQdUwGZ7F7NUeTNBL+GrLqFNadrf+wbRwpQt2G2KA9RxDCevr1eRtj+sTudJ/Lf05B9VvHzTlE6RDn0k1E2SuofFQ6eb0RRR9Ah8i5P6nE8eGmCYtUc9INstv6/ofjaTi9eUfLqn6JiDnrCIBmNRuDGJN57scEhKsdg4Zfi060J3t2lXgdq80NUAp9z8eZD9IqUG6huvZtACArZgk4pNmsmlPAzF4OYgwAfczGYIXpF6txoBEbw1y46Nv0BzUFA8uiSYlBzEMA7cHVX1OCG6BXuHLgAXDU5XBmNIIfoFW6MRqBD9AoXRiNogr8OnG65GQ5G8/tZZ/a0ylJp1C9AMyEiVRmNbLbjvo4+nyel4uuA5yCgci4Ozh9RGS9T4YQh8CF6hXwujiqyN3+xZn3VCoK/nVXuxUwViIyiw98hcguG6BUlB+5c4lTE7hLaakkPXpAKK2p2LBEq42fVJoLirp/Cr3hd8ARFo1HE53HbfTuqznBbQFCci3xHvcfZNZrcH+WdtfSadhAUjQZgUjxdH8wkXdkSgqIDd8FSnrIxL/oBQZsJEanQ9mllWtFMOMZtTQ9ewOe/qBo+4pZRdXJzYEhZ3xw0KTe7dvYhWym72msneO3eLpPiFmClbpSCDEax0RqcOhhgBs4rqVfYQG3LOGW5yEQVFaw0arQGxx7MM6Wm8GAhT0vqr8fmPYJ7LN/5R26A1t4gDRJ3zrUymxoC1iuarIy4+n7rr705phZdeHcHeWWvvprlEODOmK2LHavnchNgrqZZLiSW3lloPTQMXEkN1wxwwcNfTWEamtYpQKEjuT75ZoAySNPqUqiB/Woo/d8esL2nVscB0K8JXS9vABnmpk50Cu566I5bYttQzOhorlbMDpntYBvCBqPRulsLkBVISgB3NnQpuRG4NKa+CcpehD5Kkx/beQieafD7/E/LwYZuW/COKSwYppWJOIGD3yFCINE0vguJGJ8NizOZAwISJjpUF0DATR9gvTWwDMzwmAV+Fr4+7tCuqfhgQjcWd2yjZ1ITzypVN8FvLbj6dhN7gbYi/GnINdZE5xbDVy0YpNwxBF0zA43h3mO73IHVt5NnIp7GhR+H+g9sL9XqP5k/k9uCVUbTuoQVi7ch4v0f7AiYsnAwlY1lC0zFFahMRNlEcfmMoW/vOYwjci+OmDhC+MFgDlxSqVpJKmaaFD/tSVS4EzVP14rZNeGua4M7gyhIHlUtqT1Rq6FFo7QkebR4kuxr47fiZa2hKNN0Wp5iYbDmE9lrxVpCsUq06uc4vZ/HeW8+nnSl6jJRM3o3tSGXHaOiBRT5HpyrKxEALzEnThz8QC1k3VNk1qb9RmREHKFUVpBUJHSzDvwfsXJfLu0JssqXXMXxAK6opNomRFSU9uS7iqVzzTmtbsulPaG68qUfl0Xkuvdi/D51WC7tCZoCyWQ1gW7av48l5y/90OciofoMIv4VPrayRPP2oBRnddQMw56LpOozHcOQjQatSFnLUF8ufSsQK0D1DEOdi9QCSQLDMB04cg0vhaF3kTQL0IuUSQzDc+AMqrBpDEMzGiZFykSGYTlwRloWVIbeRNIsYCYUQGYYjtEwrKOnMwxlLpoKBRgwDMOBM9aTMWHoXCTNAuZiHUYMbz9QLbQszBjKHLh8/L3bTcaNZGjaSB4ZMiw6cBkndPPsPS3FSk/GlKEgkvZcCPV8+NUnsJNbMWZYpbFxhc/CaEs9GXOGUo0NxNFbLqqt7JgFQ8GBK8HXm6mtNZ1sGCr1bqKtWcuJsJc8smKonos+Xk9YQ9PJjqH4go3jaSpI/LtP7a8j/WfJkCkY7GfXibdiVsR5BkctXTU7hvia3GjLUgGYcXRc61ZPdsyOIVayC2WpeLzs9n1FNdUp7RgiF2HK9aFnP83bUY260n9WDIdgEAsuzExKvB5qK+PZ2cOKZ5rUaooU9aX/rBhW1mzu/z4322X00yyPc6lGrAOFWCuGkHG8KDqhUJJJr6ke5pM1pNLt1+fC8HYhv1mrD5fFojaIcpBVcN6LGnivU+6eTtQp683D4ooCn9NG6Uj+OropmFg38ptWDPHVw4UcTsyXJ5l8PpFVxNWeOlKItbOHoNJQ0KHANB3CLTKZjjFgO3IngWvHEB+/4L2gp0OI+s8jNXpcXno942PHkNXgjDUfVoBvvxb1oj+Wewt8p/olye8Klkeu3+avChyizeKn+JEjgrp8mir0WAM2770syyfcsq+1huK7DY+TPEsGSZadSznYF9Tzj/IZpJHuv2OjGJIi90+rK5Xy/XXiM7HT79Ld6hDsrffCvb4+DAowB9WjSmsqePnQot+XFmxkjSFaUpu9YHMmd2Qu+fl/aK09ZwZkpS1Chq89wfxQbBh0JLkfK14Uqq2N6zMhVfnD4Oa4/TlBR9I0wDO1GzNZiqp+2rD/XfUwGUXbOvlUI1tODbP0S35lVy+Bg4pHilgHMzx2dVep6iWtxI74g/gOgi3ld2jrVVXX9Up0E1VM/g/08T8aPxz2UfTzuJ7RQhfYeNUigsuYSfE5oHCusp7N8zSbPxVeeGG0hvXTdEA9rcBtibogGce/RcSHj04f+L7qCSPO1xESrsDqEY2daC7gxFUhvhR/nTNv05uSN6ykuvpiaIfxgSR33tCVDCxuU+qpDP+B+ARh1hifZLFekpsabtvmp4gbTjd0ekfg2bwYThdmS6uOwBhFt6F5AFhDXY04zNe9oYITLtXVmyXmcng5zAWXTWc6LTUbSfIY+BRMhbNIgJvrzFFlOE8N3H2plhFcjEzlTkmATZfOp4DO+DLrQ9gwqfeoaG19iHqCx6iTkYE4RynorAT2vNoSWMoO0wCLuU5QBOy2mduGe0vN2N7/XeYjFfj979465V5wvcw8D6ouMFxn4/bqgIdJ6qeM8mRm4jHgT+g8IbCJZtJgNOAUUK/UuMcyC0TBxlct/MHWsR8PeolDMPk/yseHsUkzlwbWMZ0/gTscH5qXMBGVPhOOZcOlAH6ms0U4CXwoJDOvo3qEJBjpMIyW7ol9aOlPEIGB7dfKcYr7g4XhvWF3T52HfhiyKGSVJXjAK0w1nMDG7DTXoT/hZwPFogxd2ToyZASPprcGO/eouQ52nz7s4R3/CpvopTxK+FeGGUe8qT4N6ET5imTwek7FF8DxRzPmUnH48NQTEachXWTREA8cjei9B2HfYS4cPdmk4sJS86kMJcuT1lxiKAbdlw+nyf3k9CDGOUvJOhTgI1J1IkY6PL5fRpkpfsXeau/GrK1ilUR75WWP/4e+KhPjghdLjxEX6uplEr0qb0HhK+TZQoC1rdPPrG1VXRY7n/QteqnSOqoxfJi13Um/Z7mAP95FL5MqyarS0bcJOGv7IVlQT+xr01e22ED6gvB1TX+fP/2dFQZ7zB0sNqSYODpvBXrHTn0TxaeJLJ7YeEjmQjZLc1L6o7hzWr99bNenydxJdC8VpQO33+O4F686643wcYteA1xGInKRohUS3tVIZQKQAoJ/J4kOqVqSbhn6650oUOXTrIN/XwcJWVVKzU/LpyCHuYzj4twSBXYaeqd9YXzOWyX9TMEwm02Py030tTzszr0m6P0DjUmWhIWE/UcAAAAASUVORK5CYII=;" vertex="1" parent="1">
          <mxGeometry x="200" y="372" width="50" height="50" as="geometry" />
        </mxCell>
        <mxCell id="ybhc-z9wy3QsHHDPgn1F-60" style="edgeStyle=orthogonalEdgeStyle;rounded=0;orthogonalLoop=1;jettySize=auto;html=1;entryX=0;entryY=0.5;entryDx=0;entryDy=0;strokeWidth=2;" edge="1" parent="1" source="ybhc-z9wy3QsHHDPgn1F-22" target="ybhc-z9wy3QsHHDPgn1F-29">
          <mxGeometry relative="1" as="geometry" />
        </mxCell>
        <mxCell id="ybhc-z9wy3QsHHDPgn1F-22" value="" style="shape=image;verticalLabelPosition=bottom;labelBackgroundColor=default;verticalAlign=top;aspect=fixed;imageAspect=0;image=data:image/png,iVBORw0KGgoAAAANSUhEUgAAAN8AAADiCAMAAAD5w+JtAAAAk1BMVEX///8irfb7/v8bq/Yhrvb2/P/z+//n9v7s+P7j9f7e8/7o9/4qsfbO7P33/f9EuffW8P1Pvfi04vw3tfd1yvnI6v2G0fqd2fu75fxbwPi55Pxpxvmp3vvC6Pza8f6N0vqY1/t9zPmk2/twx/mCy/mc1vpmwviJ0/prw/ldxPm24PxRwPhUu/h4zvlEuvaX2fuS0PpvQ7XXAAAYV0lEQVR4nN1d6WKquhYuBBCQeXBEVNzV7bG15/2f7gIJFrISCBH37rnfz1YxiyRrHt7epoY+t9Ovz8/PRWQZ6uRP/8tQrd3lriCMOMnSmf7/RONsk8RIaYCQ4ifLnW3+v5CYH32FAnL87X4TmH97aVPAPWs0eTW0eL3IXONvL+9ZpGsFMemrSQxPh/Rvr/AZqLuQRxyBE6/3rv631ykJPboPkIf30V/sLO9vL3Y8jCzmns0uEPI/I9f8b9GoF7EYdZhELSzFhvXfYThG4Qju3gOl2Djs7P8GieZhNHkVp3Xi6z4Kfv5Bne+dsdRhEpGiOetjEfxs9cY6jt+9zjb6vw/uz9XE7aMmTx4hsdzGr9T6kSTmW77SMoLG8qyGiyz4cfwmuE5AXUNjKTYKd/6TNBx3PRV1NYVYbLjWTyExnZS8hsR4+76yf8Bl9FZDGrUsjaVB9W+We3+XRj364K6wZBdP3cvyAU74K/ubaqqXAVv9sbj4dru3ZL4Uqfgy/jWxoWc8jRppSarrefY4vMi5+VJUVt9w1peN9efJM7+4OplzwFIsOBHBjz5tNzqGDtt5MURjdVKTzP6zCo5x4epk8bLxJZWiHy/xVm6AYW/261jqqOKTmuV/zg0323N1Mr/4dpUFjfhI6hPmmav9b1+TPKlafCrcP2P6Wws+eVlbxXJv5M/HGfmL6WbHe3lSJfaxchhvD1H+8pNqcw0GdI+6qgfxOSFtMXv8zczLyxhrSIpEJV4fs2D+ShKDhLd7yN9RP6yu/PqzyNnPW38tSVxcY0WORK3kN8XuZTw12HLJu+/Ap9WI+J3ir45toHrW6uvqyFBI+M1l9xKfeI8T9+oyPu8ROYkasdHC3M2SWIrf1EpE+BnNpj6oKU/lRNqWRd63aw05BYP5GXaWfDhSJNaq+DGf0tZQd1w3oJMEnC8ZjfdJy9gfmEWLc7mNEme1/Iqzn45Cb+Pzrp5zzLlfMxv/k7PhHSdrc9j6UmIDoTCb6CIafI1aW/TxM7Nx0fgr7n3xrLQ4+Y7MLsaHOe+pY2AWPeT1v0IrIZ9c0wKkDX3mFsebBE+NlxP4bYwljzzFGSCvVAm25Aqe2UyogWcG0SUcfUzj1fPk9RgM++EL0Oja2pbHhr5ptNLDSBKR/6y4NxbcYxMXIgwsuJKlbPmMqEVjvlzHY+yp5Dkmah6579OPxGRsE7xGJ1vsN/NlEoqKDeRET1Cn5nzywkjQZFF3xFpCyWz40zW8INtfYzHpf5VnMaqbcI9KyBVp8DGrhkEtxPm5EWz2pWQc3sBYOrivuife81G4G2FwqhF+DhJhSN8w7N0yuQ/aU8vRhBG4V+7ru6Wj9Fs1w3IeUcbE4Pf0WZod+wPg6FNSiwlC3uFEN3ek+q4fyLPEeG4bqmEf+hgqWovwZYiUa6tr2/FCR1+SxzGNiX6oed8OohganwLrWXGvnpbIyFTzQKylOBMnUFUNy91d+lMYtGy8LWjwnbjOUVCMUZgt8A6iHl27DdUw8122P4VDUdQhHZgBvkatxAs58up4L35D4bDSWG7bZnk8352uBGRTeh57nswlz9xTnIO8wmcn5Klhr66t420rrcJOrAZVDiYmhX6/6g5gHHj3GWmHZ0xKe02eyzcm7M3hePYdp+ucqXJmnes+2hQMH1epoo26gMaC64LXnrS3grAhkGVMWFFJGq1co4o653pI85mhqqq1gHxP249hyWbC1fpGvigG3MZL1d1BYxZkia8RelqkKZoTX7/cVqqz9wnXdRrx1q0rlzxRg6EPTS4l8pdBtR+qXnKSr21MBUarsIMW+9fPAmTH2vDyfAhfQDXYcohTtDCawF+lRuHjeZ/LKCoWW1rDrNNi4nVyiFymOg4SN1C8Ef11l+ujVtarSdxx+sNXhRQnjoEAKP/6cV4UK37E6AusUHsX/PH0ytX01mMMhj6Yx8dvVGyxQx2Kw9M+S22z71W6kIP+EruA6ZqvUQ96T4QRMdgzqsIn92O2cmfG0HvU4bfPIjqHys36QMpVVmlhII2ph5esxLkt/slFq15u8AIK2LhqxPVyKtsJyXtbxR1G6cS3z8jWR5z+C9z/fwa/pBdcpcX5nDTmttfaz95mox++gwvdD11AY8knr9cFPxppKzmotOcl9D2GOXgdWKJx4NtD+0nJc0+t7ZMwbd4qFQRewH72Zx64nhbtfdJoaSlg28uS8n0Ze0AfP0BVYbbna9Sj/SW9oCRQKHU01AyIMW3fs0x+WoQSF5PGgXeERTdifS139HeQ02/5DMZOuOT52aS7R9ZVygRyHQauDQ/5Giz4zpVgNt9goJNanoO6ITzMSaKsVgRlgwfmkV4p4gbKAqANPLAWcwQJ4uGyiisPIc7g0i5SSq2+BOxQ27M/6vIzcXtDrqNhNoVK+Mx77zWP+C3lD1A38AImrDel8tPE0Xqk16Yf5pKQ11iRu1pIf8gpfnBX6lRF+LkzjzplONw6Bo9MinBD3jPmEZLxZQvEtZhe7Bm3AkU7yTn1OXjYfN9n3vhVu1dELVPqeYzCJ5hjw7UYkJZMSp5F3iO6tuIy7/VffkndcTUDIg0twJPmRw55si54DmySd9g1kmszF432PWOkwAGNriA4zMm5KjVq0TiyEEjeYXmlO4ciqO0IXy76moOCdKhiewf25XMGjalRIBp1eea7h8L4Xf1ZG7ZMWTAW0JNCsyqTLdmdw5Spziph0fDMq3iJfYpxD6CER1/UBbRZaifSDlNKdXUXNmm84KJhHiERK62wYqjYlCEH/WwVrlOae+qGBBwcRiacW1//scEfghzqXXQqU8SiT/uS+jk2vEaPclhhp9m63lhR3zP16BM4eQ4l4TPW8XQ4qahSa8ge5LEumXHE/5PjZnto41KJIsz9k88mAVAJechZMnmIWtSrSuQuxAZqMEn3Eww3W5VDNZXJ9zBiuGEnnKERyukSc0jfR/eO20z6+j014jCbpJWQa0XaFY8oLVO5H4Q1iJSKPWNqnygcl5rEgdW4rHqsSLOKxyNZebsA2+MUnQ8YCVt/Gci0FYLdxLjXfW8LK1CJHIPZMLzYnQ+oS45x9Lzp13jk0LVXvcQq9pDvmQMLLvzUvYAbtt8MaIqjkTeFStf+DhNufUMkVWwdttWh4tQup/FOqSs+lXdvE4MBXQcOgnFD8iJXBdcLOV1lfXbiprk8Q2CAvZPlMRg0s+pcCHSRY2hQP9G6eoS+Z5NX2WpSgY8K3kOjFnhEhi+g3Mt0gXOFeqMes3USefmSRqC+IYWNjkguslsvQNKLbUMVO+w8SWX48ZHTOJmXMmLJa4rDYyEfgIk/LedEg/KN9mLnV7h9p4z4DMfkaTZ4qJzxUujM6XX5DrBMBX/sADenG+2aH4ESji5vLoleSKQrNT5qpxC7vmpRhyEkdV6YiKEdO79rLKGbLVHf3HCw6IuNR0GjcNjJrRcQyzEzRmyB0hVWwINW+7mbWs1wVATCIEFgFIur6BYWwXIMxtwC9kjpCgEIPyCn0gFIJgwaQ+Ajc/E+Qh8xMY+QMzp1YOOWF7CzYOjHV1AVkvMaz/ZNWNduNGptPSadXS2wij3iK60vM+TboivhYV4ButThqyZYdxOtiSIueO06Lqq2q1/whxyDSYGCibZdscTw42MHmlcQ7eAkpN3bTcuQ7cjKj6A+KLISHsq3e/fApVDCx3jHvGWdBFCqogKCuukVNqhRA9Q6sKyKbQL5RrvjLJjOqhEdwDhgK8BZDBLonhUSYRhtynk4l2Ux9ns1dNjdER26H/kF6Ws8oOaFEDhU9EWaaSElkVCU8Q35LScBd4DBICoXu4BuqG1zg5r+gkzv7AOPZloiBgMEviH9FRFcQPlGe7FTGCP7eJzHxs3g9JQFNKIExXspM8c6I/lEEUYEE3U5gNnrZguIfIy5JUzqgzzJWnujviGSUR31HcpvilUxGExLm2i6DPIy1NXokdQiaRDjwjlZh0EEL2DSfVPAyFCUX61/50TXZhfZPXqFOfKZTlgHXstJQBcev3vXrNvBE3xuv8vGCRUyCDQbF3z8RJF2HadGvkyRYrmC32D1WlfjMqGTsKuErwiBa6A2z5qk2KcKW2bVHWf3iBHAv/D4dS+gCrPRu262hoOADhLzphXaffNMRNuoAxVywqWSb2B7jt1PMLLRu/VYD2OiW/TV2B7jDAYGsBkuWYHgQvm27n6CESajdOpHi/J24a19ImmV52fjMekzXmyGfPO7uUk5zNEKKWZmYC2n3czs0X339HQ0ptaBR5Udt6Am9OJpXQGmicBkUf3dwcYEcWqqwZVo1GLmUy+8RfWjslk3BSMXm3o8ZDAgoGzsG2PCNlTPXBG9T65UnLlEdJL0YkMGQ6nYGTjBlJutAumkhJz1JSuOTWB9mjy12gpAkhLeghYs9SRoZChruG4rIVlkmtP085yqsGUWMi+FGAyGE43yYsM8LRYzs7fUSdeGDV9BYB14Kadig3JHNBinZjOznCJwjB+wH1/1BZTsAwLlG1X1o8L2HNqCxcwof7HkhWEtsQ6TibrqKARAwmvnjgR81CW0NnDLPHpdZSgupsqjNGsG48hJUhM2iqe92IxAGvO38q6y8HFIJxo1Und7RZJGCJRv1PWaARuX4y9Qj92POeHpsLMnSHiqnWjoOPxBFqALifKIGYxsdHZIjsoqRbjfaPR0Mnpab8FdTpFlpFl3tSqP4cVmZ73BiFs1aiQOkyc7Oc6wbJUzsywo3yjW50Id4M7ck2/62oXrVVF+fM1m8lZgnSiiIDlDSwcqthJ3DW6bcQGZwq3ZaM3x/Vihu7Ncs0By6J+OL6CcF1uFUVoq4dSE2ei0mw2DBNziJNul2a913GlMWvVo2S53uUzr/zqZDIVS9LG82JQCDVkQ7WarQbw5Me7howd179X2Ua3aVG/30fg21ThRxJG7xTYMk1E9wxgqts/YBWxpt9SfusNc2O2RgbSqE3c6TjetO/uADGpBmNCHGw/FqRWFYRtgW7LryjNmbrZYUz6AiqUu0xG7YdZCWjvIkMcs9ugyGANmoiHoscZloehEr1s1893l3mkGUplR/nkvvB8efnVycWoGfTgK/Y138AIYzAy7ep0D6zdUI/ii+vlVNMafYnMNiQ7MsDsFwDifiCrjgH585QOsgRxPvllkFVu/05i0ansSf24EBjjUSYfIl7FxGcVy5VXuXq8Autkc2h9Csp3OvX6S6jJSjUmR4lf8pr/5yawW0pRlKkSdyZwfSYXJPOjHd+h3iZt7acxajRYMKDbIXMO8h+Hg5CC23dnzrVm+WjCr/GhdiBGnPnQ/gQcCCPHwSmwcQ6qfdTUOd5Xz1o8TUrQRjWaMPI0Ox7XPbjlEs8cMmhCn7oHSMZcSZAF6JTZuWueYVnMNFxknJRu3TQnFfB7lGVkutveYP7kGUacvgPRRlNi1jEQLYXNPNe10D8XGx6lgvaIce7EFbFw7W5zDmrSezrWIMtChH58OyWEWq40zslU9P9w1pTvUSnPWS2AVYx24v9pKNezo0683jU8ZXrxGqSe4mKsDp5P1hr3oUtVCdlE3Qu5YG0p4SDs0qrVzh+sQL3WItEhiJNijHoUUl1cZXuwOMyO9H1lqtwDc7EiJjdLYuC2i/LsbGG47xeia4BlzN/pKwjGDaeA1SmE2eoeZYR+efHkgFBvV2J9SE3eJXYzZc9xNjfXKO5wttiFo/FmeeI3fdZjRMhMaGV0nGnYT+8+4Wgxrd0g+nI49VWniRTVKLSe5ZK0g6jzYFYurzxjUUm6+f9r3NI6+gnXCZNgOMzOwl/H6ZG11bW2ECmqrcKUmfjq8N63EtVMtIvQgej+uY4emDeFplu9Rahn8kTCsikpQDd8ZfGPjHx+vPwGUTDDdh+27WPGV77Om+b+KbP/7I6bZZP1OtLA80fm8coOYjFanBKz2qYxs9BYzy3B0bKK2FLrpHm78AUF1+6LutlXNd+OKIZmNHqvzZ4UxwyeMaquWmw1zT7rE/Bl47tdWZOYaql0C4fYSdQYe9sylcC6sZbL8+I8CARsfBYlO2n1Qg1Js9EwHrA9uqbcuoLvD/uR30eWkO4LGtq1rikPIkhGQPlRjEM4+o+9zJQAcv+7iypgaG3AHNyBusiMjVebhSTrVXz1P2lfkQWIpNk5Uz0xUxTb22S6fs9sq0bHW72/yG/jDVFDUSHgSOHp/1ZBBbxa1PVza+td75M65vmL33DOGkKv/z27g002IFtfpTTCMhwt1F7bWaPeauTvueNrejm06bNpE1Bxs+ol1gZWF94hN3QbGwjNy/huEq54T5jF6quDadOIenbbvDW/ZQ4loO25v/KF6KTjRgiTdYNMvnqC9dw/InKSBTHOPO7iBaXt0kEMJX+vTJP5JZ6VNjAC3S+lvJ2IU3D6s7CmLbcxhIE2rGAwOnzGSmiYF7sgDBnl28OiCxyBPYP4Xw4td2fB1mW5p+r30eJIBLb0ONJPfRVeoY9sKXsBtM4YRSZZgiMI+aUPHc86IoxCIpYrBODVy3t6sWnlRhIdrySHFaeY93YoY1cIP8sR6IFuMMNKMVKtO2pgJgpRKMedekMV9cpUWR7B0Rv0X0hcRvVQygV8UOPbW45+3ucOFB+qj2oBebLTOa7uJDjhNjbpmu8e9G5y59tCIkViMhgYaYVmXaejgQMXeA66I5TYqHdeHwIaNiUlhJjtfZDKQlt2c+K2aMtZF4I9xqDO82AT3V5lGGDjHljMH2FvxyQtHtYfzuH3aPychg4tdzTxiJpf3op4eyCNbLMCGBhjotccTt+pEV+b/uMOFRxejN+XaEPFLTaMm/4zlXVV7DIbr6NKZOXs8EKO57aQI8K8wpLQKjdIHhAbOdmFcmDrQi48nrvFCN8Z6uKMbkSLVuJA13KY8npO2UwbArb4Q7LJhMTJvCXnaUerKMFJBlb7u/JPAddj55TZ/0ptsvaANvdiV3vTa/asvBexjx59LgWLZ0hkdti1UFOnUdjF4+J3SiTU9cyli+ZkwS+b7ur1Su67vBBiSZvNHoT0z156RClrhiSnPg8DBDSrkanMnGyjO1xPK4ozdlBBp20ggTU4GZu3W6pp+TV9p5u7JdSRuwGIwNYUoriLl3uQ0urg8ru1dbbrgsTDKYGCALeHJJvqnw8qedhtJemO7ZEHnatRIC59ldZyuoM0PVGm5kTshu8GJS+0GFCpXo0baui/CIASrfxqyUqXJVWkrU/VZzrHfutW/gOujrorRn7ZDYcU1fI2K5oSn5ST+epKZ3CqW7CNv7NxyFmBfTTa0eH0Jnn6duEnbd6oGo2XZA+yqxLEwjsJ5Xgj5l5QRHh8B+1xXdjSm3/zC1ahlGy0DMHo69JCohYvMHRyayQX2GDTeVZubs4McOYOBARxwEKcQOWGSuTOpbVRxTIck1uRHLnnx5amexx30+IrZP65Ug12XMqWcuMcxaamQ8383PkwY/lBdvreYS2JVsHLYjDUU67tAcvWtHo16OamCrwYjd7AmsSrlXP/K7DE8/J/6qx/V1Qq2fBd8NrV6b16cEemy3zRWdQCnIhCcZNv0/6xqgXqSWl4S+V+Fo7hMm0TNuS7FCuTIMPDVo8kfk7yJRjZQMLPE7xRojqARIe12iQa3sZmkabXTe2gI1kTIUJhmx4+e/L4BEiuxEfRWqzalwVnGJU/rH0HwJFQzyBbnWGoT62rVe1LwJ52/2cRQiPlKy9iGqeNJNOzV+ymmZ5kLkljVAG7fVxx3UONt5T0aKafXJt00NM7c6jIOJ9uy1lh+Jz7/G+WMywhSTqmvTjzIrhdm/k9yd/pqfnppLC9jEVCWv813shDyJh0NPQRVt6LPULhGhlpsZRcnRdrWImHvqw6maxA0ArPV1zVWpE5qhfh6iZpNSfu3T/t6bVCOT2JaJP5TJzWyDcPiywT8JqQGNEyDSmyUklFabDj+9ebz7fSaPLl+dtOR6NnRv+dOtfQoEgdOuD/paGhZGq30fRvLiY1+hE+13JwQnuUWSRjLXUYeJvByTgivvIyfVbX0ZCTeJp18PQW8IKqqpSch8dWZppJQ5+7yCur1xlOnrP+o0jIGqhEsfw/w/SHytNOfUzlloOZV4yLZbURT9aR8JTxSEyZB4hOB9T8K3d4dtvexCg6a1Mv5Yhilmnoc56NypvVyvhyq6UaLu/AmIuGxUD8IupVe+AVfnd2bcLTwn4Ua7NdcF1KDvtKHnw/VXSZVKTFPw9HGZuL+PBhVbyaO2HC2P07llIFZSsatT8cZkOIvXu3l/FNQ65Z+fqs5A1LCxeq/JRf6oepzNzv6CMPZFq5otOk/BH2WB9HlK3Kt1yS1vb39D0fceNTriqOrAAAAAElFTkSuQmCC;" vertex="1" parent="1">
          <mxGeometry x="325.59" y="630.5" width="76.48" height="77.5" as="geometry" />
        </mxCell>
        <mxCell id="ybhc-z9wy3QsHHDPgn1F-25" value="" style="shape=image;verticalLabelPosition=bottom;labelBackgroundColor=default;verticalAlign=top;aspect=fixed;imageAspect=0;image=data:image/png,iVBORw0KGgoAAAANSUhEUgAAASwAAACoCAMAAABt9SM9AAAAwFBMVEX///8DnP0AUaIDn/8DoP8ATp8CdMsATKAASp8ATJwATqEATp4APZoASJ4Di+gARJ0ARpYAQZwAPJqCmcRjhboBab6Hn8iWqc0CgdsAOZkDmPjx8/gBY7cDj+wAXrHDz+JLcrELVaTi5/AuYqmvvdgCfdYAlP3f5O+is9L19/q6xt2rutbJ0uQzZKp5k8GZrM4kXKdWerRFb69ribza6v3U2+pPrPys0/zK4vyGwvwAK5RbsPxBp/yTyPzl8P1rt/ys1hakAAAR+0lEQVR4nO2dCZuqOBaGNRBAIKbAFS3X0utW7uPt7pmenv//ryYLa1jUaylY1++ZvqMUInk9Sc45WSiVXnrppZcCLTa7D0H7z7xvqqDqqkiHIdE3qjPI+7aKqSYCoBIVBHCU920VU3sV9HudiBQDOHnfVjF10CtVqRyRXAFm3rdVTFFY5bJEecnkP4n8I8MXrGQNKSxJeSe0+uTFtC+9YKWqrlJYDSiXO29tSVLeXrDS5cICYVjgBStZSbBelpWiF6wrRGFJAizjBStZMVjyy7JS5cKCL1gXyG2zDOKMvk1dWC8PPkUMVrnTI957r8NfvGCliVXDaGwovWClqK5CRY6q9xvCGhzr53XcAWD0o4K/nwffcjT1AoGwoPfiN4PVdUjZxQwokXHRsd8M1gADQ6lG1DZA7NiUkOlHD1Ubv52fRWD1ZSED2jBgQzz2DsXeULqoN9w+oAwP0wDDdwJGKrtpUPKfpECjIQnHGoafKfWOX+JnNW2wfEQxHiMOq9PolaWpQgjQFwqEBFav0eHH2B8ZLGlKITbIizZ5cQGskwOguV88pCQPEIfVe6OxzMgL/CgsqfrWKcv9vvdHI54pPQ9rBIEBNHX8kKLcXx6sHodVfqtmwgJXwVphANoVAO1vMnQdtiwgWFbvVlgIVNpyh5jXNxm6Tq6GRgqs96tgzd2etm8A5/Sg8txVyZaVDEvMlJ6DNXLdDYlERlb3QQW6p+4I62SBEXfXCC3941EluqOyYGU28OeTf0cVTj0/FgLcelSR7qcQrPcIrHJaA1++FJYFKh3P269WgPP8DoTrlLZJsXrERS+TF65T2mmTt1WaHqXHuAfvnVLutc968DMrFEjJDajuH1aoe8mNDf2wj4c20At3gmNBbCh5x7JhzZGhhKJJA9izh5XqTvokfqMsRST3AQEYOwan0WNyJxvWUQuH3pJiaMeHleprtGoKOqoA9hsR0RSokXAM0heK4h8DAGi1jXC9if9Va91vsqgIWivHgl+vhY6RIJYChRAabKaoQf/nZkONkPix8JxSciY9pGnC9TDwwmYMjHBOR36H+Kn8+COKlhjyEnNIUTIwAss9FnrvQTXEy6GN+2U2AOGkmNQ2tE3m3RVMxIz607Da0xEpb6PdJi99KbQaKu2I6DEQOod+lFbNkXA50rTt+HctTM8l9euh96fnEAlse0LDTRygWGNOesP3eANvtIVj5Qq5nHCsV/FmMHdFWDIA1mm53Rzr+/3x2JycCp7mcpibGEl3ktJ5mdJykCmFSixTCiOZUvqPDOOX6/iwxGpYpp0sxkjTVF0nTR227I9Wkf1Um5ZOmraJx6mQF20SjVBY/G2Zvi0rfqaUn+Kdy2BJ3inlqsJiw4p/Ss+/nAcLg0okaU/cN9rquUNDtBnUkX0obqaLwZLBO49lpHcayzBYl6ZoorNoGCx5RE6peuFSCJbgOpDf4K3fUNpVOpu+12srDVAxgG7WcyWSIReWF/iFYfmZ0mxYQtYhAovBDmBtNKMdMS1yriR5R2g72FOAARAoqGMftSwfViitfM6yEmDRDoJbVhTWBLOgKUuSNCWtfkGHf3zLkmKw4tWwfSMs0h0CORsWUXEnl/iWlQwL/CqschKs0kd8BYsoWYGFjRgzLCteDc/AKouwZBHWJD7YLapXAXZR3YeUBv5Mm9U508C/p1gW9YGzTUseBdFR4YSFBn6UVQ3TXYepAEsKYPXCsOYYgCxYNFTQc8SRLYd7kTT7OXXdSQ6Lvi1XaU8/DZzSacQpZZnS6pSfUu6FnFL3cuzzEVilD0I9vSLKSgU4BfUbSjw2DIc2LNwJMqWhcCc+MYRnSsPhTrnCw51y6FgY1mCoAfDWS7cr0mCt8sSRLS0W+dJAOpYpbcDETGk7nimtVIVjHqzxZIMsnficvZR6KNGhV7OYE5JmA6JPmulToqIpqffg7XSqKA2WFY2e9g7ZR+mffY1A4uVG89rQMjH5LiOShI+gktsQAqeQrObYwlRuBs9P7AXJv3iiD/pZPvav99FY9tQIH2THkKazqZf9djmZFXFLRhWg4UIG0XVLzI/eTxRdpQL7SrsjR5MOXk0tVxVYIRF0MadtNYnH8K48TNN2tSPJkmBUHXK42p4qjT6duataH8XMxy+cWDt8ZyXVPKVCDI5WWEDqn1PYvUaWGCrnA9o7S6KpPoQwtkz9OClkBWSqISGvlAertqEPt63talnwzHuzALCIm2YVteZFVARYxFcFeXO4SE0E84ZFImZUSAc0pgkK5pTlJDqFpNhtlacBTo06HiRJMdSi5kMFfWKYNywSMhc3FRPRzDo7ynJnVlNDf5ZZf2PzbCr8zrAAMJ/Cb6ASJx08mlW7oq/zZnCxxEkHDxadPfM0hkU3VeucL9O9RA3rieZlbbSzg533hPVMLRadY52jVyopUD/kTeAKEa80R9+hAuxnWhEWm7D4QMkNqD2Lj8WlgkpOrNhkhudaPMd3KMpDch+gZt7Fv07CKppz+vHj58/Oj69gJU2fJY8V6GRdE/D8+IN+5s+v6BJoaqaYozgZQlc0Wj/+cT90e58g96FW2Pm1qTpqlUuTpdSulms6aepft9ZEUgkBfo6cX1jLyz2tH+Rshy/R/ftGWL1nrISl0sKOrtDK0N90AjtAk9Wi9NeNESUo8LS+LA31S+vhz1JppwOA/929ERZxR/XnfBDBku9ldIFINWxZxCZIPPefm1gpBZ5be0ahlfBnYP1ZKm0c57AoLW5p4Olye7OgqwHOaqNd6pdK9HTah/28hRVp3HEt5zL/smZm9sThkOR/0Q8sft7SYnUgQM8VP0d0uLiJL//4+6///ucmJ6sDgPrM26kMrCuGLTq3OQ0dQDrC5/NGQ9rBc6aVOAvt11hB9Fx5GVHUtLJoSHL7SzL1EmWFn9Rp8LXWM2YASnJ1VHn7AlqEFdDRs7MqnexUX4ug6leI23771CS5agBVf+46yHREiWktSe5MQYVOX1/eiqosTysAfTx12+6J7gwcpUUXlUzf6fPkMN6WSn/emJWRGsQXHeZdzK/RgFTEdqfs7ecudarTBqhAOi19xFcc/XVTiEP3jTSfMtGQpA2my0TgqN9/7/fp4wqhAaCGraM/ZHxDDktmO5IWeJnXtVp7+7qzRTa6hrA5qoUTdItfNyvSRaDR03eDIS00Qkm3TMsyTRMfjtuB2HH980sVUZLpOI75JHMhL9XYAvq+1B2Px2ld1q+k3qmTBjT0rCmZVM1MoO4y/aCracm99wrQ7ecbxzmvmanr2Sv9/rkqjJY7DVID8e6ZZn9cru5IA3ZmYm4hX4pLknuNigEQ+kadoKC9BVD2AwD+d1FVJLF3n1gVwk82neE6zW0VWuusuvjHWVrE91eoR4ut1rcIb9I1HpKWy9plVJ5uZq6URkl9Uv9UC8wfd9e5afBhqTo2j+lDxn+Wk3Gxja9o9YPI2X87byFFg4OJgIqt+iTN7f5DxEU4yb12AxKbgsgcbb9BKuZizWoYa1DFJjjOk1eY/iH/6HBKhJPUayvvBJQBiEmOmk+yGucLNdhoFtJpMG2CfW0+mMXCn//K5U6v2lYaI7qtIV3qbJn7+XeKAa/Rabu3LKypUGXrvW20Ww/3x+OG6FjfH4Yj9lwwug2GjrCF960nmtV+F80mtYNpWhghVdehrquaqhGpqvuWYdSGzeXvalExdU/LbW1/GFkEmy/T1NbDTWs1mH1zb+rXNRu7ehF66aWXclerfvy67FO3uZmcP+tptbFU7d9f5X93baTZ32b4Ky6b7p72Vc9X2tLt3uwvulgB9aWwahp9QvL3jajNF6zL9YJ1hV6wrtAL1hV6wbpCL1hZGg+Wq9Vy4OWiEmEtPpcTck6mr9odTLbb7XwZPkmEdYpfYbxsbY7N+SA7g9GdnfJPlp02yGR7BWNTb7LbicNazD9svqGwZe/TgpfVh43Zc9mwhZo+nSisxdo0hVmS85FJn0xEPuYM08aCFqs9zaE5OS/KmK1NDfhC9r6bAKvmIN0/R8eJe2nPTayHLuR4EU4EVldThUWG5GMwdGkraZRxsXEwnzeW+OeHaWOHSkilOlsR1gCj6DkAx+akjUdYOAe5q+rDsLqMZ2g3lRMQP4ZHsWo6t/2fU8txbVR3J2Kgt1vXI7Cadvwc3Y6OvS5F5sDf5ikEa8ztM5j5sHVg7GPQEar53gpdM78tJ7te5VKxZVnYe8f+z4d1dH97OnJDB3nc2448f33luOdgOmHQ4vUxBmussePB/k8107s0+xhyyTnhSQOLD/f3pFM27eG9kaRqwbEAZNUnp/H4NB/a3ozSANaGs1LNw/ZzPJ4tj9iFF3q4xMBxze0wGS9IrzX5MDXClv/RhzW2+DxV6LXvW85KN9dzcq3FqbXjZwAnNJa21tzvX9fm8xyHbQ/sPqAdzAcaBybvwlryAuFDcJ9bXuWCnT66/By0C845bdYbt033YHmskMdqxhHjjyDP+Lnjv0Swf0Gd25W5z9lrWDEwUIv8XEsnAmvBOZgRP6K7Y5SR19gemD2mrbXksBYeK83nMGIH7Kg/12Q35e+MMeH3mP+GBq7NCL71yQzD2rAfNtascpt0nyjOP5G6rxODhU/cQdCB/3UrZkS26LS1+KXd07hd5b+EzL3ZWK790w5gccNKeFgX3azA+/331LAgTPueGjdDILAq6ZRebErgibea7rL8Ob/H/GeYfLDyJiTHa8iHxYGi+Dm8vWGPh+syuOnbQdYCnzfMakkvHXtgrdsKqO5xtnQB5z8bjpcxcfdny4c1pEBx0vS/DbUATKMTVuqMXfsCWHp49epRS7h0i1u1bvETx8ywC/D8qwFOrmAlumuBBwv79iNqRomq1C6byMOWLB9WhBX/RYRxjDrvi9HIPZEZdhG2Pp+zMib2MowjhcWaLDV5rj+zJ7pvLWuyMkZvPFhRVsxo9GHkzLXbnPtdBfvVrNxb98w009hyYfEXyb8sr6ElusVBQtsjfhH1GSKF/mSGHY70xsBt24M2n/0ORXhuJoeV/DdvKIzVtZQaVvcMakcnsWWkTlxYQui9FGvYyc1ZhGMd/wfJWw+GJVbmpVfVXU140w4je+FSWLAIGyG5jnXSn/xqyGCh5J6bue1XVEMUpcWqYbCPpJvZEFblD89c+mHa0tbUSpz+4VcR3sAnz1OgHNmvXj/TsHgNPI5YH4snfYOs85BQ20V/vMLAEutBSKwTYrWPlUFNOoe7DrSwrfRulcl3HXDEtthRi7+OdYOuCgOLOaXJDQL3rmiF2NMWNtE5Zz4la6A/rXT/gipwSiMwNr5T6nWDVsyECwOLbtxH7jZh8IGFO/weV743JWjG/X9Wi5knmf68jlC4E6bFGNM0z6fldoPxtrE4sHjcF9/58sQ48GadB9I4XllZYOnaJaOR3mlxWFqMFu1FATp6OSE7oSIXBxa3CFW8ly5vP2wOkQfVsTzKkR12I9wxK642TPkaBkurWSKtAc9c8aZdx0mWWSBYPPmngogXP4Z62Jjc5J+QoeOdl29MdW47H8mjzq5D1zJFWodgjENL3kyrQLDcPRxgmMTc5Dm64InrbhnXgQM0c4cQHM/vWHCr0UP51G7zUHPL78VVc1voE7teUjZwIZb1XbinKBKsrju8ibTm54KOzze9UbxQ8OomwVV7zxbSjSd7k1uEFaBxE/UAq7XlrNsdT+o20pGbDvSDUI+Wn+lYuR8jDeRpPJ4NmgirEIWSPUWC5aeQAcKmbZvYHYuCZthX/XB7M5WucfKGuYSOvuaNc9DFY+QcZrKxoTB3wCygtbH872dDcdxgg9pcKFilTzM+NgpUFPXr1wkDscCJ5oM3ZvyU+CCrS8v0Y+Wk8dvCwkoYdQfWQWxsj7Y4bowssaOfOyJ23Rs3RD6s0oTRCqVVB5b4S1ihRqtgsEi0YqIQChVrCUmGz5GlhsoTTPoIaRweoaWogNvuzcNTu5lXFcnPNu3QfBKIrXCimXazxXow1mK7M9lEIYSwfUiZTjTYO3w2EaLzkpJ9hNOGtjuaqpEWyB4GFwIYBd75p4OQE/Gp6Gwm+jGVXFpY7X+iJxdtRfp4OW+2Ws15bEejsAbzFjlnO8kalzqtWsd6bbuKRJOL+Tz0ftyKr53uTrbHer0VX7d+ajVzH1596aUz+j+Tp73XN/qlaQAAAABJRU5ErkJggg==;imageBorder=#3399FF;strokeWidth=2;" vertex="1" parent="1">
          <mxGeometry x="392.48" y="220" width="154.29" height="86.4" as="geometry" />
        </mxCell>
        <mxCell id="ybhc-z9wy3QsHHDPgn1F-28" value="" style="shape=image;verticalLabelPosition=bottom;labelBackgroundColor=default;verticalAlign=top;aspect=fixed;imageAspect=0;image=data:image/png,iVBORw0KGgoAAAANSUhEUgAAAOEAAADhCAMAAAAJbSJIAAAAeFBMVEX/////iWn/qZD/pIr/jm//knT/oof/i2v/l3r/j3D/k3X/oIX/p47/iGj/oYb/m3//mXz/+vn/hWP/9vP/7+v/6OL/2c//rJP/39f/8u//x7j/gl//1cr/5N3/zsH/3NP/uKX/vKv/uqj/sJv/xLX/s53/0cT/flt8oxjxAAASTklEQVR4nO2diZKiOhSGBwKEfUcUlUZB5/3f8CYBJIGgQWJ3zy3+qrlVt12ar0+WP9vJnz+bNm3atGnTpk2bNm3atGnTpk2bNm3atGnTpk2b/n2di9oJ3Msp+ekH+YyiwowVCKEGPQUU6U8/jnztzRhqWBaSBqFzOf/0I8nVqeMjgB2kfdtFP/1c0lTEmsYSWpaOKfP74aefTYoaHiCRBSEosp9+vtW6PgAnhFiaFlz2P/2Mq3QbADUOoG3bqMBa/3ClzPtGZiaEditds+ryn+xEDA++CuFDlv7vVcoo8KA4oWnauh5c/6We8mDzAfmEZisUytvuH3F2qU58mngIe9m6/U9UygxiQKF2ZkRomqFp2+5vr5R7D0J+CK2XgGaIhCB/dU+5iyEchVBTUMMqFsJepm1Wv7RS3seAmgXtYn83YEuITKnFa2dGhC1kff99lbLoAClCGJBYXDwCWKWnGkO+JAyQQjP8bZWyOcIxoQK61yqILbeJcffX0OohnwAGHeXl/GucXTUF9OrHqzeCGLa1KytcHUM+CyEFWe1+xXCrfgA+CL0b9XpOEJ0+IId7bWm6zQVkCAll8At6SjWeAMZX5h2GhqsiGH4QfVU4ks9DOECC5icrZeQMgD2h14zeFOD21HKZn50bx9ZfEzpImPKy/6FKmYQcwHLyLoxoa7fRj7NSRYbtWSElgERB6PxIT3kwKcCOMD5x3mdbqP3ULpMXkl2N2M2nIRwo/ea7A5lqHhwRwviL/07cS2jj4kuEOhG7hXxBiBid7x1rZd4UUJt5hIx0hHBSgLtXCxdDvgL0fSfcfY5nor2nwBEh1GZbvX2LyCnCrdJ7jQzbU0IfK/g+c76LWUBECOGTvmsHydQFtxC3SnaVaYfPQojlfJcJuP+dACrm08buRBC15zE4X/zQfEJoGM64Sf6QijEg1BTnRWteaiSKr7rvrMxbSF4IDcMIvqX/b47KOIQeeNmUNwTRfG3DDqcbhuQTOtNOR76qCSCM3dcf+3NBiKYdiNSkaH9FvTwH0PCNtY//WjkCHBHGYrXjZuFJxECw4/4KeISG82kvHrkYkCWMRUtObeHJNbEoRNm0nSGEH+4TkdeeAB65ZoX7aRXbbV19+cbsfgNhwAuh4Qj/trcU2QSQIYxnrAr38wYeNen1k7ck+yInHo5bDZHy1RRPdNA5gLNGhacoIIgV/8X0dHFb/9ajtf0GDQiMD3b6mRZ7Y0K+157XIcSI1qSoJefyBszenbZwoWlU5f6rCihCAD7ovzMv9saE8WKjmJJ5Gr2gfpTsGzcwGe8dhia49PM0p4AKIXAW1Ipl2v/1xoDKvNeeV0YmMPScfBQVzCrQmZEFqoR+XTBTbZUzhBD4nzJup6M3JvT0t/qms04WKyz/dq3HdGaoXk/ZuMfcBRSh8do+vaWSAHoMoP3mxEKpk/mZfpqmh7PNuthzvzINhkKKiulHrGnz1xuHMBY1JxNF7CQiYQ2q+5MHp0KICBe13oK6tIB0COP3C0vkUMsxyMapzdeL4n5zKELj+vzN76iiADvC+LUxmVXymH0yzVuZCZT1uzMAIsT3f/WM1A6QIjw+syWv1PSTiKZo750FNKHQ8GSJjKPnjQppvKag3K0+hLbwozKEzkKX8UJRwAAqy7w2R+UD0BTv2Wp/AASGVPOdmA/AnlA5Fq8/N6tGf7Skpvh4vXAoQiDTfCeQA3hf8YVXnWxNIPP5pnhl3gcUIADyZviJFWUJlaVem9GtXY85JSVBFP5c4tCE8sz3OZ4Aet6KSdmoJoAh7ttrVFYXuL6cJjRkme/zkQJsCT24wjJFLgbsptvuKIi2uDu5+FQhBdX7D0HrcIzHhJ62Yh4ocvCowu4mVjNEaIo/6cmhCVU55tuZhDB+12tjpWR4b7vdV0R4mBSIf5ohlDPhtvs7DmEcrAcc/vo5qoimcJcfuXRbakgx35MQvj+Y+IMLJRnaUz1ZgQaGtni7fGMqoow+Px2H8Cgyrz2nvWWOZ6DOdhiY4k9aUsXUldLnlyPCGLz+zKx2BNBiPEyko2Gv+AjlTBO6r9aBRFSPCmm8wtDf8XS+OV7mdsIgFK/ZUUAT+hKWSk02hJ7z/lcVGplBHHfTFzMIbHF3khsDoAvWWONOmjTCRiN1cNL87ewgMMXdSeHThGvGp50stpB63rsl/9rWwWmreUCEofgAau8MgK5rrO/zwZEhVARX0Ca6kfUmnVdvHLw6IfykScAQrp9wa44MIOot3uqDcgJocp+nQoS2uDtRaUKwZgjXav93RAiPyx195BLAkI9RoqbGXGC+jQHQlWC+I6q36Ia+y5aZ8Hc4Oln1neloMlwRxcf5nfluCd18fUUMYjaEeHS/bPCbBHi7rD7bOyd4rtsX/rrWfHeALlhvvqvpDBQ8LhlcZzYBdOf/2DmuiOJ9vkoTGutXu0+jWVISRUW8CTuT7fnWMwfZ4Ioo7k4qJobrzXd6ZAm1mKyniRaOvUV2CD3tY/aIMFxgvo0B0HXXL7JFdkwRei4+XYgQLbFStSOAnE2ltA543WmZ+R4IJUy45TEVQuzaWkRbpBG7t9vYXsWHrNOL9/k0oGusn3CjlgwVqHjoQQBG9ARsSNECvrTHVxREvhvgKqcJwfoJtzOz6oubUXKIEnovR4rtFjbtte044Yoo/qSNMQCqMioi01XEuMRF5JSh96LqVG0EBZrzFPX5gfiTfvkUoSphkY30+X1f2EbuoEPcqj59qJoAcr32RLipEV9qPTgM4XrzfTnSvX1MfpZqeLvss51sOS6iuuDQ9oYIBTZk9hqaGlVVwfoJty+G8Nj+yTJyIj2eayWR1yaAgk9d4qZG3J1caEJ3/VbT6C+zrt21COcWkd8+JAEBDEX7qrO5zHwbAyCS8OdmZdOEjxNpO3LsnjvQOIQY0BKfCSPmW/xJU4cmdNeb7xu9UU/R+x/fSW4IZTrQSE0CuGSXRo4rovD7I5cmBOtXu+/Mblnl8SdrM7Qo48Yks8jxn0WFpwkXmm+qkLoyzDdNGA8twqVFZJvrPcSjCW3ZLNgXrojiU4MlQyihz9c9ap+eR23AuHqaZmnMCudOw4Bw4S6NFFdE8Tn6szEAIq0332pM70Skh+O1h/MjUadI7viwqA0Xt+AgcJwFq90uTQjWm++CJoQa/SdTFYQIw76RKMixbbh8KrpChKG4O6lpQleG+Wb2AzN/Mnza3tK6Nc5GIefS3/iN9xARik8NNoAqpOr6HW4JpI/gsUYmCjAi9NHfPyFHtnURrz1RhgiDSvjtXwZNKGG1O6AJFbZFSEycFkLTwsDCp5l15b31IEwovnKXMjGUMOF2pQ/CQo19MdFJ5os++8WbVj9HFTEQf1ImhO56871jCI+jB0mp5CXv1EGiAjc14u7kShOq6833gSGMxy3CGT6Sl8B31yz3uJiKu5MToAklmG+NbkyViV+5wJ7QMt7sfiPTcRzxPj8zaEAJE241E0Rr/HKqDQlorDfPzKu4Iop/komhu361u2SSCsSTBwkexRQNKqCev5Fd5oIrorg7qZimZv1qd3ZkCCctgkoR4rGvpTtLs8uccEUUb6dKKoi5KuF4Ce3aNGViIgihZYWhpfVphCzNXpTIIsWE4k96pipinufrK6LrDYAanOxXCBGhBVDU0lLVtZbRtHVtQcqnyMXnuIQfKKFjmLsSVrtjmnC8apGhyFn90yW7G04+0yZmsS0zF8wuQ8y3eP29uVQIVQmr3UwOoXjUIhSot4C0Hd1fzUfyGVu3HZHsMiVuTMXdScMQru/zExpQU0ZtF0CFVBvVuawBtj7kDTRfVsoMnzeshJ/o4g6AuVqvN9+OQhFCtms+4ELKmbZIy9wmO73IuRg9vD1N+ZTgA5XCc/RRToUQVUQJq91MPj12XgwP7CG/JqBKqVv98R/TDtUnlVLFTY3ovrkC0IC5hD7/FNOEMfOcOS6k84+2vwb2cMbJnu0pG1wRhcx3lF0AE8JcXT+8SJkYenTEIjjJADVWl3yGnDJEkMGFd8JwHwiY7+iwLypgDI5GGuEfnQLUYEW9skOEr5dB03ttP5LPhKZzO42jnmDz/WwWMspOlxoYgDZseUco4RCUymQmpefFatTQCB0FTnbVkEYoNINxpfRxUzPjEKJzcXMNgxnbU4QSunxivoeUiLT51lA1FDYj54sznNdGoWyo474Xx/GDqfnGB/RVx+/X1HiAuYTeAq+nUYTeUCrwJPeL3RajbypU6lC66T8qZRH4fsAW9+RcVu5AhxfuXQ6hKuUc25HOTErN+V615UN7XCn7DDsolF2lVHGeq2E0m+6aGjg+tU8PGE7eNB8qpKjPpzOTakOxxGNDuPzrol0VPPJe4MU1VBJxYggHP210Lm8G+t9+yzOGM0BdYl8UcUIo50xw41GEFuwLfgb5hkZE54vLJPdo81wFhot+6A9nRwzfUKt7V2Ejeuzbh1DOOb0vJln+Y1GtGbvuZcqKfIDsMl/gfz0cimTd7NJHQxLdwCSGrqRjeglD+FibwK4brvobHk61GY6zs7RwwTj7QJJPO0NZgKjCwQHQ6ldAUwUV0tWzedFX5QRMhh3HAZzsA6k6aUnVXF5yhUqhCTvzXcIV08C0otOQyYsUTM57MpcDKDFj1N2jCK0ut56LXbecX7IPu2Rszcz3ncGku1drmafyU48CtBRiviMPZ8+V9AtuJD3LbFZEHuBNaj7TyIQUYWu+T7iQyjoYX+LkJbPjp50/cWxuJek391LhAGhpJHLEdctqywrUCc5m0zsZE9MtYTvU+AkUitBSEryJAU8Cy/p+15nPiFj6E9MtYZvJWGePArTwXiHsuq1K0tcfQt/wZzqewhgDqjIOro0VQZoQm+8Ku25ZGThOqBrOZJprjMm4ScL+BI5wnz/c6OD8iYjrlpWwqcaFlFunL1NACZsuebpC+soKr3XdshJwJA7Ovcp7pTImQ1/wobyJO4+5ZAyQEK6fUG/1FSBAzjAoqqeDe/CpTMLIfNO3jpD/PJlGXKaLw+0Mk3wKKM9rT2RP7sax1hzuphUB3N1P6vRB7ScwKMIP5tit4Zjw9TSioM4BLwNy6k4B3U9mgi6V8dU472QU5KpBhXSSgy0z6C3dLV/90dT6WTwmFF/TfCEVE46ic/aHObYeUK7XnijqK+Kw80LSN6eokPqj6Z6dwQH89MUB6ohQyuAXq8TVkP2yk0MdcOp6iUrSr5tXA9kLqqTFMMeFlKnTJQ3YbVr/bPZgor3HEuri6eSeKsGFlHHdBQfwA157osPokjFdl5ToJxjld258MCY0vgMQme/xJWO6kku4s7kaDQ0rBwC2FsrILiD2KHByjZquaWvv10oA47qjygfjEH7Ka090UizOTXjIoq66sxkn0xvmL6LaACNCKaloxHTw5m7C0y2z+nqzt8KG5jHHlqhTQAknDoQVaLOXGdq2ZdXvVMrIxYW0++scAJ35okP8zvusdh4/hOZjB5S6+CJ1nHq13yyU9QnLaMDvvZUMaM8IW0ijWVSqSlxIW9edGRNAoH7z3XLpoyLO3UdJEneaV/FKqfq9694/Ml0NgDLW6Jdp39fEOcJ+b5A93VHC1SFEgMR175wp4Me9Nkfd3vz5ED6SWNtCey9PveumEj8+AKuP4/B0AIolQhiGQWia/qu9lzhPNzZ/TEK9VsZ3XJnD1V7VRa8UDQIUymd7L3FmWR/gfW1TwG8YTMzqcKptaAkRtjugZq/bxNOIPkgvdObOFtD/2BUPgor2F7OFfAXYhjLgV8oLSbXuMFktCeDn7rBYoqxw8MlmEUJya4UxqZTE0DA5nvtkbJ+ZuH9DaZmbls0B5F1miELpsJXyHEwAScZAQ27O9ZVKdlXYQT4HbHdA4es2H5Xy6vBCCCSk1pGs6HwhkRQgJNu8nO4O3IJJlt8TAvC7LnTulRbApCDnAbtQgqYBHEDgAgk70z+l9FSHuvkqhN0mL/zP4ITw2732QiVfVwL5ipDd5EVLwjGmj+vcBPYEchxC+oYqSsb3DybeU1qqIXs3LIeQE0K/+uknX6DD6RYM96aKhfBbrqeUKeTsekghwg9f+/chZQUYX/Q318443zOv/QGlZR2Ec5cZUoC/wmu/q4RsXX/aznzkHq5vFa6UHSQvhJLvN/opZYU6upDyAfjrvPbbSu83squbKaTGL/Xa7yrZXcmZigegU/9er/22zo3RQiIHrn7nnfffqay81nldlf+vArpp06ZNmzZt2rRp06ZNmzZt2rRp06ZNv1T/AaYlrXy18vcEAAAAAElFTkSuQmCC;" vertex="1" parent="1">
          <mxGeometry x="314" y="455" width="100" height="100" as="geometry" />
        </mxCell>
        <mxCell id="ybhc-z9wy3QsHHDPgn1F-29" value="" style="shape=image;verticalLabelPosition=bottom;labelBackgroundColor=default;verticalAlign=top;aspect=fixed;imageAspect=0;image=data:image/jpeg,/9j/4AAQSkZJRgABAQAAAQABAAD/2wCEAAkGBxITEhUSExEVFhUXFxcYGRcVGBgWFRUZFxcXFxgfFhUbHSggGB0nHxUVITEhJSkrLy4uHx81ODMtNyktMS0BCgoKDg0OGxAQGy4mICYvLy0vLS0tLy0rLi0vLystMC8tLy0tLy8vLy8tLS0tLi0tLS0tLS8tLS0tLS0tLy0tLf/AABEIAOMA3gMBIgACEQEDEQH/xAAcAAEAAgMBAQEAAAAAAAAAAAAABgcDBAUCAQj/xABNEAABAwEFBAYGBgcFBQkAAAABAAIDEQQFEiExBkFRcQcTImGBkTJCUnKhsSNigpLB0RQ0NXOisrMz0uHi8BdTVHTxFRYkY2STlMLj/8QAGgEBAAMBAQEAAAAAAAAAAAAAAAQFBgMCAf/EADURAAEDAgIIBAYCAQUAAAAAAAEAAgMEESExBRJBUYGRsdFhcaHwEyIyQsHhFCPxJDM0UmL/2gAMAwEAAhEDEQA/ALxREREREREREREREREREREREREWpb7cyFhkkNGjzJ3ADeSttVdtdfRnlwtP0TCQ3g46E+O7u5lR6mcQsvt2KbQ0ZqZLfaMz72lY782kmtDqhxYwGrWtJFKaFxGrvlu4rvbMbWkkRWg65NkOXIP/AL3nxUIRUzKmRr9e+O3x9+C08lDBJF8MtsNlsx78c1dyKKbD3uZYzE41fGBQnVzNBzI08lK1exSCRocFkaiF0MhjdmPYPFERF0XFEREREREREREREREREREREREREREREUft+1lljyxl54Rio+8aN8iuLPt/7Fny4ufn5Bv4qO+rhZgXcseimx6OqZBcMPGw62U6RV+NvZd8Mfm4Ldsu3kZ/tIXNHFrg74EN/FeBWwk5+hXR2iqpv234jupmsb5AASSABqTkB4qL3ntpC1g6kGR5G8FrW+9XM8h5hQu9L4mtBrJISNzRkwcm/ic15lro2YNxPpzXum0TNLi/5R458u9lNNo9p4RG+OKTFIQWgtBLRXInFocq6Vzoq9RFVTTumddy0VLSR0zS1l8c7oiIuKkrauu8X2eQSx0xAEUcCWkHUEAjuOu4KVWTb3/ewjmx1P4XfmoWi7R1EkeDSo09HBMbyNud+P4KtS7tpLNNTDJhJ9V/ZPhXInkStS9NsLPFVrSZHD2PQB73/lVVsikHSEhbawvv/Sgt0LTh9ySRu/Yx95qWybeyn0YYxzLnfEUUq2cvT9JhEhADgS1wGgIzyruIIKqhTDo4mo+WPcWh33TQ/wAwXqlqZHShrjcFeNI0ELacujbYix4XAPW/BT5ERXCzSIiIiIiIiIiIiIiIiLXt39m/3HfIrYXlzaiiWvgvoNjdUkF9XqWItJadWktPMGh+S8rLDJb8m5uiIi+r4iIiIiKUXJsbJIA+YljDo313DvByZ41Pcppd10QQf2cYB9o5vP2jn4KZFQyPxOA8c+SrKnSsEJ1R8x8Mufa6rWybPWqTNkDqcXUYPDERXwXTj2HtR1dEObjX4NKslFNbo+IZklVb9NTn6QBzP5/Cro7B2j/eRfef/cWtadjLW30Wtf7rwP5qKzkXo6Ph8efe68jTNQDkOX7VM2uwSxGkkb2e8CAeR0PgtZXXJGCCCAQdQcwfBRy99j4JKujHVP8AqjsHm3d4U8VFl0c4YsN/T9dFPg01G42lbq+IxHfqq4Uq6PHME76kBxZRoPrZgupywjL8lw70umazuwyNpXRwzafdd+Gq043lpDmkggggjIgjQgqHG4xSBxGI2KymY2ohLWuwcMxj78VdiLg7L32LTH2qCVlA8ceDh3H4Gvcu8tCx4e0ObksZLE6J5Y8YhERF6XNERERERERERERERERVXtjY+qtbzTJ/0g+16X8QcuKrI22urrYesaKvjqe8s9YeFAfA8VXOFUFXF8OU7jiPfmtjo6oE1O07RgeHcYryi+4V9wqLdTrryp5sfs2GgTyt7RzY0+qNznD2uA3c9ONsdc3XSdY8VYyh7nO9Ud43nw4qy1Z0NMHf2O4d+yotLVxb/RGfM+G7jt8MN6IiK2WdREWnbLwihFZJGt4AnM8hqV8JAFyvrWlxsBcrcRRyTbGyDRz3d4aR/NRG7Z2Q6l45s/Kq4/yof+45hSf4NTa/w3cipGi5lkvqzyehMwk6CuFx5NdQrprs1wcLtN1HexzDZwIPjgte12VkjCyRoc06g/6yPeq22l2edZ3Ym1dETk7e08HfnvVorBaYGvaWPAc1woQd4XCop2zDx2H3sUuirn0zt7TmO249dqqW5LydZ5myN3ZOHtNPpD8R3gK24Jmva17TVrgCCN4IqFVu0VzOs0pbmWHNjuI4HvGh8DvUt2Dt2OF0ROcZy912Y8ji+Cg0MhZIYXez+8+CtNLRMmhbUR7Ohy5HD02KVoiK2WeREREREREREREREREWvbLSGRvkOjGl3kKqoHZmuWeeWQ8BuVkbazYbK4e25rfjiPwaq6wqk0nJ/YG7h1/wFo9DR6sTn7z6D/JWKiBqy4V0tnLJ1lpibuxYjyZ2s+dKeKr2DXcGjabc1avkDGlxyGPJT64LvEEDI6dqmJ3vOzPlpyAXURFqWtDQGjILEveXuL3ZnFF4e8AEk0AzJOgC9qD7Z3wS42dh7I9Mj1j7PIb+/kuc87YWaxXalp3TyBg4ncF4v/a5xJjs5wt0MnrO90bh368lFHkklxJJOpJqTzJ1Xqi692bNzzAODQxh9Z+VeTdT8u9Z90ktQ/ed2wduPNamNsFJHsaN5zPnv8lw6JRTZmwo32jyZ/mWtatiJAKxytf3EFh8MyPkuho6gfb6juvA0lTE21/Q9lEy1di6do7RBQYsbPYeaj7LtW/LuWjbLFJE7DIwtPA7+R0I5LDhUdr3RuuLg8ufYqS8MlbZwBHMcP0rQue+YrQ2rDRw9Jh9Jv5jvC6iqCyzvjeHscWuboR/rMdysi4b3baI66PbQPbwPEdx/NXVHWib5XfV1/fgs3X6P+B87Pp6frceBTaG6xPC5nrDtMP1hu5HRQzYu0FlqDdMYcw92WIVHGrQPFWUoJfVl6m3xvAo172P8cYDx+P2l8rI9V7JhsIB8r+xxXXR0uvG+nO0Ejzt7PAqdoiKxVOiIiIiIiIiIiIixySBoJJAAzJOQA7yvM0zWNL3EBoFSTuUAv6+3zuoKtjBybx73cT3bviotVVsgbjidg97FKpKR1Q7DAbT72rY2uveObDHGSQ0kl1KNJpQYeO/NRvCstEos5LM6V5e7NaeCJsLAxmSxYVJtg4qzPd7MdPEuH90qPUUs2BGc3KP5vXahxqGDx/BK417iKZ/l+QFMERFp1lFqXjaerjfJ7LSeZpkPOiqp5JJJNSSSTxJzJVibYOpZXDi5o/ir+CgVnhL3NYNS4Ac3Gg+aotKPJkawbvUn9LQaIaGxOfvPoB+ypJslcIcBPKK59hp0NPWI356efBTVYoIQxrWNFA0AAdwFAsqt6eFsLNUcfEqnqah08he7gNw95oiIuyjrVttijmYWSNDgfMHiDuKry/rmdZ30ObD6LuPce8f67rNXPvqwCeJ0e/Vp4OGn5ciVDrKUTMuPqGXbtuKnUNY6B9j9Jz7994VXUW9c1udBK2QaaOHtNOo/Ed4C1cC+0WbbIWkOacRiFp3gOBa7I4FWxE8OAcDUEAg8QcwuTtDdbphEW0xMeD2suyfS+TT4LFsfa8dnwnWMlvhqPnTwXfWpaW1EQJyIWSOvTTYZtKIiLuo6IiIiIiIiIi1bbI5sb3NFXBpIAzqaZZL4SALlfQLmwUU2vvPG7qWnstPa73fkPnXgo3RZTnnrXfxTCsfNUGZ5e7b0991rIYxEwMbsWKiUWXCmFctZdbrFRSXYd9JHt4sr5H/ADKP4Vu3PaeqmY/cDQ+6cj86+CkUsojma47D1wPoVwqWfEhczeOmPUKx0RFrllFxtqosVmfT1cLvIivwqoXdJAmiJ0EjP5grImjDmlrhUOBBHEEUKri8LE6KRzHbtDxG4hUelWOZI2YeXEG45jorvRcoLHRHz4EWPJWYi5VxXmJ4xU9ttA4d/HkV1VcxyNkaHtyKpnscxxa7MIiIva8oiIiKtb+ipaJae2T97tfitCi6l/mtolP1qeQA/BaFFjpyPiu8z1K10Tj8Nt9w6BSPYWSj5W8Q0/dJH/2UxUN2Jb9K8/U+bh+SmS0WjD/ph5nqVQaS/wCQfIdEREU9QERERERERERERFGb8uDETJEO1q5mgd3jge7f84q5hBIIII1ByI5hWgufb7ril9Nue5wycPHf4qorNGCQ68Rsdo2Ht0Oed72dLpAsGrJiN+0d+vmq+olFIbVszIPQcHjh6Lvjl8VybTYZI/Tjc3dUjKvPRUktNNF9bSPUcxceqtWVEcn0uH55ZrUolFlwphUe663Ux2avDrI8BPbZQHvG4/h/1XbVdWG0uieHt1G7cRvBU6u+2smYHtPMb2ngVptG1gmZqOPzD1G/z2HnkVQ11N8N+u36T6Fba5l73W2dueTh6LvwPELporGSNsjS1wuCoTHuY4OabEKvJbPPZng0LSNHDNruR0I7iu3ZNqsqSxkHizf9k6eakj2AihAIO45haEly2dxqYh4VaPIUVYKGeEn+PJhud7PMAHxVgayGUf3Mx3j2OvktGbaqIDsseT34QPOp+S3LktksrS6SMMFezSuY8fDPessN1QsNWxNrxNXEcq1ougpUMVRra0rx5NGHEkX4Yd40skGrqxsPmTj6ftFhtEwY1zzo0EnwCzKMbVXhX6Bp4F/zA/HyXSqqBBEZDw8Ts97l4ghMsgZz8lGJXFxLjqSSeZNSvFFlwphWNvvWnuslgtb4Xh7DnvG5w4FT6w2tsrA9uh3bwd4Kr3CpBsjaaOdEdHDEOYyPmKeStdF1RZL8InB3of3l7xr9IQB7NcZjopYiItKqJERERERERERERERERFrW2zNlYWO0I8juIWyi+OaHCxyK+gkG4Vd2qzOjeWOGYPnwI7lioplftgbIwvyDmAmu6gzIKiNFja2lNNJq7Dke/l6+g0FNUCZl9u1Y6LYsNqfE7Ew0O8biOFFjolFFa9zSHNwIXd1nCxyUxu29o5aCuF3snf7p3/NdRV1RdGy3xNHkH4hwf2vjr8Ve02mhlMOI/I7clVy6O2xnge/dTRFHYNpfbj+6fwP5rZG0cPsv8m/3lZN0lSuFw8cbjqFENHMPt6LsouBNtIz1WOd7xA+VVyLZe0smVaN4NyHidSuU2l6Zg+U6x8O+XK69x0Mrjjh59guvfF9hgLYyC/QnUN5cSosc8zr817ovtFnKqskqHaz8hkNg97T0GCt4IWQts3msVF8oswZXICpO7ipddF1tjZ2mgvOZrQ04Acl7o6R9U8hpsBmfe9fKipbC255KI2ezPeaMaXHlXzO5SS5bjMbhK89oVo0aCoprv1XfAX1X1LoqOFwc46xHAcrn1JVZPXvkGq0WB5++CIiK1UBERERERERERERERERERERc2/n0gf30HxFfhVRGilm0A+hPNvzUVwrKabcf5IH/AJHVyt6D/aPn+AvNEovWFMKp7qddeUovVEwr4HJdeaJResKYV9ul15olF6wphS6XXmiMjJIABJOgGpXrCu5svFm91NA0A861p5BSKWH+RM2K9r7dwtf8W4rlNL8Nhcti5ro6vtvzfuG5v+K7SItrBAyBgYwYe8SqKSR0jtZyIiLsvCIiIiIiIiIiIiIiIiIiIiIiIi1bwhxxubxGXMZj5KH0U6WLqGeyPIKp0jo3+U5rg61gRle+0bR481Kp6n4QIIuobFZ3O9FpPgSulZLjc7N5wjhq78gpKi5QaChYbyOLvQcsT6r2+uefpFvX3yWpDYY2NwhgodaitedVhmuiF3q05Ej4aLoorR1NC5oY5gIGQsLDy3cFFEjwbglcZ1wM3Od40P5LFJcGRo+p3AjJd5FHdoukd9g4XHQrqKqYfcoO+MgkEUI1B3LzRSy23eyTM5HiP9Zri2i6pW+riHFufw1WaqtFzwG7QXN3gY8QMvO1vJWEVUx4xwK5tFKbms+CIV1PaPjp8KLlXZd5c6rqhreI1PBSZWWg6NzbzvFtg/J/A4qPWTA/IOKIiLRKvRERERERERERERalvt8ULccsjY28XkAHuFdT3BcnbDaNlihxUDpH1EbOJGpP1RUV5gb1VFlsdtvScuqZHes95pHEDoPqj6rRU68SiKx7R0kWBpo10j+9sZA/jwrZu/bywSkN67qyd0rSwff9Eea4Nk6K46fS2l5d/wCW1rQPvYq/BaV7dFz2gus84efYkAaTyeMq9xA5oitBrgRUGoO8b17VUdHD7dHanWXC4RMzlZJWkVa4SzgSdAMiKnvVroiIiIiIiIiIiIiIirTpH2vljkNls7yzCAZHtyfVwqGtPq5EEkZ5jShqRWWio2DYi8J2iUw+lnWR7Q8g7yHGo8c1Z2wtwmx2URuAEjnF8lM8zkBXuaGjnXiiKSIiIiIiIiIiIiIiIiIiIiIiIio3a61vtt4uYzP6QQRjcKOwV5F2J1eB7lcFyXTHZYWQxjJozO97t7nd5/w0Cp/Yr9qQ49eskr72CT8aK8kREUG6RLfb4nwiydbQtfj6uPrMwWYa9k01KiP/AG5ff/qv/j//AJIiuai+qlJ9ob5Y0ue+0NaNXOgDWjdmTHQKS9Gl/wBqtM8rZ5jI1sYIBawUJcB6rRuqiLevHpBZDbHWaSCjGOo6XGTQYQ6vVhlTrSlVoWnpVYHfR2Rzm8XyBh+6Gu+ah23f7QtPvj+Rqn1w9HVmZG02lpllIBd2nNY0nc0NIrTia17tERdbY7aN1uZJIYOqa1waDjx4jSrvUbSgLeOvctXaPbyzWVxjaDNKMi1hAa08Hv3HuAJG+i19sbYy7bEIbK3qzI4tZQkltaue6pNa7ga5EjgoRsPsiba5z3uLYWGhI9J7tcLSdKAgk9441BF229Kslc7IynASGvng/Bdz/aJZ3WaSZjCZY8FYHuwOIc9rCWuAIIGKuWfECq3XbA3cW4f0en1hJJi88X+CrTbTZZ1hkbRxfE+uBx9IEatdTKueuVfAoitPY7aP9OifJ1XV4X4KY8dey11a4RT0tFVe10obeczyMQbM0lvtBoaaeIFFN+h39Vm/fn+nGoZtGwOvZ7XCoNojBB0IJYCCiKT/AO1Yf8Gf/d/yKeXdbRLBHORgD42SEE5NDmh2bstK6rS/7pWD/hIfuhQzpSvbqmx2CHsMwAvDchgHZjYO7skkdzURdC+ekuCNxZBGZiPWrgj+yaEu8qcCudZulV2L6SyDDxZJ2hyBbQ+YWLYjYJk0bbRasWF+bIwS2rdznuGeeoAplQ1zoJNb+j6wyNIZGYnUycxziRza4kHy8URat6dIsDIo5YGddjJa5pf1b4yAD2hhdx5ZZEqT3FeP6RZ458GDrG4sNcVPGgr5Kib8umSyzvgk1bo4aOafRcOfwNRuV07C/qFm/dj5lEUau/pPic5/XQGNrWEgtf1jnuDmgNDcDRUgk1JpktKbpVfi7Fkbh+tIcR8m0HxUFuq73WidkDDR0j8NToBqTTfQAnwVw2TYKwMjwGHGaZve52MnjUEYfs0RF52Y23s9rcIyDFKdGOIIdvOB/rciAe7JStUbtrs+bBaG9W92B3bjdXtsLSKivFpwkHvHBWvct8iSwstchoOqL5CNAWA9ZQc2uRF7v/aGz2RmOZ9Ca4WNze+nst/E0GmahFp6VXV+jsgw8XyZnwDaDzKig/SLztv15DvzbFGM6e60eZ7yrMu/o9sMbQHxmV1M3vc4V5NaQB8+8oi0bj6SYJXBk7DATkHYscf2nUBb4inErVn6S8Mr4v0UHA5zcXXUxYXFtadXv1WntrsCyKJ1osuINYKviJLqNGrmOOeWpBJyrwoYBZdfD8kRd7aizvsV4vc0aSiePgQ52OnKuJvgVct03jHaIWTRmrXiveDvB4EGoK4+22zItsQwkNmZUxuOhrq13caDPcad4NXXTfNsu2ZzMJaa9uGQdl26oodcsnNOeWoRFe6KvrN0qQEfSWaVruDCx48yWn4Lm3x0oPc0ts0OAn15CHOHJgyr3knkiLe6WL9aI22Nhq5xD5Keq1pq0HvLgDyb3hZuiO7CyCS0OFOtcGt92Oor4uc4eAUP2W2Ynt8vWyFwiLqySu9KQ1zDCfSJ0roPgbps8DY2NYxoa1oDWgaAAUACIqT2u/akv76P5MV5Kjdrv2rL++j+TFeSIqz6ZGH/AMK71R1w8T1ZHwB8l3OiyRpsDQ3VskgdzLsQr9lzV09r7hFsszosg8HHGToHitK9xBIPNVLcN+Wm7Z3tLN9JIX5VpoQdxzycKgg78kRXuoJ0uSN/RI2n0jM0t45MfiPLOniFhd0pwYcrPNjpoSwNr71a/wAKgO0F9T22QzSDJgya2uCJpcB8SWguOpp3AEVg9Dv6rN+/P9ONQ6//ANru/wCZj/mYpj0O/qs378/041Dr/wD2u7/mY/5mIiu9Up0oxuFvkr6zIy3lhw/NrldahHSTsw60xtnhbWWIEFo1kYc6DiQakDfV2+iIpTc0jHWeFzPQMbC2nDCKLeVK7I7byWNvUvZ1kIJoK0fGSc8JOorXsmme9SS39KceA9RZ5C/d1uFrR39lxLuWXNEXI6XpGm1RAekIu1yL3FoP8R8VP9hf1Czfux8yqQt9olmc60SEuL3GryMi6gyB0yFMtworv2F/ULN+7HzKIqp6P/2lZ/ek/pSK9FRfR/8AtKz+9J/SkV6IirHpl9Ky8p/nCt66GE7PuA16m0HwEkhPwBWj0y+lZeU/zhUl6OmA3bACKgiUEHQgyyIihHRHI0Wx4PpOhcG+D2EgeAr4FXAqM2huee7rUHxlwaHYoZBn9lx9oCoIOo7ipZd3SnHgHX2d4fvMWEtPfRzgW8qnmiKeXlIxsMjn0wBjy6umENNfgvzzY9fD8lKtrduJLY3qI2GOIkVFcUkhrkDTQVp2RWppnuUWjYWvLSCCKgg5EEGhBHFEX6QXOvG6oLQCyeJsgGmIZt91wzb4FERFTO2N2xWeUsibhbXSrnfzEqZbB7M2SSPrJIGvcKekXOb4sJwnxCIiKwmMAyAoAMgNy9oiIq9vq47O+2SSOjq7rGGuJ4zAZuBpuVhIiIi5F/XFZrS09dC15a00dm1w35PaQad1UREVSWO6oTaerLKs4YnfOtVZl7XDZo7G+BkLWxnqyQKguIkaQXPricctSURETYiwxwwPEbcIMhJzJzwM4kriXrcsBtnWGPt9cw1xO1qzdWm5ERFYKIiIohtps/ZXsfO6FvWj121aT72EjF41UI2JuWCeUNljxCoyxOHyIRERTna+5LO6OGMxNDGF+FrasDagVoGkLtbOwNZZ4mNFGhmQqTTM7zmviIih+y9x2eO0wyMjo4F+eJ51jfuJpvViIiIolt1dkUxh6xmKgkpm4Ur1ddCOAXU2Us7Y7LGxgo0Y6CpOsjjqc96+oiLo2yyslaY5GNew6tcAQfAqoNtrkgglLYo8IrpicfmSiIinOxWz1ljY2ZsLesPrmriPdxE4fCij1s2fsxmlJizMkh9J+95+svqIi//Z;" vertex="1" parent="1">
          <mxGeometry x="480.89" y="352" width="86.05" height="88" as="geometry" />
        </mxCell>
        <mxCell id="ybhc-z9wy3QsHHDPgn1F-56" style="edgeStyle=orthogonalEdgeStyle;rounded=0;orthogonalLoop=1;jettySize=auto;html=1;strokeWidth=2;" edge="1" parent="1" source="ybhc-z9wy3QsHHDPgn1F-30" target="ybhc-z9wy3QsHHDPgn1F-29">
          <mxGeometry relative="1" as="geometry" />
        </mxCell>
        <mxCell id="ybhc-z9wy3QsHHDPgn1F-30" value="" style="shape=image;verticalLabelPosition=bottom;labelBackgroundColor=default;verticalAlign=top;aspect=fixed;imageAspect=0;image=data:image/png,iVBORw0KGgoAAAANSUhEUgAAAT4AAACfCAMAAABX0UX9AAABR1BMVEX///8nIyQAAAAjHyBats4dGBlvxMQhHR5mvshrwcZpwMdWtNAbFhdXtM9Us9EfGhu9vLxyxsP4+PgTDA5jvMpduMxQsNMXERJ1yMHb29vq6ury8vJOrtRNSkzi4uJGQ0Q3NDUuKivT0tIMAATExMR8entEqNjBwMCnpqabmppycHBWU1TOzc1iYGC1tLSVlZUDBwg0MTKHhYZpZ2dSqcIpWWlJrtsKExZBptofQ05IkKESJy9ubm4XLzUzboMcOD8QGxs5iqotd5UcZ4QAABUCLDUtbH5Jo8UmWW8AFBkIPEg8g5skT18rYmxSnq1cssI5SVNLU1g6mMQ1ibEtdpsAGidGlbAlRkpKjpkPIysQOEw8eoohP0MjW3ghExFBgIhYoqk0XVxOiYpAcG5bnpxmtLQtTEhNgXp+08lNm7A6Yl1foZosVFqzzD+CAAATHElEQVR4nO1c7UPTyLpvJsSgRloTILaxTdq0tulLWtqybIFSZM9BPVC4d92LuugFcd1d7vr/f74zz0zeg1aUl3N2fh+0bSaZyS/P+zMhk+Hg4ODg4ODg4ODg4ODg4ODg4ODg4ODg4ODg4ODg4ODg4ODg4ODg4ODg4ODg4ODg4ODg4AihkstVb3oN/1ZQC5WC6n3JiwihTr9RzTecqvq50zgoTEKYWy2p+Wqub492dnaePt356R/416Jx02u7jXAtKTsoEYkzjIJr/nN/f393d3VfwYShZ8uPAT883nm+1uLil4DhEJpejK1WbWAWxX+tD+/fv7+AsTdBaH95mfH3+IcfnqLBTS/2ViHvdhvmi+nB4eESxvBfmMbxAwxgb2FheS+QPkLfDj7eqhZuetW3BW0idpPDxcXFJcDccIJ250L0LU/QZM8j74dnz8n4jf/6706zU2w1Kze9/JtGoa+gKWHP5+8cvRnOefQtE+nDfG1t7Tw92tn56QUa7bx8+eTJzy9/+R9y4G/PX6aGXi+G6Dtfw6ysDh9Q43e0itZGo/3V/f3RC0IXeopF8AnBj09evttQcje9+htHE716HbC3NAWWxqP96e7+aISZPFp+DK7j2T7+/c2zgL4ff/zxV/Q358+wCFufTl4fLh6uH6xP0dru8fH5/eH68SrwuEfcLvW8OG5Baz9H6Hu5hlqNa/IjrlnEqF3PZLOhkDPR9trG28kbtDbe7vXQm/U5AuI67u+N1tDqMgXzHT9h/p6E6HtHGC7nr2WtNU2WZbt7wVG1cL3hfMF1nP7/opPT01PsOQ4PdkHY1pcYe+A6dtHqQpS+HkKjlyB/QN9P5JyV66GvkxUEQbvAWLQ7VhEO1Zu1Wq1fv+rF9IGt0/n5xXnqOBbXp9uMPZ++hR7aOgrTN4Kzfn338uXPv7x798sbZF1bKaFgipg+oZ16sIGyoqwT0pq2oiiocdWrAR4+zIfoW1r6hKZR+kAi95/5ScfTDSSUrW6jaQpv4AKt69OYShnTJ1qltGOlFUJttog/mjL+ZKeT/B1RqqHt03tR+o7R2nmgvPfvDzeAI7Sxv7Wz8/z51gRZ/mMtgPiuXB99VR3zIrdSjzU0IpiijD0hIVm4BmvcQG/no/RNsWFDoyHwN4fJO95Gk9FktLo1mjAeI4s3XOe6nC6sl1AkpSfcDtCnO1hGCXty8erX5aDx6wh965SitdH0eP14ujrdQBt7C8xzPNuBYzdZLWhKhKF0x+va+JhiYlVwFaLFg6uuCqk1CI7nCSh5r/DX8fjT8fF0RO0aOqZZG/McO89R78pNymdgEbmy0x0vvhsNFYlZdIiKK/2rXoxDGfp0crq4eHA8nb5F6NX64eEQTB+zeUcBfeA7tlD5qpf1GSCinyjVc2D+Ko0qmGGQUe3KHW9FREjobwpEW4Gr6QHN2sDznu+Ocba2EKPv8QTdXMyfJ/SJ5S+4KhWiG3T1WqJikH8rAyqHh4sh+kAAR/dj9D3FSl3ux62ykW9smpZldhrg7tQ8BpGRSrvdJv8X8pV2tVrJh8YP8Hir45ToVzpexcPaMMiodDumZbb6kaoimLdsS1XJ6WZx0AjLYR5AzrWpD3EbANdnu1Dp44taxWaj9H3tYmGFFPwOlsL0PXgwt59U3l9TQj3VaemaJIuimNXEJr6lOrJt1FIzRhaPNdVczVQQ+clk5DktScuKMF6oFUgAgA921IxLrt3EF2wUNT2LL5jVbSv0rLrEqEm13EDX8FEZn930CTTwNWxbwwurgIoLukbhxX+qQy6KJ5UlTdz8zrLZRujAL7l49J3jePkoSh9kaKgXiqmMrqZlBR+K7YDxUWpM2awWUkR6Q+AycbCoycF4HXsCkoqRg+Q83VEbWTsYIOpB+gBGTciGplNs72AVUcn0AkAfcpuSJ4VnlVDtu0arJYRex+k7HyMIAhl/pF619QKVi2Yn9OwqRV2IQu8T40PooDfir1ojCVXOjN4dDnT7ZXJWgzpWedDSxOgIhVlboyULcYgK4w/mAndbUyIDLPKoKx07dqJS/J4KXMCOI0bfHK1WoRe7W3vPlp/t7Tzdw944ZvcaclaIA4TNduM3IggVrH9akgIYpVczBgiXnByg0SCEpmVx/hDVhD65CrjbTmRFEhFIV4dLC1lF1xV2fa35/dgzIP2aRuhjIfQLiADXetToxQrzjicpkmZrdpgtHF6ogbSIeOG2VcjUmBCIkqbImh6iQzEy1dD5eIBt6975yCWTVQIJymq2d7LUIWKkAmnZul9W0PHF5KworGDRdWz4SVJaNcfpF9mZtvvd6OtQqg68Xsfc3PoEczYdjbaOhkdHqyxhQ7EZG1RxRV1supVKtSYEBChqpmSJ7LBkdWrdRtUTR1EX8Ph8ux+MF8v+1QgNurDZqOe6JiNQNonMu57a63KnkXNMRkOWPFJKGslzK2XyY9klfriCHbqRcbPkmKgN2mDvDNeiYn4p9TWquVw88FQZO2gyfX0wt777aTohGQfrdSxj27dFjzuR06qwLkGxGmwhxqbHAFlbm2qRLHSZwrvMJ5quN77vCVS2w/SPQGt5tbqcSbUOtNIjP9unZj8nUDkjqp0nc4kWWRQhWTQDasCBCdlykKyoLbiq8vUVQbVLCvNKvELXlRGSip0iDqR7Y8rU6nAuaFQuL+9MsBJ3Is9LtUA2pHAY02f8EXNPpUUsewrPbJfUD42vMUOFPY3ayjJ6nGCaAp0DiKG2QCz7d10V6ZPCH+vkOUAtBkoH2SAzNzqU2bDZyYOsXiKva7GySTzuKeGoFv5rsBHoPNznhZLBBMkRse0CPVozzKnHAREXKk1ZX+FrQC2KZPzeeBy+GEyN9YiFaNNfUYFlvJFaM0QyopBhISG46AG5oB6oSQMEPJaEwHDR/AriYLFd5MPqVx0sia24IpdYfW8Yp+/xERa/0MA8lNXi5aMqFT8Ji0hRZlrJiKCaHquXtKlCyxWmZIISS1apymJ68/Rw2GFSZ6LgT/AUNEI8aHTQe1aBdD0maAWaPX+V8cPBPA1635992vZpTBjQtgXR3oMEfY+fo/BDBOEThTj9ZWrQsRHXfKsFAL3OxncXqaDRpIJMo0QlHk+0bXaZOsipGFbCkujRB7Pa5BgQI/nhVY6wL8ZbMWrZE+lZkcexSe/Db2dnZx8f3rlz5+NZj0lhMvxuYLcxl0LfHh7t+lPCijUnfjJVKEtlT9j26FXBXKNEXwTGZ7FVpWKWuKUC3CmeB+jNRsxvKcuUtwAfVkosZRNN/6aacNVyMQZK30wF6YLbMU2cdo7/eEhwh+IupU9L6fNg/R2n0EfLpZ6/aktCat/B8QrqYM1F/+m4NqM1hr5ntWjklqjGGmDmsfSBKY3WSkEyZWzCIGSUiQ+jBWnfHqvMNYlyBFRDZqLPFanK/vbw0aOAvrt3T8ivZtoGFUNAvbm5OH3LXvBHGYMoTUqG7jR7qvku0LsREK4UZwdWHJt6RlMilqW/Y9sHjjdaK3U0tga6mJp/OZ9kVj9Ixyz09dlN//Hno4cR+u7ePUNoM/WcTRy3rA/j0vc8EjsDHUndZdmTyz74LpAmrEl2qKe067SLJpQTjxP0UkCGKiZ1G84l1tUnTaWO158mVj+I0XdB4TWEvEbv+XciejPS55IKKhoPY/Tt0yuVYVKaJaXQQbuEFRZv+TdSAiHSE+NVYA2zUr3AGORsat+oKVWic4FgthlpJAuj2YfmPwQWh2alNMzgOvJg4np/PEqnLy1vbnspCNteStkjhVJU6wxYCmFAWJIsiechosIUF2jE4OkHDXOS9OWAFZHJiWgm6KPi1Kc0Qojso0Dj8HzGgLmILpYgtNZ8C0v9kezm0uDOELjkWyB6X0Gf68U0a+PVvfPhwtHW6tYR0VwrXOYD+pJdL3CkxIiXYOGSv4yymEY3DZuJp6mBZ04obxWkR26HAmMfEEmKOB8u0NA44zneFX8Iixq/oThVA7uXQt/HVwhBtTeKgpd3UI8zGXkfIxVGet/ROCLjJWrkLts0gvAO0PpBwrE6cHvEo4DSJ8WzCNPgaDGlAeTqbAl0LsubPwjVmfJ+ww5OA9/4ozTpO2GmLEqA4bma7dXVSZjHeO+FpmRaNO2u05CAOAxHi0gLq3XGbqRKHSMxofSTGG3kqU14HCjHql9SZDpfILt+FACfQg/JtQUhLrQYs+9AwDHw+M8kfXfOPFpyRojAHE45ervD8/Xz4dyD4XBvddzzxDAWXtPykmyGf64KrJSW8zxzIC1UjbKd8PgcS1HkKo41qTfUwuZAZSe1vOpXVLc7XnobSGZfiSovdThCOZbylmfe1dRB6P9SpO/Op0CuOk7dyLSdWs0hdb/RQXiPy8KxNyqmpnlaPlI6vvarXUkMIgIaqATLZoKmB91/o88qdiSncr3SlRaEhpUWrdnomLS2LESyiYzntHHMQ+fSqx59YZNMSxJyeMdLvWVL5mzW0IAiwdpfcfo+vvf9A/yrC+zrxvpSbIMa3fTXS/jMDi3FSStOyVDVQr5h+eVOm6XqkVyzSBMAxXTxeKOQ769440l1ruufrBSrBVU1Su0BawSQNggzapENNizvL9BohRbGWJynN+uVfKmAn2ydrlIWaE80U8gVpWxMyC9ExaSkvP0zSt8Hr2QweX36OiSHaONwKU7fwtEqae4mXEzby4e0cmvQKcpBh4eEFyUiGpF9OnXFG7/S6nRMJSjVE1Mf6ovImjkYtCxNYs8CDFc/6XghKxRkVmAWoSLtFfQlGyllk4RBtDSKRXil2e/2mybt04niDN7Ei+DQ+xB9D6nZm5ydnZyc3rt3b/7e/OnUGzheStKHIz+cryU3PTheQiTK2Wy4wUMcKZQypUhU7peWyfhw1wdHdUYr3OAR8fVEj2yqzClhJnUTLVYko+42ch2RhDL5snclSdd1z7zYrS97D9XTSLT9/q+PhMC/Prz/8IGUk8dnJPAj5AFeewOnafQtL6+itL0tm/EeJQNxpLDNKVpmU71GUQCqnjhdoEmJkGjbSWXGWEoAUvOmaIScfD2U5FI3Xo83PvE0Yn+GNm8+HHf03v9x9tb78uHunQh9i0yZx4fp9B3hY0lnpdZQZGWSLZaBlDa7pXiU3LSj41HLAVbytFchlGvRPqaEOkxIDJqcpGS8bszJ94MeO4v/XDnaMM0icybHq8K7kL3N5kokgEPvP9Ksw6dvcf7wE7iQSJs8XDIYpafHOdO/X2z7Nt3KisAyr74mimIiXHUtXxREXW62MxVFFGVsV6u0nJXJFe3ggkKwl6KK8OWkyIuwRlHC55JHZWbDc+FLKGTHiOj7h1JHk/xpFa01a4ey1G9tkl07pXZNDthb85K2EH2Li4dvP0cf6bSl7asrNExmU8xu3s8D8IG+ZZpmcjNUobtCetV4vNUl91tZsawVHAv6DR6jYcqKrumKUGyEzFNDsCyrHPEcpSI5lzAqljGyvmQa9ZpZJmrgpzBqdYB5I9PKK832pbZnBJr84WEafYvEAR9eQN8eVe7UjYmFquu6VRoW0JZDsooVRoVsfarHSgN03yg9MU8G5L51by3dPhYgn8PLrF9+w7PH3u8fU6UP6FtPp+/oBTv3C3sOaXFS+3IZLYHi9WyG/wawSsD7oOISpY8EL8fp9G35/uezMkFrgIlmzyyA6EK8nndrLge1W8YE/PbwIvpICWH3C/R9VvxYfi9dorxRAl9xDZvhvwVY/sZ3LqTvALPz9iA1bD7y6gbxTS44MvdvuTSg+eZlNu9WaZvoVv+JhIKOVffhRfSdbPtxc0L69jzbp8W9Vr5sdxr1dqXtNukmMOlSf2UDPHa8l33LkAevewF9J558HSfoW971jlkJ244zSrLbsyyyHXRy+RJ+g3U3r34z/DehgQk4u4C+Q189XzHx8wpWCwvQIurUu91cQrDcWBomXfC63pcAecMtf6t/EzxHOn1+zQBtH5+z3aUPhutH5wtHsD0yXa8qSjSd1BI7ZmYDddnoW27u6kF2uPx2gesI6CPtjdV1Umvex8S9oa8XXaBWXaayFIrQv6Tth1Y49CpuL1yJEDH++PBL9AGFn3bfBN8u1MjKANFXEuSshgaXVj5D1BXFTm/Z3w7QF9iIcqbQd+hXTPVmqxdjEhU/F82WnM2WtWIVB87l9JYtjrz+fZtzjoHPxscEfadj71irnVErbitK35cKFEYpn7/dAe83ox+wEZO+e1Rxe1W1HdQi3H6oxjVTW+A/GoWQMJ35JYPTs7PT+VPo5nbiqlcPTrjd4dh1wEVh/E4YvHsCKvsKfkkpMVn+8P9wxZwBTtwdjE9efcE3VDwXwoUvU/GY0uM8InTR23EVaDT1OHsZT/ya+UwVylZhXOwZ2g1nlj1cfweUXKfOduZVmlaYPv73cL8WRuj9Du4Zvh65gL3bXWS7nSj57An8bwhfAl5eZnLVvQwMUvxDVpc71kuincvxvx3MwcHBwcHBwcHBwcHBwcHBwcHBwcHBwcHBwcHBwcHBwcHBwcHBwcHBwcHBwcHBwcHBwfFvj/8HTcFkiKMf7ZUAAAAASUVORK5CYII=;" vertex="1" parent="1">
          <mxGeometry x="453.9100000000001" y="490" width="140" height="70" as="geometry" />
        </mxCell>
        <mxCell id="ybhc-z9wy3QsHHDPgn1F-31" value="" style="shape=image;verticalLabelPosition=bottom;labelBackgroundColor=default;verticalAlign=top;aspect=fixed;imageAspect=0;image=data:image/png,iVBORw0KGgoAAAANSUhEUgAAASgAAACqCAMAAAAp1iJMAAABWVBMVEX///+6ydkAAAAqt/+ImKl00P+ctM+9zNy5yNj8/Px10v/5+fm+zd4quf8LUnyPj4/BwcHx8fHo6OjW1tauvMtnZ2ejsL42Njbi4uLa2tpVq//t7e0rKyvS0tIrvP/4+/9+iJNgsP+Kxf/GxsaZpbKsrKy4uLixv896vP+Kiop9fX1RUVHi8P+Pm6ednZ0jJSh0fYdycnLt9v+GkZ1LUVdttv9dXV1ZYGcbGxtGTFI7P0QREhO22f+gz/9LS0ujo6Mils9dpsknq+1ocHm21//F4f/Y6f9VXGMvMjYIITAZIiZUlrZrwOoAPFcFLkMce6kAGCNIfpcJRmo/b4UWX4KYyv8jS1w+dZAbLjgkQE0AN05Sj601XnIcib4LSWYADxYGLEMPZ5EUCAAANVSUqcEAHjIYP1EYeqoOXIcsJiIIQGM4TVhEXGgkMTcACyIJHScAAA8lGQ5ufpCvTYZdAAAbx0lEQVR4nO2d/1/ayNPAYaVNKFi+GBKoUKMEIsGQYBBCYkFNLdiqba31tLW17V3ver27T+/p///DM7ubQFD8cu31FGX6erWokSZvZmZnZ2dnA4GxjGUsrkSmE5d9CyMgiUK13GrVY8nLvpGrKOFEMpPL5zPhQCDf0VWeV3ULVSKXfVtXScKJ6XwsVW8Jgvb4cTaVz4tckAkGgwxn2Er4su/uykikkMp+2d87/On1k9XVzdUne8g0opgTkIqqqDImRSWh7L9e3dzcvEXkzp07m6sHZoNnKKqgiIqXfYdXROIHr/af3LoDfzy5s/n6ywedo1oVtYTx6EdE2V17v7G3ecsnoFU/Pc6KHCYVlcbGR0V4en9i5e3+a59KAapbq4dIMFhAxXaEzGXf41WQ9OM3k5OTE2+2Dlf9qO4Aqj3bUuUoAyp12Td5FSS/vzI5MTE5uba7/3zzzqD9PTlAHTUata1xMBUIFF6tAShABfZ38HpzQKnubD4/Qnq0htKXfZdXQApbFBRWqt/e7a3e8QQiqueHe1+eWXID5S77Lq+AxN66oKj9bbyAmAoj2v/y7NnGu887dy1uDAokXOqDwvb35tf9vYP9je3tra2dnZ1Pd+/etWRrbHoQl6c+TfRBTUzeX9ne2rnrk50aj1pjZx5I1N/7QU1MrmzfHZCtjjMOD0AiCjhzv0q9+TII6pWljQNOLFPW1opPp+4/Pfo0AOodQoXxFAbLVOrZ+75S3d89GtSoL2ickXIlURG2n7qoJid2NwZBIWX6sm/wykg4V0dvwf7wVGZiaxDUzocxJ58k2sKzXeyqJte2X7mIqKt6Vx8bXl8iU4UyQtvYVa1t/OwD9fnd4/Zl39zVkUghZXcd1Wh+AFe19uUzZgSUdra29+uVcWTQk2TJRg4fZBhON492n27guHzn548bj8ux/Ng/9WW6jLoqSY8zUb6B0NHP289MoVqJj9c+ByRcQaZK11uCjNTMtkyt2s6lx5O745I3TSPqglKz1WRgXHEwXBRU49zFTt6KjRXpNEkIyDM8tlEah0ynSsY0eVehpPo4PXe65Owu52qUGLvsm7nKMmVbsmt5xrjG4AxJmz1QUvyyb+YqSyLrgQpyY1CehKen8oVCpdIuFIpeTFnX3OggKBfHERRIMt9OCTbyiVauxDORou2OehBHjVO+kaLSonRMq1kDsbqUmZYqmaJXMsbqN9udh6cUTKXb0VUuGI1GGRD4h5VEp2liWLpXXSc7N5lUUgEadgND8lTHNbUoI0tiEzN0aHUdI7VubPppugogagYbxSRY+fbt2zI7ACvK6RZc4hCXzqjWDa0yKJYRahqya1m3qQSPCScCKotU1wV16yamoZIlMKuvngp5nG7Lx0AxDItRNSUGu6nW1GXf9n8u0yl4+pBnbezt00ARrXJM1BVBqThLuGlz40wZ2c4vHpo+p9vsEFBMUAK33uAYhreEm+Wn0mUY+G/33JLcBzWEE1UqGzUh+uS1bP6yb/4/lOk6Mr/eHgZqmEIRpWINDVlSlFFt7ebEUxEFmbpfiTzTk0/jhEWyUFcCYMi8MRPkgo0at/2gqEqdiQmT6iKLj7I6Em7I2JcRUO2XPicyzrEgZ2PCsbmFLI6RHdS6EWNfWEHZkE+hzgXk0ykNNeSo3ESpm7AiE9eQc/uYQl1QGPDoOg4SUOmyn+I/kBSyfvk2hQJfpiMTYnQV2dffoceRLX6jQmFSNdTkGK6BstfdTUWqAwr1DzkFGdVERpQ3uki57Cf5wTKVReK3c4Lh0YGRLxTS7eu+SbYNsVCf0z9yUFR4MN1QKFRD5Ws98oVbqMHK344J7/lENQAlmtdbpdIIGeCSsXwTJvBSIsoaRKXq11mliogu1Z0fh58KCqJOHavUNQsRItPphO+TL6HmP3fgg8JZqAGgQs1rFHUmMu1qK9tKtb31k0QKOd/JCTupJgblIPNa2F5kOl5JNQ9/ev38xd5RVikm8UpvuoXE6Pkszgaloy4GZdjoGuTwEvlS+a+916ubd+7cubW5eog+tGJTAEqw1e8FFRQpqFAXjXrRVCIXqx8cPt/E/Qm8jg7P976YpeSUqUnM+SjOFhVpeNgLNVBqtOsRMlVr7zWmNLD7Hm++L+bsLv+9oBgJaTjkDOmoNdI1+ZEKOhjoe4E1avPJi923GJT13aCCHigIqEZ5SSZdsja2v7xY7dkdxvR8b/fN2m8f4v8GqJ5GGeYoR1KZsuNs3N35eOR2U8HKdPjr+7X7k/cB1NS/YHo9H2VoIzyLCVdrQfF/dz8Bqv0Xq3jEe733lu7gxKAy/4Iz98KDkJEdYVA5TY2KeOPvp0+gVc9XX+x9Wpm8P0l3Tn/IJ1u28d2gGsgKjbxGtTUuahy5TRx2NvbfrPU2md9/Y+YTZSR+LyiYwjQpqBFOIESUphxVH3vdLnZ27/v34v+eDyio8c3TYSp4UuwQUKJte6H54qP19fWFS330fyaJak1m+qA+796f8IPKBQrI4s6HcSYo0R30fOHB8vzsvXuzSw9mLvfp/4EQUNLjzydBTU6ubGWnAhlkS98HSm66LgpmxS1aWPbg3uzcw+WXs7Nzl/z4F5eIYskM391yQf3sgZqcXHv/7ANuxNpCznfZHsMj1/JCHXcKsz67tI5fLMzfW7/k57+whGOPeYbtPNsZ0KjJ+2tPN1CdOBRse9/jzlnHs7zepHh+1uWzfm8OG9+jhw+Xsb+aWV4PrD9cXgzgv/E31h/OLCwvP6IXP1peXqZebWH54bL3DvDqv7HfPF7J5TpHr/oaBdr0BmOiE9i08F3jHnbldMwDX07TLAuz896zzcCL8BzxV8vg4WfnH+CXC+Rv4DM3u7wEL7GBzrz0rgosz84ugdXOYJXE35x/9F+ASrQ0nonKunn0mYIiPQ+RUOjl2GJ4BfPbQTWQqXsuiibu1u+99N/Bw3uzD9fBX60HFpeW4OX87Dz5+yUGNTu//nB2FvA8mF0iVz0KLCzNP1pceHlvOTAzf29+eX3u3tLiyedKTrmSvshWk8RU5tycYl4wRS7Khhom2B+Y3tqbV0go+tIh06BS365REkIdyilkuZa3PABqYWmJWBnoDYBax98AGhjHDIB6CXrzaGl+sX/VzKPZOTeuWCdqBQyXTz5Wydt7Ypdj5+d24kg7v34530VdR+VxNf32513Qpg+dwdz2UC/FMBfRMoarIdP1UCIyaRQ1qFGPZh/gf2bmlxYXgQhBBH8vzhNQ2KrA6hb8V83PLr18uEgIEaNbXHp50k3FfPt0zu9YFUfCBQq9w4W6iVDza0jv4neFIerrQAAdSZ0IOhmZl3j2/NQn4yDbHfJCTZTy0Mx7b72wAGpB9CE8t7SwuEQcjx8UMaoHswvuVTMvQbEW5rDjml8IYLdFZP6k7cVQOYclXsmi85vFXQwUoMgU6rg4OuQ0vpKHKg28c840Vb/+MLJaSSG72du5f5p6MZLtxVB4AdTNsSzOLrm2gxVkffYhAUU0ajiolxgUuWpmDv9qeGEde68ZsLlHRBZOGlfM+1gCYbDC85Z/LgoKS6KkeV43FGoM/lpxMNnCFxKBKuieQhWNkSVJ4oaoFyN1e4YXqqGq93YPZucW3RcvXS5YzWZOgrqH9WgBGPqvWie/PDe7sOzSezRkLtQHFQiXzy2l6YO6QK46nLPsHqhBq4YPpdNb3WM4PCLCxZWAomM8aqVk25YuH9cqhmsi0zO8r0jrZTdhVJ+H6GcBBrEFUBLsnNfn7z0IDNEo8O7gkx64Vz2av/cQXBzEA+H1paUZcPvgqxYoztNBBXI2KuB/I3iPCqrHXRiZko3cYNEFlUe0YVqiIMCFVXrDZZQrIKT5F5CSVTfiCTnHMpERpR+fy2LSY58WIKyXkoEKDC5K51iGD9fZ0ZXPEyswEJITwYMc4CGuBhgNATVHXBD5LvmNuXAg/IC8wkHrOnVSc0NCTj+o6RapOUqk4Hmz4I5pAVLcRGZWQyShQUHlsog0a4DrURZ+ZBO8KVSFXxvcgTFddw2lcXwBbrqOvLwU72sPqYjBCsQp6ZQmJgodeZBTE9xYT0UH1xUWl+eXluYfUANcfACvl2cwnJckipzrg1qAn5ERDq6ap1dBAA+/PEcGPPDr7jfPAhWpojpOUaJsEbdtQuQzS2dRdRpmJiibcUFNmfTDhMGrnsEX0qxQipDNDNpk0QVVOzGgpluaRNwQo/qGxJgjUtIR/P5+j4/9k+1FUNjwvqWC2nXm3yJ+UAEFlcGubLf3boHcTAXVcSiaKOO+oABqOiO4Pr+IytPeiwipzDzp6PMGzbClToazUwKNphh/R4OSI/a/aPtnz6qfk9GlTuKfyr8KSkFVqhXApo1dD72lXDuOQVl5wXMOKS+9GBbsKWJ6Jz18TqKGMqzDWtHsYH/NGP1njtQdn+cp1jzbY1gRLLznn2DEo41awslM7mJzCipgehe+9pgMmF4Kg6oj96lgaFICEc2/vh9HNngr+mARAWUFKjaOaFLD1reLPI9DHmvYOmW4aDoYlOT0L9ck35v0nBTDNWyI9nucHIQ1dDqu1Mu1pmVZ9ULyYivGD4ZEkhcUPyhQoSrOFxV7P6sHEjbyOYM4DHItN4hImL6gvjgc1LTIsqBTzVNa9pUQ9kJcx/so0l1R6ody4apOTS+K96BZuo9TPRmYruiiynMgktjQfi/96K2hA+GB6bc1/BwpDMq3GAugYqB3ZNtAIgt6FHElPBRUpAIjvCw55VOMI1klcadUKyZglJ4uWjrL1fq306ULWyx2TzWjx+mrDUNrXle9+SLDsLzezRZ+bAmQH5SCTOJr3OEaBsFSIOItnaVLMA3BzjyQo6FCuDXoUIeAyuvYtPjuqUslaaFDSHQ6SkmpNfHG4Yb3pok68eUMq4N76vQ5iV0hH4jrA9NqhpXAbf3QVhs+UHEaRrZRi/6PGawygao7xsG3vTgqRo1PoeMhDsFziWGgkimsL4xTP/2/L2ax8cGcRRUNiYTishVLgopOx5sO8VCyg/zuCQY8YSoQp3uxfVNCRtZR6keaX8ybMaVxnwYc7UDgRJ+YjvdFpOHvJlpueADfSgokFs17c0OIuNJDQIXbOn4Ezj6j2iuh0EJF/MRei7ZGrapUO02R/CDqwDT4q49TMxsPpHX8MybKwZTQY4X3XCk/cDODP81iUxMBzWoV83h2gr1TWEGoki8KRH3cKUycGl8boXIxX6wjN+A8BipfJr64MSRq6EtaOF6AxwR5yTAkalqsDlFB3+xCISubA7pcNBrkpM7j/b3DP0WvCR7rILMWi/8gV1XypaO84a2o0a+pJiSq5KsWJZTF/4A/F/CAX/EDrh8DFVFE4qG0swtOlNqJNEFfvaKqZjZ8mIyaAO9WbOCGJLU/XjzBJ1Uc1tReu8DHLw7O0t/vkXiJSqzgM/BwPFaq9P/DdKUUo19lShXilpIxhTx+pBgrxVwQBWWQSLyJFzoZvXX2DeSap1e3MJxm+twTxBkC6NNU/a8/CCRSV3Tn1ut9ncZbjGp/+e3zqC2yJ6o68c3aOW2PpwdmdIPCOvYAp1orH0jW//zpCT5Frl+otvqXG3CxTfT07aiByneJ75DQOfnlhHJqdUtUxZxUCYuK/ThuYlNA+082B4oeb91Z3TfoLxgf3m6NGKhwrEk+Zf28KsvI6aDYZi3Ec7LMsrIsc1KtPoWH0v9tbf/64nVfpXCh2gEt42M468vHEQOVbJFVTrZWPWcUSqROA8WoHcmXBnVSePAHULj79Mb+4WvQK1xCu/r84O37Dd21VTRqpedxMv9guO55afh0y/VR7PF96qyj9qFxjRJRTQBFVus/b2/gwuPV54d779+sTbynJTKMgUbsfKZwidw5BAfnlcwXiC/DsbmqSry/IogTe9wY3om5s4AC2nE75O+8+nXv111cqDY5ufKYlMgwkm2PVkuERLlGJmqSeQ6oZMuBOIpTDYPDGuUHxfP9l05vyptDviOZPtIzKyYm116JFKhpjlbXsoyAnx9r1Nk7fxOKBm5Y0g3u5Epebz8fw+vxXnSf8YPa9s6Um9iiM2hOGzGNyttk4QmGodNSLEQg6jeCsuicXVEtxXwPPxTUxMTbDsEqWyPmzIuIrvqynbM+4aSCaizrNE6s4HnunMUdFKWKPyuQdkHtYDfl0ygKirVGrPy1gNw9VKo/Jz8o4XwLNTh5gNNgSQKr8pLeEJRYO5fwbC9hffRU6tPddx6ote3GaIKqIHfQl7un3XmkLaAaFxV9lS0yLw/wYkSra2uaiVA2VXBTKOG2+T+v8NEDNXl/5RndLimPGqiYBwoXyA3rXRuJ15Gty1FJ623fk1XPV7E00GREzVHlIMPyqmOhrDLlluwpv//9aqfno2DYW3vz1jao29dGzEf1QAVZEdmx46nHRE7RSHc/2ekVU3NizEtNsSIJwiS4grYqZYKcYSGBpi4CkVzVPHq3Q0FNTqw8ffUFaTz9WGx7tMKDSn9DLG7QI8RyiYirV5HEVLuOkOZwUZxP193LeCXueMxYolpsB/8M5nkk7RtlVQuVvUxOptJCGz/ffbey9tvu3/8XKyHqyxmVJspGR4qo0ffQUsdG2bJSKebz+XhbqWcBU0PCj8+otlv4KjfyFcfrQMLh+gwILTAuDgfs1BI53c72ahyTxbr57OjTq8etSiZS9QoZ9FFrr5HL+nw0RJRO15dyNmsiT0wqGBW9JxRjaeEXr1eLocBEkZHoQrEayxdEnmCNSpbti/SnqqZQykWw/jYoYbk2ajv8E6mBGmmGxcuUtWazWXNElZe9MDxqIJLeC3K1XLvrdpNi+GIb8DE8WSgG/5yaysToUgOu/PENDZEkcVp5W5PckcM0R2vQIxUeg+E27r1NxTdZAdOjhRhqPdFquO1/GDFddIg1kgQE32hqsXTb7avMW/ZxFPGs96EwDiqPWjPhRL13RtBZYthuZj2V8fpyBtlSJIfHQoZ3JDBb0MCGJsSqHZpI4U1hYFKUKNjIYF2F0lB75Latx21UO21q4ukYp5uIFnM61SJyQTFcLDBtGUSZHF3VdVYOiR3TdAc2cGs+N4XDMc0zcrbxD0pMr4yEizayztoVy3CihrIm7RfhpEqINlKUSRlQiqyLYtfGs0Fc5xHSmzaNJOQaLRIJT2fyFQH5FFe0zZE8wBFswtZpc/vjjMBh8bqFzNhUCpE0g9OquqDYKK73LHqjIXFoPF2r6tIElYqq7UqspJTx8mONhBnkStVEymie9JGGuNLW+eCxmlW8yIvPCMCBdkRBDQxKzAp2iPryaANARSzTp40UlENiLhZPH/Gqq9ZtNgy2NzLgLPCQur7RkOkCfqKGwdHBjox5MsQJ+EmzbbLmHEMWfkzJRPZXGkYRUIE2OK/oICjRbNIvHWRIEs9zbF9bmSC4u5E+BgyfBwuwIHwyDFFsNGnI2VK8JYAC6mJvxAG7r6SVm3z7T+xowimk9VZGXVBalgZTBvi1gb0NDKPC75dGKyb3SySZSadzsZb/YBxkliv5fiVhnsZbcgch4qvl27cbJLjOtGA4c/2Pp1EajRBg3uOvV2CivANv+4MLyX6cpNtlegpOqZjLV0qKUlWUUqWYHgx0coicoMeICOGasiCYX4jWqifBw3UNPBiwtGJWtzWqUZLm9G0OJssAORsbVfeE03JmzXEa+BScVhs+7XBkWCyYsW0Sf0tAhXX7mru5t2TMxqWbEsRRtLQYWTRFwGuOZ3IwUQZrNr1U1ehJMoUsfI4JtiqxBp948RTD8EDx4GTgBQHV8WLvKSWLVbLZcHT9q55154UACl4w5DQi7PNSldHKrPgFzMbpL9HJKjxPanhCbQoRUMRJ4RUuDCpke5s+Ipl2XXOLsGwEU193sVBk8eBpkRRxblSNLkBWoRzWPyrJRheiy2FPFPcmz+Ck8Jox7mUqO77EdzhdrCiplgVm6G5kgMiyU2+16tVSOz89qiZHJNzLD/VR8Q0blU/aHwSc1PEEVSCBTYtlWYazBrMlkUSyYvcP4tWzMJgmE6M6yvUlI3gpFl/VLgtKhVLHyxTjWTqFgRAAnL7poZA0u+3nkIiZqFeZxzargeshMXcXOsPxEtfPIHCOhuyU/+DFCHDynp9MTLytxngrVd1zPpFkBSKxTv9EQm20ClZOlUTZVSjJSsViYq92h2El8NioHIuTeDOSLlaJg3b1pIayZm9JguFryK5XirlcvF0VwH31C/BZ/bySq1GRjOZWsnSxT0rnJa5XbSFLHTyIZVvlclmAod/u9Ka+bANVYWrY0xvZwP4b4Q03dlPvF7YwUnOUp3R+iSNayeLVA0/nuH6hkyzpNc075hOmyz0ArIOqYQV1+qMlZzh461RNVznW5+uGbmkbSSlS/xztF04v8tRTkZo63OIA5seGKnH+ECKooxTO9jX6ugPTE5mT2YGCIFkfvWTvaeKBMvpVgkkV785nvdUDhjTpHqyIwqYHVxZMneLDpzVKhhQcSPwxwWvjoAJ49Ygufsodq1fykyypbPDM801kt9PKlADxEugSL9b++OnJoUWX9FxOvPNjt1D9t5LOuvUEfLd/ZmcyJvbPZBxCioE4ytsd0ZE4o/HHiyebt25tvv6r60hU9xhWbYxskmCYRKq26s5eG2bMs5RIpdM7hkk+CQqfzeFemohZhNIdWh79et/uqHI0KqtO9ZoEUJ7ENW+hCmZtfVKF5tdTjQ+vDLgz4XTqxeqmv33u6vN9s2YYeik+ulmC4QITOLdGhZEbvnqleKtpDFcpHIl7a7yFj4erg32rwQAPjlB1tKpYLySZlmm4CCTkC3vSKa1B7W8QEytZ3qY3mAD9trKLO6Ef6129pwmx6xJp9iWefexuZjUGNh4nClm7If5y27+EjLOUGhJ60+XSb/fX3u+RDRwD3dBXD78IleumVeFi1nZ4CC9561gFXKak2VYjxOPIE0sQ4gDL65FDpPIeV9G9JZ3jB1uir77YF2KjVVB3ruCKX62jO9aJRaRwXrGR3W3ohsTzvEoW+bL+rgXxXVyXufb01cGgVoHfWj08+vvcZmCjJsl2XbPN1pDFtnAu1sLzXds0bbrIN9D5Jr9znzY4Jahu+Ua/FwfbW5/RdYqkqExPxfPp4Z9/Mh6rC1nTNIWWUjh2TeZgstcLdhv7KtdH/bT/8fPdu5+Prh+osyWcmE6n00PyuYm619eboKIG6GICUPZ1M71vF+V9rwP65MTa7pfD1c0nBxtuEf6WeW2SB98tSeHtSh/V/bXdjYNtr5v13Ve/X/btXSHJtd696ZGCF083fPuphMu+u6skCeXD7spkT6lWfKA2ypd9c1dKwu0P228mXFR+UDtHp27WuqGSSaFd11P5QG0dWSN8Ys6PkUTl9y+/keNkeqB2PprV0av6/fEylUJbWKlcUDsfUXm0tpj9ZxIpCBv4jCIC6ucjoXDTgvKLS7qKPq9gUKBOytjqzpBIXPj7/ZvtV0ep3DgiP1vSJfQM/T62ugtIXimMrW4sY7mJ8v8wLwWuVFcv5gAAAABJRU5ErkJggg==;imageBorder=#3399FF;strokeWidth=2;" vertex="1" parent="1">
          <mxGeometry x="382" y="70.01" width="174.1" height="99.99" as="geometry" />
        </mxCell>
        <mxCell id="ybhc-z9wy3QsHHDPgn1F-53" style="edgeStyle=orthogonalEdgeStyle;rounded=0;orthogonalLoop=1;jettySize=auto;html=1;entryX=1;entryY=0.5;entryDx=0;entryDy=0;exitX=0.5;exitY=1;exitDx=0;exitDy=0;strokeWidth=2;" edge="1" parent="1" source="ybhc-z9wy3QsHHDPgn1F-32" target="ybhc-z9wy3QsHHDPgn1F-36">
          <mxGeometry relative="1" as="geometry" />
        </mxCell>
        <mxCell id="ybhc-z9wy3QsHHDPgn1F-55" style="edgeStyle=orthogonalEdgeStyle;rounded=0;orthogonalLoop=1;jettySize=auto;html=1;entryX=0.5;entryY=1;entryDx=0;entryDy=0;strokeWidth=2;" edge="1" parent="1" source="ybhc-z9wy3QsHHDPgn1F-32" target="ybhc-z9wy3QsHHDPgn1F-30">
          <mxGeometry relative="1" as="geometry" />
        </mxCell>
        <mxCell id="ybhc-z9wy3QsHHDPgn1F-32" value="" style="shape=image;verticalLabelPosition=bottom;labelBackgroundColor=default;verticalAlign=top;aspect=fixed;imageAspect=0;image=data:image/png,iVBORw0KGgoAAAANSUhEUgAAAOEAAADhCAMAAAAJbSJIAAABxVBMVEX///8AAAD/AAD/zADm5+gAldKazTPesQAAT3oATXkAk9EAltPo6eoAj9BtkiUAQ3L/0gAASHbMAAAAmtSkv8/z9PX39/f/x8f1AAD3////0wBSq9r9KyvAAAAPAAB5AAAAAAioAACeAADN6fbZ2dmzAACFAADiAAC5vL7pAAAuAACwAADaAADxAAB8g4cAAA+uiwBHd5cACw5pAAB/AADJzM6RAABOAAAXAABvAADGAADsxAKy2Ow4Ojupqam9v8GMkZNAAAAnAAA3AAAjJiYeAABYAABUVVUbGxrHnwAAABfWqwCZ0ex1dnceHx4wMTJkZmZJSUlZWViXnKBIAAA+PT0QGh4XZosANFAQgbQyQhFYax24lAI2KwDquwB5u96Yq7kAOW1jfpP/t7f/YWH86elpcXdPT00AERk7REoTQVkJIC8Kd6YKLEENQ2UUKDIaVXEjEwoAJT6p4jhFirCTwzEIY4+GristPRBdfSBSYhYdGgFsjyZCUhMvPxEdFwAfKQ1fTAA4JQB4ZABCOAOTeAINFgpnVwOJbwNMPgMmIwBBNQ7umpr5PT3/bW33g4RvlK07bpH7z899lKR/jpv4kZH5YGCTsJDrAAAcEUlEQVR4nO1diV8TWbbOxUKyFM1a1SxDWFJIiRIgUGySRYwEGgIJEZCWTbvFRtFx+r3Gdmynh0FEtBfUN/P3vnPurS0bwZCUOL98/WtJJUXqfnX2c+8tbLYSSiihhBJKKKGEEkoooYQSSiihhBJK+K+DKH7uERQHXDAQim5PEYapcCQakhXhc4+qQOCVUESjloL5LVn63MM7K7hAbD4zOxW+uFf6cmUpyLE2jUnbnD++FUoE5KAcCCS8C4thn84yHuI+91DzAu/VdXM7FJT4lI9FTgnEdJKR4GcZ41kgaaP3e5UTTuMCUVWW4cQX5WQ1fvOh3A5TDMQYybnAF8OR9zInsiBzpxszl2DuKH6udFUQOCGzfAJhOtyYImQ5IdO3BfzslzL6HBEvZqmAhUBEtZ757VgooEimq3MP2FAlkU91LidDXqK/GDC9xSvBRGh7XvVY4RMtuqBQltKi2tSCNxCUOMEWUPkJPPfJYY79boSzcZwih7b86XlC1BpBSkBwKb4QjcUW4otJ8Tzsj1PBBoAfn8dguCj9lkjYfAvD8/GFGF4ML+UtPJ0MAD8ZkXgwMoHneUnB2/3APKYtSeDyIggIhg29mPNHvAlF0r9KCIBpWJEbiDAIgQsqCjLkgCQviAIwlQPerQgk1yhA7tNM0ARhgfgj0UQgqKTmCJxkSySbabHAT5FFGxcCnYkEeJAWA2UqiCK6Pe7TTTAHgltgg5JNISRR4G/OBGGOzIOfVBKLYCNUYGnIW4KZIcOVQnjTgtbI0AaRC9QT3B0mngtSOsXCSpADu19g5geZhCU5ATg8GQxQCgYDcHPnFKGoElTChmpCqLWk0gJdiaK3VORgEPNPWSgiQRnvofpa8pFwQb88G/h5pqZcMBhUMIIFhWIS9OsBwiJXatPUlAlRwSzbbIsFvZLiI4vGLQsTn0WlMjjtGDLkZKjYg8B3kdMpFjStEiA/Mho5cNkHhfz2EyD6iU9ShShTRY2KRXGjD0jY1KkCbZEL+vUnIIHxCRhKlOEWVgR84YxQ5CUJk3i8TNikliDQAgfa7OChWEVKPBhiMIStCtUSz6ijoiR7I/65KZ/PNzU3H8EcNa5/KFuVd1NECFGQEwpxDsahxsSz6agUepBWLoGyaB9DYLKwuQqVnJeqaTC4AKNICGfX0SBr7Yx0Dwx1dtbW1o4NjXazWpOlMRw4NAvLfJGQKfSffBBshTwQzuxHZVo1TQ62dDWUGbhc23oT3t5GB5OwJuvWEWXOhcecSguH+YtQwsL5+mjL1bJ0dA6gNUo2OMUyP4OA2LQNEUJAEXpVHc1XhCJ+yfVLLZcz8ENcnYRyGBx2rKAMco5qEUXH81B1z6vhPl83w4Pbcg+2Z+NH5TiBOmxZMGSgIVHASBE4mxVKoOeTHbUn8AM0gBgtaWCYwPmIn4d/SFw4UzYDhQppvWJm09NV29LSUlvbY/Y5ZZ2E/GDxTBw4dyVxZhEG4R5dMgTYcHVoeMLNAuHI9dZ2k2etvUl8lvVL2djA9MG/LfJncaRSG+m+pHvQno5htYE4N8c6zu5Rw//UTpjTcAsgsv5h4ixKKoANDuoS7BihvciAImG2pARimC25Jzs1jrXg1SydTA1RhqoI8/MC4EVbNQnWYgYTS9ZDBfOc7sFOg6JV5ROFRIxYmJ+Swj1q1UbfgT379G+hXfCBDlWMVywr8hmwy67w+fsZuEWT7cyVNLSCRWf2Iwpc5vqQKulBa2PGNtrFGUQYIe6hHkYQMrNYNhMTYgbFHreVmQ1PWB2cL0Oo91pbdNGcVPqBpt5qv6qFRetCBlRQvrMo6Q/khqqjl0xVYEaAwY52sHOHTTVxsQF31q81oPJgCCIcHNNcZC7V2yJuNfGptajtbWNTUFoDKh8ljZDrqli6yWKSDfJSIBBIie0QNFRTHLbMEnmj/5QPQyjZB5kVtiebVpCuzJhLYQgZVOuQZokWuVPZ1AnOI9MA0xpiInSbvQy3yPK2tPQsRm6yAqTnhlUx0Qs1MJe3oxEjEAs1ERoqIKvtJ00RjU8geI6yX2glkbOO/XSIscZ3nikbKOkoFUnDMInq72oE9beiRtUbIxNDNLVpsWgCSvCfKWUDLh3Uc1w1WaGkL+aLqFoRMdRVAbWmvrfHIm/KLRmlYR4MQ2SiQ8tH9TdN6zqY7EA1dY0U5skAjZ8N13NEzwJBMiWleTBcgCyFMpwkW9p7QXMjGL2JjGs3dXlFyXBHD0sQohm/s8BQcrjSHMu5F8kArSp6ug3PGDMzJPMPmEh1ISbIxCVqiENk2wpDxJwtC0NRCkUj8fiCN5BVuPy86mi6RnQzFDK09BHarQqSkUtjLCL6rWAYUrve6cEiEDdGF8vSdgArZqVvLdwn9T0lC0N9jpuQSy3MmS5ZwRDDYaasNHXNWzTjYMBragynNEHLmQnqbVJBY3jVmu63N3PeDaLdjnlDoVB0QfWM4UxiRIZdKQwTORjarGeodUpNDL0LAV4TmiAl6GzZVAaKZoZavnBqGdZaxjCSJkMhhYyoRJBiuqKiHdam2KGUww45g2HYIjv0p8swHdhmSS93uDAZoHbYdTOnL9XYKOQma622WxMtsnmajGemFwMQD1tOjoca9NsTICMsMe0gcSumSr24buB0Fb6cYfJ2gXS3nJjT6DDlNLdYTjNoTU6TyBoP0yGnp8pecpNlbUOmvHQ7A8EF7UPISydpGgR5qSWTwbmytiQE0iq6oFYAJ9UW6QTbzLUFm8K5bFG77ZMY2kKpYgbHyFwNqGmG+jDNkbIiv0ttfFtSH8IQ9UWJp4hOqQyhxr/VopVPRgWdaooGQYigA6zbNmpRjc/jss/8qydIftys1dZw0+w4pAWzDZrC6xZxD1ERXu62qE8DQtC7GPkwRDWt1YSY1GtbmKP0pmJm9wRGMdCu9dosWpMRhbSN+8SpNVEK4kI4OsIFckOd3J5IqYZ4JSinbKEVCblxSbNbixpRJxWImSGFjC5FTEapjLJJs6ummJAFkAxc0hvkVk1cSCZXcxqGKaVDXAjrQhzKtSYvStQeDba8rRKhTZzCGbFTG2JafRsL6gHjFHNPk+1sHu6KddMWSTMzp2AYSgt1tjgZYf027PJmKZUBYgwn1xjBrhtWzh9ieA6euumdFszDqOfX1QnEhlFIc7PMAS8RMqzO4UAstHIOGPwb3ZVwSiGqWyh1JeWoaY5qKzHaScauDt1uO6DeBwwsls7j48W506+mEaSQOu3SFpN57Rsu9aijv3qdkKVYUpAQ2FoMfcHNWG6nW1ig8wh80tyMQPdQRnRRCVP6VD5o6hVcDOWPJhSOF3hOSUQxurh1KZddvUnmLd4LDXoXFj5tYaJCkrw9mOLIkL6yq6F9JMVY3a3GktMud8aWT1GB3uMUy9qS2G8nxQUB9WCwq8yg0TEwoq5rI8ODLabFe2OWEZRCD+JRmY4a55/8uS1R8ZtGtm2aVhFDCzYFwupoS5kJDV1dtYikpYllXVn6kgUHH2X31097fGhW2oKTE34panhABfcxqK+hjoDfksDahju7ynJhkmwXk5gG3nD5OGhcKTwl5bbEByRCgx0Xwu3ZcXp3cPUte4GzAK05ltDS7NWKbGabkB9kTqBRCnVGIUZj+ARLFOPoJGNGw397C+tArdeLKeuN7By7WII+asVuBFnfmONVQ1PU0NOThChqncJoQA6pejBl5DAcjXut7cnLgplVtl+/0a4JMZDWKyg0okbpssgKUWHJyN1OvLocW/RHvNRXCHLMD6+TfJOMquoeHrxy1USy4XLLwA1UYWalt8jc4uJCVCkmy21jb5VmRdhZmWOmmCOxMT8kI/2BGWKQTnK4J4Zbhzqv1Na2dA61Dt9k0qZCrB3QVHyxiIv2t41qXNG60Vg0qMX+GbsLUig5dVWRoBGzIympLVofw7S5Cp0Ha8zi5jx1tfeZu3yCHIqpNH3bUTrVKtvmSfeVIZbPhkLsWTZFW9MeIEmRjR0gVy3wF8JERFHExzSIasEVQkO4Rb0UlZwQwHS1WOkNB1T0g4CmLpjaaBtlC+gFQDtv38Y60sY27emtfB49r69I/iZiLtDQAtu84Np4rIrCdA9i4QwEd1CvLFMh0g6I12QCSLFItT5ey7hSkD1AZmqO/UyIZ3nkRzJ4lNttl5P6FZxmjZuf8oN3uljboLxJN08MGQ9bQUPh8n9sSzLY84ZWXK4V7buTF5xix71Iey8wMTXPbQnBaGxRX17il7FcPDNFgaX3D13l5a5dVkvNpzzLRSZF23Cpu1ADIj9niDGvxyclQ2adY/cKMCwvX6FBIyql3LcHpGjrhgIZ7h4M6aHGMcQLZzJGRdOIh5Sg04Obo0BJUxjSTt8ZLnMSsBJI2RwBhv/QbiQhIMd8b6/Oj/RSEVbOMrVJf0Zm8dwpo+hPun8QN9zl6BweMecaVfKiKMiMH/2WXSTorBOYuJQ0hhhN8qaQC0G0uwVT4w/T75Ud+OfxkyXqGXwLgU91OKI2c/ODfQe+469OKsJxG7MLKY0hXWd+ViZZgVt3wb95g6rB4fPNdl1giu7H9ifqU9aWYtmXJqZDCWnLFOwrrr/SSIFWWIe3KZBRhmidxdwZHFQHNLUdibCH5z4uX+kF4Tns9oe3NVuKh4Kn0FYpENXCqvspiO4JvHhKCaIVMg1JZyjOF7sBrkSNR6wSFp9RT6fsAMfuI60lSPy4ZTKzNEVOkkNxPdS4H+44XS4XZmrkCbVCF7sS9TRpSh8nRV9XIyje2OLi/Lx/MRadQu/ueoqyRIY7zp2nj3WSxDcfX4iGEnJQUSRJUpSgHEh4Y5FFIyNyk4fLkMK4yl07zJBRS50b9DpoA6H0R/FGis+QssTn7gm0v/HI6XKiBd1GKcJonSvLj38gp4C7bUmlBznMivorKESIhQjRj5M2ae3KiLXPIJBgoMtqGvkQKaK+Acud5dtpj5FMwsjjhzvIjtpducuJZ/8NaVe6nHXqly9gNzjNEEFLt1LfKwpkEkkEAlhJLYGOrVB7QkWlzpDSdO3sLD98/OOjEX1Wwu0eefTjjw+Xl3fYjShX4VpBgi//5w7eJ5eqpOrsQZohzufa01comBbArDidzv/VKNpXjIEjCfgM/18BOBmSyDGCGOtf/nTx4rfwc9c5rl6Cwwn1tMcoTlk0mYhrlQYmJwcuoQU2b3gaAxkoluviNKM8Ba6Vv6oELz5Dd7Pi0S4CVr4UTFFT9LCWrMpIkAnW3Gwlao5BF13cTqeYC8yIf0aCFy9+BS97dQLIJpaipmgXlswmxsmQ2nt3azO0dBp0igaNdEFl5edaRrn9fFHFc/wSPfnFtkUg2ZsSi1ypSIg23zBINMOg6++mHBj5naek6HJiLCXf/qQxvPh3PNbWNOI6QZI0A54gFq07UciE9lCHyzf1h49JmMf5IPY77Cvlp+AI7hZNkNy5aMJz3PUUUTUVddK8WAPXK1mz5Vkm1/WJhna8KrvPHC2DHj1BMea2RlWA5KuLSfjqBSH6Ao1YEkVp3io/A8oyYMyk4MyC9phD9tByFGMuawQBsqTg2cUU/ETFSOJogSJtmqotRWrpFj28LURaTVNhNKVkf+hAUJfp3UZV3SnPRhLzgW/Ymc9TCSLuqH9cYSvAngZG/N7QFn1hVcbmTWLYRbvvvnjMu6Un1b7bT5DjSnoAxJgIuat63j8zEdTlmAbLUlKUYUODboqXRzMMxv3oscNh391xmiWJSatz94kx/F8yM7x4sZdsLaYUamTeuqVRCdI9eevGjcmhdpXjlVvaKOjzuSLqwaPHDx2OXZZjs4RmZ/cx6+qQMCr0yzRmz57f+ce3AOyyS0l/6mQ7YOGDeMDmB4eGhlrBybSqkqztmLxBJlo7qePxSlGTLJdu//jj0+Xlpw9vu/XicT5AY8tPqfx+Jm9fvrxz5+8/a6ueBSkoIyz+oy38ErneUtsyNjbWcZ2MJU/BX0UCIZsYMK9OT0Y4KrH9TmtpHublVxTPf7Vmh0x2QMo4OdbSOQYkW0nKqphJRpH+PZ3FdHYR+uc9uHAGK7zz4jkj+Muv+s71zwbQ01GgiBxHu5MZ1lImLG6BjoW29HZvzBtQWPpDH7yYKsJn7l8Ywa9+zrS3z2okcLsOMOwcG0sVIpt8j2t1D6/5HaOwY0uHUyPFS1VFv/qnpc8szQrwJUNAsaWz1n0lmSHTU1wFpfBS0Lz7DvwLJyna0ui258mOZuLvjOC3Vj5R6CRAQtUxhk8CJJ1J/Maukz2N0lRqSDO9M33wL/KLmeMas8KXlj8NMhv4RXKzs6VlrJP0mPhdufV6v6K6L3NKYsKriqama31/890xON75mbpRi5/JehKkMLnV2TI2OanTa2gZJvsVTRcuNM28O5ngwYXqC3AacDSKp2fkOSVo2daK3FB8ZHhs1BDhlW6yf60Jh36humn1bVY59u6vN11gaKpebSN31PriK/LL897zRJDOS490qyuWG9q7TSNHjjP7LzLxWzswnYXn9b1re8k4Pie958YIbTiFgUnjICv2ezomXu9fq66+YB579bXVw6NfDVH2tq0dHcyoUjafN61xfAaBwreYsPTRwdmBPRN1g09Dx4jvTZJkNCVsql6fWT14s3+4v/+mb7XiWnUqPZXj6jvyLXL8CdIZy587mxUQ166oIb734FoGfjpNFZnIGXJ8xeT47fkhSHsWHSA/4ju4kJ3faVHdNH1E/vHs3IR7ChE8zejEPw+unSCcT+F4oeKIWLlL7RQQtwl5Yfaf4FwQma0tmY52qsk7Vc+8OkfhngEfMnikmWDThek3e29BCm/3ICCcyLEaTj2CU1+v7b3RT21a7bVqYukTwGOl3odjrK4+6H29d9A3Pb3aR16Qo5nspll94YB8Qw5Wp6en+w6OvjmabqJC3SOW/qWH04I2I/YgyZwmb1crGNYPjir2yZtsFKvXX6/1HR2sq2fPvPHtQYzs8/Va/Yj5UwLK/Xd7voO+3jfakGHQL1bXp8lhZkWtXv/msGK6d0Y/u2L66O3M3ttDH1n4/HVvJsggw+m3bX0VJvS9gnGTvswUjw4rKo5M9wOEftS7P/3W2Dl03gDJzeGFN6/MQ65YO6hY7/vmWgZ+TaukomLVN2M+e5XMVLwjS+eVIE1uDtcP98wU+3pBV9dWMwixGsX37sB88kzvdMXaeUpl0gHJzWHFUdKo90CIewcZnM21t33rfW+TRPjuYObFuUplMsCLtvhC86UzGAZeAMOMhviub/3VAZ6iGeHh4cyU1X8f4NPhxbpvCiUz03e41tbb+5ocgaSaqlMLquqmw7035EUvnHG0P01Dy7sDQpbOO0HaQH3xYg/cy2tTsfumb3qmYv2a5nDW12emVw/2TMX+3vT69Dev2iz8o1VngITrFg9BHCQq47JvOUxeHx6tvSW9vW1tIFT4AXJbe7V3hKtUOYFXEhFCfu1bO5+ZTCYIIVrNRzWXCFJdrZiZQYtb7YP/IEmDo5n1PWPzBvsbsovnqpo4EdIDsziEeWLESMPNTreZsmtO+1ujXwyCZn0DIU4npQHMcyY90kqKnucomAuCnxylEoRc7vwVSPkjQHqn19cNMcLrC4ck/CX4zVNCmCJrR4f7B30Mbw720ZF+IY7zdAhkaAi3fcmGlwZRDoSisQibb5oKR2LehHz+k5cSvnR4Nugi5caiXkQUTMsUhN++s3LRgqfSWTlrE5vrmj25T84buzXv67XXjb+XlX1f3BuahI3KcmezzVbndDqLmGs9dTiqNI/7NU6MfF28a6ViHGS4gQzLy4soRLvDXqO53A/I8H7xrpWG2boNwSZawFDbk2D7ref3fxfvUho8s7Oz4+wRSvgvMnSNC7y6oVLEj/VUrNEjb9bTxdmNdN+sqGxumlbHcOObm6bnlPB4aCg8J28GBdBSQ4Y2233dChs/fChOxjfrrKQA7zJeWVnnYTKk79CP9U8Rm1UUjmPeVn/37jKvLN+tqrprV0Ui9dNP7ZsqoXvs5I+MhIceOuRdkww/lPX8we7A17/Tyco/C6+yG5VOpAPOpQ4Yllc2MzuEY3wpNuMnlbgzBineq7I7amCUjqp7tvoqe82uo6YGl+/fpVVuEA5qqmrop8iIHuLJ75Gixw6nOuAX7HZ7jVYVo6f5HV/8oa/4+K7ABIFUefnG+OxGHRAaR1/aSBnWATZU7zo7iz/qbEjKsfuxPnHPXnWMB2BR/feWYciOZRCEBON3HNcnlkFGEA540EbHvfr69w571SbeHTiv5n3/e7wlugyR4V+A/5+mNTsFluKGU90R6KFaqjF0jXs8HsHmKXeW475kPK1y3HZcY6/ZpCf3c4wh2JPwEYZeJVMKlAoHzJZttmOQ8Uc8XHY4ngo26S4Quwd+TKlKkSEwpC71jw8fvsPlrN8XnmGzZuwmGTKzQ9nRTa0eYLiBHGqOtZNRoP14wKNzPLbxKCP6Sb/DflcQgFgN9RxwByD+wd1x2KkPMvtSleEfGrHvCi/E2UrcPr4x7snIEF5VzoI0PeMuJ+QCm3j7HcdBTxJDOvj39Pgp55E8EjCskjzw5rLCSR4OPq6qp3en36YxTJah2KPZ3/2/FDwDEFS3Uo7OMo0hKKkKJzLk7NRNVNnvcRkY4me4MQrNsUpR0DzpIRyDEgNtpuFJEZ8xvI/KSdOcxu/RnxaUoY1vBkeKDFyejDIsr9NW4YNrld6Df0RPYedMDDeTGFJUeRT0nNoheJ5l1eFkYkjNkAWNIjAEyW00O5FjXUaGTqqlFDZ8etfxMvr7mnuZZOiwg45KqKieRoVqqUd9Q7C9zyVDyrAYMqTgN5BiOsNmp7p93gzuGKVoMBRBAR39NkX3NBQS6qopR7kHvP5PZ5jsae73aNYnYtz/rQgMbY3oU0SDobrjeraSPcUCYWSqHJqXwdCD0WLTJjh0PbTxok1EoX1kh5gMoqB3dYbgaRrvixpDrKHKaHpahExcaPbQUaZoqXOjsdHTbPO48CVSFDacjTbuPdWuehAP9Z12+yYvSO/RmUg0Kjjs9SLmqk83bdTx2usbMbFdBqZB9MOYv3mqaMS//33PXz5o0eLf+ONDY+P977Ucp3CApK15AzIaGu9Uhs2YlzY3uyDGQ0Asr6xr3miuqwR1Pa6q6v9Y/3GXCosyrLK/tzOzBNFiEuPoPz5+D6kZ3BM4tFfBYb+jxs7bGu3q4bKDRvzfKBeVIQ0SZf/5o6cIaRvGdJqWVtZhjU8ZephzpSbYXEkjBSans7b+Khg7SzwbWU4DWSd1rdTgFPBBmHjC/0/gUHqCAYMe4udKFTvEX6kap07z9/v31aztayNpK7SfESEhRWASamuEyIEJzix9z0V9zDi8xntQN4sJmh3Lg7v2zUYWD+9t0jf6VY9Ciwnk0E+NVvzooIc1/TTWeWjl8T6ogOwVanF/Njb+p6ysAc2E6ieSLkLBL3rGZ2c9mjuhMcEmeIy3GuFzyHlY0Sco9XKQvcbaot8mjMuKqQkMn3/cVHQXCp9+3Azqn/PjCv6uKIootj9RHcUP36laef+7P//9m5Xlfk4whv/NqL9bU9VvYZvMetTfO763+bkHUUIJJZRQQgkllFBCCSWUUEIJJZRQQgklnB3/D97BkSo2GdQ7AAAAAElFTkSuQmCC;" vertex="1" parent="1">
          <mxGeometry x="473.9100000000001" y="630.5" width="100" height="100" as="geometry" />
        </mxCell>
        <mxCell id="ybhc-z9wy3QsHHDPgn1F-33" style="edgeStyle=orthogonalEdgeStyle;rounded=0;orthogonalLoop=1;jettySize=auto;html=1;entryX=0.499;entryY=-0.069;entryDx=0;entryDy=0;entryPerimeter=0;strokeWidth=2;" edge="1" parent="1" source="ybhc-z9wy3QsHHDPgn1F-31" target="ybhc-z9wy3QsHHDPgn1F-25">
          <mxGeometry relative="1" as="geometry" />
        </mxCell>
        <mxCell id="ybhc-z9wy3QsHHDPgn1F-47" style="edgeStyle=orthogonalEdgeStyle;rounded=0;orthogonalLoop=1;jettySize=auto;html=1;entryX=0;entryY=0.5;entryDx=0;entryDy=0;strokeWidth=2;" edge="1" parent="1" source="ybhc-z9wy3QsHHDPgn1F-35" target="ybhc-z9wy3QsHHDPgn1F-36">
          <mxGeometry relative="1" as="geometry" />
        </mxCell>
        <mxCell id="ybhc-z9wy3QsHHDPgn1F-58" style="edgeStyle=orthogonalEdgeStyle;rounded=0;orthogonalLoop=1;jettySize=auto;html=1;entryX=0;entryY=0.5;entryDx=0;entryDy=0;exitX=0.5;exitY=0;exitDx=0;exitDy=0;strokeWidth=2;" edge="1" parent="1" source="ybhc-z9wy3QsHHDPgn1F-35" target="ybhc-z9wy3QsHHDPgn1F-22">
          <mxGeometry relative="1" as="geometry" />
        </mxCell>
        <mxCell id="ybhc-z9wy3QsHHDPgn1F-35" value="" style="shape=image;verticalLabelPosition=bottom;labelBackgroundColor=default;verticalAlign=top;aspect=fixed;imageAspect=0;image=data:image/png,iVBORw0KGgoAAAANSUhEUgAAAOEAAADhCAMAAAAJbSJIAAAB71BMVEX///8AAADSISjMIjb39/f3miPJIDfPAADQ0NDpeCbxw8XRFR7eaW0bGxv6+vpJSUne3t6/v7/t7e3QAAtsbGzl5eXGIDqxIFC4IEnDID20IE2vIFLEIDzAIEC6IEe2IEvzy8376+z34OBRUVGqIFeDJ3jmk5XYS1D78vLncifkaCnhYCq9IEPdXmKurq7fWivcUC3YRC+GJnbXQTDuuLqenp7zkCSnIFvgcnVeXl7CwsIyMjI/Pz8kJCTVKzN9KHyjo6OQkJD2kwCGhoYfHx94eHgRERHochb649bYOxfGACOIHG/q3OfVvNLGo8FsAHTWP0TsrK7jgYQAAFD5xZH72bv5s2XyhwD2tXv4zKj95cv+8+f3wJf3pD/4r17zmD33zrfrgjn4qk/tlFr6v3zoejjslmvtj0nuhSXobgDjYRPmeEbobwDsn4PgVAnmgGHwuqzkdlTiZjbtqZXlh3fbVUHnmJDWNx3gbmDYRzvmoajQQVHuxcvTbXzegozgl6HJU2rBS2rDXnnNhJjGTGXOjKS7THKxYI+cM3W2f6aZNXjbrb+aS4egAFJ5AGW/cpN9AFi6k7albp+dV5SodqWHP4fQutNjAHiHUZlpJouQaqdsN5JBAHZmS4yoobwcAGFbUoRubZA0MmqMi6ZCQHLYvSmGAAASNUlEQVR4nO2d+UMTZxrHX5KQRIKTi/ucTICMSiJCuAIEKJeECAFbuz2suler3aXuVusWUVutdj3ABapu93DPP3TfmXfeY44EyCRMJ8v3BwyZd5jnk+d5n+d530kiAMc61rGOdaz/e3347rvvWW1DOcVdegdq6AOr7SibPqx+p7q6emjo/Z9ZbUmZ9J7EJxFWKqICiBArMVA/wIAS4dD75622p+QiHlQIKy5OP6SAMuHQEGe1SaXVRwwgInz/Q6ttKqk+qlZJJvzYaqNKKe6ynnDoktVWlVKfkBi9fJkQXrHaqhLqXToJLzNOtNqs0unqAgnST6orkfD8wokrCtil6kok5K4tnDiBnHjp52yuqZh5+AsIeOKaRPXzX6ramk+stqxE+vj6CUlSnH6gamsqpW07v3BKJrxW/c67qqI4VCHLYO5XpyRBxKFLJEYvX/ns02snFiqja/v1jVNIJz59r/rKlc8+++zatRNI10WrjSuFrt44fRoRXj+PybA+tdq4UigCARHiwscfL6gBFyqi8f78NNKpU5+fv37qlIrwN5Wwxv/tDYXw9I3zv8AZp5KC9Or6GSgZ8MurJONUUJCKZ5AkxI9O44yDGRc+sto+8/ri7FmFcf28HK+nGMiFX1ttnnndXD8rCQLe+O35dZxxMOJ1++eZyFmsM2fEz8+cPq1mrIA8c6uvTyFcvymnnNMs5PWrVttnWjcX+/oUxt9xvycZh5RHq+0zLVEGlBnXhS/XccrBlDeuWm2gad2604cRb4nrSsahiPZ3Ib94DhP2cV+QjIMZb9g+kXK3z0HJfIs3hfW+s2rGM/avhV/dOXdOYbwNfkdSDoZcj1htoFkJdwbOKVq8yS/ilIMZ17+02kDTig9AIcLb4DaZkBjx97a/q5b05QYGEOSicHOxr0/NuH7TagPNSsylc18riH8AJOUQyC+sNtC0ejJOp+JE6MI75zSM67bffxIgoFNx4i2AMw5hXLR9jIJ42ulUnHgnsnpnYEDFuPiV1faZVo3PKROmBwYca+DrAZpWJcbFW1bbZ15uJ1IsnfaJkgsHGMhFWAntXioeZBTCXNrRAwaoIN+d2zzgYzZPNBEnUczBbfhYxNtf8cl4OG61iSZ1P0MRN4AjnUZ0X8P5+HUs5nCkHRtWm2hOgo8CukGPI5dLO3M55Ym0JIfNm+44Bcw8AIw/CWKt1SaaE8+40Mk90BJCOWqsttGc7rIu5Nx6wHTOahPNKck4LQM2DFyYWbXaRnO66yRug7OwTQ8IuW2tZMYtCWGKSSMX2rxUNDvdGDFzHzQYuPCu1Saa02oGA0InRmoMXOgUrLbRnBrcRM57bFolMWrzSlGToYQZgde70Je02kSTuusmTnTGQS2ak6wHN4G9g3Qz0wCluJAXsEOdSmrN1EYi9+ztxG/cDQ0KI0yZ95xuighVu8Hf89l73SRk2toaFMbMpsjMScmLDXfbMk6fvVcV9xqa2xRG913Q43SrBddSGXvHaCTTDIUYYe/pdDeo+CAh7AFsrQdt7e3tEmNzW0M7rP0k6WDEjM3XhaBdluTHZvcDcJckHVIg7Q6YbGsnjG5x00mSjuJCuNKwub5p7+1VGBvuw6zT1sYyZmoF8YG99xAFCNirMGaEiJskHZRa72/cs/uq4hEilBibvwH3G5qb1Ywwk9q7VIhNvUQNm5wb55xmpgmwd5ButndAISd+BzbaaGJtUxzpvme1jeb0sAMJEjZvgI723nameMiOtPnKUGxu6iCM4mYzSTqEsaHd3kH6vKOpSWHshaWivbdXy+i2eTn8tkmWRNgsRGjSoYwN9l76Cp1QCuN34EG7knMYxrZvrLbRnJ43tbQojL2bXAdJq5TRzVttozk9bJEkM3aC5700rxLIDqtNNKdIC1ZnxyPwHUk6FLLB3v0M2OxsbGxEhE0RoZckHQLZ3mS1iSb1qKVRQex8CB41kaRDm4BNq000qW8bWxsRY9Om2NLZ0qll/M5qC00q0tIKJTM2ymm1RcNoexc+b2xtRYwtj8G3OOdQxl6b99wAvGzFahKFzsYWLWOvvTdJobqgkBMfKkmnkYXsfW61gWYVae1SGFs2QStJOpix6VurDTStTUQIGbuUKdnIQHa22D5GweMuTPgYPGnFSQcjdtg9j0J9TwizkUaSdBQ/dth8WSiJezasED4Ej1uVnIMZOx9ZbV4JlF364/CwBLm1CYZJWkWMLQ+ttq4Uyi4tDQ/LjGCziwSsrJaXVhtXEi0vyU4c3noMXnapEDsfW22bSSnv1X66hBC3suJWVxfLaPtKf+G1/M8uJHwGCZ+A51soWhHgE6kO2rwW7j2FP7gXkLD/j8Nbz8GT4WGKKDvwwgWLTTQpcXtPBGL/kuzELTGyNayoq/Wl7LzlZ1abaFbL20sRcam/vx868SV4rBBubb3MSkcj3/8pa7WFpvWi/0V2u1/SEiyGCO/JY5lL3Flaemq1feZ1Ybv/VT8SyEoufPlcDs/sspR/Xtj9kzGSXnQjPuiup8+e9fe/erG3u/dCnppLS/aPUSA5sVtm3M6K3d2YFv2sDEAAursRmcyqICLMCgEEOzLi9jLY7cawsk937X23kFF2WyYUXdvd3YRxGxJzleJDMClR7cLS2E3U/1QE2T2rDSuZdiHi9gWwN0kA9y7AYrFdAS7Mop5zZ3JysluMrEj/YG1LYVoBer2yu/z6wg8Q7QewPImEESsCEDaeuysrku9WLoBXk0QSYYUAQmV3ZSiQXaGEkyt7FTAHFYnLexLSU7BDCFcqim9nRdLkSha8WkEPX+2+tvmqntXyyuQPO8uvl6UgnVxehkknWznegwr9sJOVF0fZlR0YpJWTWoiIu3ZgkEJ/HrH7BJ55iCTQTlisUXXForCa5JVnRJ55b5bAS07iGRlda/LP0s+dP5fI9APK5yGG1noUOcinb9c8PXQo15OWjoZr5TME9lDMI2WNnIfKYL2QfYMC9GgzaNITJoaO+FZrkslkzUbOs6Y8FfalyVAh7Un31Ag1ax6P9AqoCOPyFwPEHNL5SAa7EjtvEFr2SGdiLNYTxi/3CPmkUa0HvYV11bPqwe9Qivg8yqdyIznpsCFhwWv9iMPzKH0oeJKCB8ckJRSV79vIxeFLoDwXI6wgEq4tghAH6dFqLQytw5/qp4SKxTz01aoyT5MkcqEErghCHKRHKlGahEkPj35jCNfCEtdIWBqCyGJhzdtaD0vIvTriHCprQ3IQh79dQ+vDiDzx1uRnI76Y5tzDEmbfvC6R1YcRYuvxIDJmHsqf30TPo3nKs0EqS/CsCUQxhTCi/G7Qce68cZWJooB4lDIjijfYXMrDn44R+ZdYTh6q/XoDIRym1c+HCH34d/0HXLm//qUsDIWFc0w8LVevEd+GXMpWUT2sITmG18SkLMFTS4pfTUxTD3ndtSwJUiG8hjqsHuTLEcUF4ZxcP2I5dLTGVyvNQ61bDjkPd96ESm3//uohYYbK34iPZyaRQI9K8zHn0PRhhyT80YIgFdNpTkQakQNyRPXp6TUPrxxNSiwbHs1XxRyOMPs3C4I0SW1GmVJFGHGQ8sDlfPCnj/lOqtVa8ZCEOz9aEKSxMI27mIfTENKGVCobSSnx5PB4PgxT0+EIrcikAlvhViV/qghlvymKeCR/bnjSMnSkJ+wQDhmllgTpiIdpw0RfTmrSKCGvqg6oPtb4POl4bdzniaFOgCX0oXoYw8qpe7y3f7Pg/lJO1aT0xATQE48wv7NZh48hmtV4Lp2u5eXHQoxJPWvyqSNxopia8O9/L6ntZVVRvsj+w4qe9Cj19h8WZNIj1T//abUFZVbo4lurTSiz3l6st9qEMqv0QeqSBDgXJz/OM4ij0v5Onit0UoFRWnNKH6TRsfHxCW9ibA4A79i48ZgRZveWh78HqtSaMzqJ0ww6eSDE4MVAsST5FPD6BwOuhD/qAoNRv/GYWp8DKyytDr0a42eNfK8ddPJAGxP/+nfxKPnk8icASIzWecHotB+EXAbhtB9hldHrPl0Moevf/zHLY/BHZcK6wcFQNOEHgUBKn8v2JZw2+LvzxRB6L3rxw+CgrETxZFiKD73RxHRqXE48uiH7EhrMX+1cPRjhfy7iR/X4PPMdjkLoika9wTyZZl/CKr31U8UQcv/9F35IgrwEhGNT0J4oqBvjEmPGQ/YnDOrOGS+GMHCRbOafLB0hqIeXdoVAKARcedqJ/QnrtKeEdEMOQviWzEJ6iSPpw/cnnNeeEiyKkKrup0ZY5dWcUqcbcShCFz3vp0I4qLFw1hxh4qdHGFWfYTBCQxgKzoyOzVfNjtfNBPUQfiY66hWpzncFpuv8E1VVY6NzsCVjj+DhSk7hvDP++aqJ8Tp9MjwcoealntmHMBhVHfNPqY0cNbhAFVP7AzMT7JGJOTpJaB2WGy0vyem6ZHhYwpTqjLGChF5dKVGF+bQRH0PIGbx+o/gVDqjGM3/KNKFqfVFvMIASGhgIFVWOp7TtnpbQ6OpVpCRTwqj6SqYJJ9iGfbAQoT7NIo3JA+byHCWEqXzHgxrCk2y+Kp6Q5ky2WyBROE7nCybMjzAqHc7nQUyYx4PEAqYfTqj+VrGENCdM0fG0mk3TiyiEun6VkbRE0ZcZFWEo/yuAwkjX8ZslpIHArJ5JQzPPhBQizGuALO++hNG8h6tQLig5YZA6kY4nz0WZ6yFCptBJz42rk+4o03EbEmom4di42qX15SCcJg9JvXARK6e0hKpZ5Pe6ABeaZp8KGNUZfCmgqUJTLo5zpdjKOFMGQoZhBg+nhwPMSJmQDTJcX1L659hhbCvBDp3HTYtfNTgv4WiRhIMceQ0n8HBShWaBhpCtk3QtOs086ypIyPY6pI1hF2oJPaF/JpjyeoMz2rXBQQlnmKsq+1HcOD2oIWQTKe0TWRO9hQiZFQe7ccIU2Dot4VhBsIMR0myqlGR6DS/Q5FLWB0wnygANFiJkg3TK+GkN4fgBP1BbgHCOiTwl0mlDo1oIQ0J2TcUuRhjXzhUiZJswdgOTfd3UhAddsRUkBGQizofU5s1pCdlpGE0FsVKM5f5ChOzTiSA9nwVXERrtch6WsI5NFHLM08kS1BLmbSmp5gsRGixJtPKqmv4D3yEoTEjtlusFnZchLaGqE86jAoSh/N0AUUpFeFDAfQjpNJALAMkm0rRUE06bIzRakxUkzLP9e3hCmiFDLO+U5YQFi/xhCGkqTKgaGh2h8dL3wISFu3YDwoKN2mEIVfWCLP/kkK0QQtrEVDG98bSecNoc4aGjtGSEzLLdyzY0xRDOmiT0loeQ1otBOieBnpCtFtOcy1AFCENMSzRrfLZLFcqlI6RbC+Mkr84ZELKrw5lCFzxAxc93ankIjfYWggaEB65VeQgNF09HQ2iwe8gZEHLsEr1QR5WHkL2M4fs/ykeY94aimlC1VVqoHOchVF0mzx2bMhGy6xekhCGhqvXW3Sqpn8Nb+/nCkW1Mde+M4RKjrvIR6rZ56w0JOdVeoQrR5a2ji0YDX4eCCc0djTqVFwODs7q9tlISam/54hdYQ6iZsNEUKg5cIFg3wdComx9/MJUaHJ2X9oFcqtPnB5W5XO+dHseva7kI1ZemS08toS6cT/qZjX9CaLjMktrAad2T/jFmy7SMhJqdXpIodYT6+/usMKFh9yIRuiaMjhwJ4bTqSrP4TB1h3jtPKkLtC0YIC92YKTOh+sqkWOkJXYW2Igih0X4H2mA1unF3JITq8CEb/HrCgoi0Rhps7itbyIUQy0mojj5ypgFhoTuIdIvRYCbiTfJg/htsZSVk0x91hSFhfhuZNyPo45TcNQgZvpGhCt0oL44wzhDyeQjZF50ayhDOs7uzRvdJTw6qSni9NlCZ9zJ4jW4j1sndT3GEOUoofwAqNO5XND5FBs3g5/xRyhIgI/2ay8EizXhyNjqlf09dapR0aWPat8PUJ0aZmT8/Rm68hKJ+A+P2kUABHUbf0lGsQt5UMJFIeb2BQJ7bC66AVx5h/I7CgDeVSASl082+b6qHIQyb/Fs/SdUwgDb/v5NZ8XxEjkcusuZxMC7UftLevnJ4wulYfCSeCzMehNOwcr5yKy2FJJRDJZ/d/+tdRmmHkeRqWCEyJPSNWG1WCWVE6EtXwtdMYxkReuz930VqpCf0pXmrjSqptIQ+T23FfAszUlrDF7P3/7proHhYEiyI0j/pEd5qe8ogUeBrNnrWejZW+crpY451rGMd61gl0f8AHiGKT2EBXYYAAAAASUVORK5CYII=;imageBorder=default;strokeWidth=2;" vertex="1" parent="1">
          <mxGeometry x="120" y="910" width="90" height="90" as="geometry" />
        </mxCell>
        <mxCell id="ybhc-z9wy3QsHHDPgn1F-36" value="" style="shape=image;verticalLabelPosition=bottom;labelBackgroundColor=default;verticalAlign=top;aspect=fixed;imageAspect=0;image=data:image/png,iVBORw0KGgoAAAANSUhEUgAAAOEAAADgCAMAAADCMfHtAAAAclBMVEX///9wrVFurE5jpz5sq0toqUZlqEFqqklnqURhpjv6/Pm51a2Rvnzw9u3m8OKfxo3b6dXg7NuWwYJ2sFl+tGOnypft9OrO4cbW5s+Btmf0+PKtzp6x0KPH3b2Lu3SEt2vC2rd5sVxaozCaw4i10qjF3Lr6Jyd6AAAPOUlEQVR4nNVd6YKiOBBucnIJiiJeKK7O+7/iJkFsEAgJBEl/v2ane9x8VlJXqio/P7PjFB3y4Bwn19tuu3UY7rtb+EgvRbaO/Pn/97Miyi7JHULiYkoRAMCpwP6MKMUugfgWB4f90gsdgyhPd5BgRsyRg1F1oXs9Z6ull6yBKAgxIzfErcGT0XTi/C+w9LMHJRhpkKtJE8Pteb00AylOxQ26o9j9ypK4j8PSPHrg5zcP6+zMPiBMbCS5TqARei+SBJ2tUrB+4JBJm7MD1LtlS/OqEMUmxfcL4KLABo9gfYWmxfcLDNOlDcjhCOcQ3y+oFy95INc7Mi8/DuTFp4X4bW4zy68C9VK183g2yu+UeN/hJziSQGVN/20MErx48+mXLmBn2AkooDkhHgD+Kj8GAK9Dx5EFZYb4ncIvHcAmEJRv1cx1iJlt+s+4/6IKdxdJ1nUHDjWxTU9XshA/BuA9exeWsXUBZzrBbDEBlnB3fU7Olp8cIhOyEh5wUX4O1zh558pyl/+UXqbx2zt0aYIM8NG1tjLPBbaTCOZftPEy0G3bVQ1e5gtO8WLjxXdoBQA/Q8cTXxv//qmS89MJ//Z1Iy+B93HeHuz4wDXXpruxBPdgWR36CTesr27jMYcg/LkyKcKRAeVhES9GBrqrxRvcUnj7n5xtM1yMIph7SxNqAzlvaT0ZMxqzk8SWCa5jCD4tJMjzOC/zvufLc7lIxTYdkdtJF/TTZACwTJDvGC+34H/6x4Tp6qfoYksJMng8aAyYNwOOYqknrnE6HQIZHjZZiU8wihHfo97L0N+4OHUJukuzkMLL7pxUZecLJg6id7kT2yxBDp6MRrdquSvm2+gFiandEnzB/c1vMK2j5X1f7FUyNXi1JNWTannf/6zxtWXAdR81IjpuzcFKQ/8J1HRiHA23JvoTEvw8dSlSdmv8wTIKGwDwRxZ1zXSjq3aFvLMrXOoBbKWe2EGkqQpBq12ZN7y2dQ+ZZFRy38WfsxMVeJDYlmwL0Z9Qo15XGMHdGgV7Af6ClukkKLL7w/Yi/Atapofgz5m7NQME879wCDuUTAmecnPl8cXqD5j6dwqjA2Qwu3+0/xDW0lBtsDMmT5sG9kdM+Cjzy3gY7El+4Q/sUSJPxfD4QpaPutquR4E3dDfBlCnqd9wy2/UoooOX9Q8kC/Rtd0fd63BoJBy3vsqN1IY70H4M71COPew/iHu7/VHsqN3Tg/4Iymo1AzyluO9HdhDXNlsK7CjXA/3rPYg7e70Z4GkkeoVF7EplWGwpyE2rBAH3pL63tooQI80rM+6aHjtEaKlDiqB2HRAvPunIKdopwlFV0DxGbN9BWXkKkfcYUwPEb/RxyzmwUJHScfxKMij5+Dv7bCGd0G3BvU/08XeWZZ8Aps8JHTPC+W5+PyurPFIKJ3Y9dUTBZ3uCCkTo9M412EpH2RIXIpfEJroPj595YSusPaCEGqH3U6oaXP+L69KmgrGDt6e5phcRXtT2+mlBUyH61XH4XBttNtx8qJpggWMohg4QCHeP4GC+y9DnqqbWu3Cff5PyOQqIk8IuYbygc0zSIFvP1kHpAF5UW2E/0yZlnOiLEN0er0mcXoIiP6yj1fztr8KDef9XYNoYAsSHXtAbE1N+2OxPC/TzXmg9gDLqdCN2uO5xcFh4cAn3296dXuauKgCG6FGYbHQcDa5McdVfU5jRpMiF18KaQQF+vUzRRFjBpJdYMyJAgDq/ynR6cE/hMbdhOkAdN/Du1ltPZUhhPLkrbjR6DWqM3hULz2m2AruXJcXX66lzWqRUC7cptoK6/W2dX0HvZRQ3F6/E9wRbgeB54eO37lVvvEqxLI7ajD6GAIZLDXR4I+ldwZ5U5mJ0XEEVpgDMDb+/DJEbxDKj+BhnDdVv8+bEU7IIWrUjOqMUDUJWTOUikm3EvW2eyPBHKRqVgoEvIP9P8sPw1ck2StFIOv+/CkdWZslNPlmVKRtNALi8ihHIvH+Sn/IIkcdPqbaiAWg5H62JrSezVsHL5Ie6igY5ixvBF3J4k/6YtwVnoslEj+DWCh3D8eoc7cOBOTW00PbZgD0EA9xb2iXA3TZ6+VnpqVLgWEPQJyiU/gK3EijVNRafTTgLIkYDTc3cMUWx5pWMZ4sWFS0hVP4bPMEGQj1z2Jq4sSB2YGgYDb+MAVetAB/b4Gu/UGDHG7gR4P4ouOkY/K4qo6XA5DOgZ35KM7HTiZ2IPVqGl4nCwcQzZ7jVcGlI94CmRVAQlUk0JUPly180amjIPOBaUhYZviCcGfUGGbn/8F0odt2XDO+KBNtVYsvhzK+VFAxXyXCrRtDENDtTWHuKY8tKhooiVPnKvoQTVlyPX2oaRRHe51+5Ko5IcaSXYHhXZGiRCFMuQqiS6BNe21GN4cRhfSaRc8GoWS4eWzC/VEnTuNYY+40oofSUbpp5fSKLLe5KDOdeuCpO5YRLtQiAx/jooWTxjYx2NYKy2H4gLqzAQ18W46t4bQojCr6Dmwj1VNUez7XRp4rnPX7aomEkIloH0hRiDbwOChci9T0AWxy2tExHKM9+FCWmmUr186Spp+bwGlrlKn/fCRKjB4azGJb4MwHUPTL8do1ECpkoOzRp8eolUDOFAtyysJjvMJhNVJxJNC/+vQiq79HSLYUq14djxmWaRiVBpKpHf0qXhpvOway+DbaiIqiVDOMGX1iWoZsZRRdpTgTVGrUy0lyHilGfQ4UKIwfzGsS5IqiXkebGQqTFh5yagWE28+M9IVbzvHDR8QvSQZO/dI4tfCt7V2slQpWKMughg0hmWrniOo9vAfSOTerGWphDbgcGzMWy4f3KebvNRLPARRSziZqwgYqhcfOxDWH9+54U/ex5HQIv7X5d3siVaaub9osofrs+kbZV5pv01RYkv33is84XQu0xBgB0HSvh0bwcTnkvwmJ+t3+srUs/gBOsXnZArmqmvmsyFuv6Y6aaapRDmPmq+FSqahZi2Bjl3zc/UAaRVq1mgkmTUYsw9K/1mG7gJatOiKDw7XBKw3zJWLDZ0NihDhmjCUT66Z0jlHaUoO/r0rQxGsAd9RULLfU7VEHKcLDiwTCibUO3u6O+4QNpCkfW2fXtEpNL88klPG4LCRtfKwqTOt+f8zNmRXRvLmWcBF/moVZeK+2w/Gaa5vzxZhYZSTAXXnc9pyPrkp3+WJsqDs7HXiJj9bjg00jVy9pmRrzbMgrtdyP1x0O9sBF7suHpybrVv2Tyn62Hk71i7GcJPfORqpds068EiFn7YdMxrlqJcgTGx32SLL6YP42xObZeTgYTnhQt53d+XFGdJBOGDD1f2ouo4+FW6STkAZQibN0ySrxvOmsH0D7peFkY3yaYqFKEreIKSbn3nLdr+0fXy8lwii/8Mu7tsyWJL2a7Id2EnS9Dj1eiHGVSpuMu4tJPcSZ7cbi1DASHwiRkGcqCm67iCpmuMfUYdA1+4HS/PO9OOYI/ld3rjBeS/gBDoRxXD5sY4k5+4PP5TV0UpT7pdMQ2/X6Ncn2HEk7Bve/ZZIomWqYTke06SXXUcFm8Kvz82iM+vlfCqXHMa9Jzz43goT/UNyREPw/76TloejNA9TpOXx2eZByWgZO4Kpj0JMkEcp18jVcFEL0+imRE69Qy783lLpEeX5SJAs9qiC7p3ewSIU64zfezGBMqvf4B8GEgk/B4mXTcr48lJ3FMYp1j8zx67lDpnLs1cZMeVKt3Jd+WrNiUan/L+yIkA8ITH0yKCbzeeL/0Jy00lNhEB2mlFVd5jKSK5f2xXmok1bWpCAK5BybLnFLV3PA+ix0ldpxfYmasYPQ+YAM2RzprFyu8tLvPBTu1ZirkhYYSedHbyR0sSTnLksN4oHe6SKii7DioMX4/m18v3ht0v+RX3rseq+wfLldC1NlxfrGxsLP2nKjCRVImvS8FuO3c7PP07rnDOrPxMfRirhCpVtAgtRQVBp4padjm0+EZugRrsTMwyrqJWkGDWp/raaAcE0Exns3fFI+tpujEPzcxyrq+3F1NcyhGCIPPV2L8THeQqGrMOj2XPMxG01kjU6Baxj/8nA7VFp2gB0PDdyB+0tAays7R0D4dA8RHY5q+p8txI32m0Yst16faAJRgU4PIa4huH5LQKZF+mJsrDDB0zjMU4a4e3udlnNYR6KjmY1qCkMFA6OPfYO8WzHHDuopbuWTNoR2t18kwTg/RKspioixe6pIkn6XAOEq81iq07x7yxlEE8J358FOVQ8qOHkhn6kTJOnPl+kM74rohpfWddhiiyI7e/TLT7f8mdd0uS9X1uvMQbr9fFGk6IdIXaQD2jsFMVzmbi9NzSHRLpAX897vOrZ7NZ1+Ixehd/81T23/KYtqbEtEukS5RZR87bjm67xwYvXk0yyo736FEjeslWGpYlwoVt+1Mew6/oDdDbdH+8EwQYyfzEidMWMsExY6iqKjpTTDVcvtnlp6/3+TPB/PvXTpkgoE7IdVTtlR1/KCuawDeFZzefnPIg8s5jR9JEnIkySOO0/R8eQZFkWfZYb3eRPvVqfulBP+0ijbrjH1EHO4QJCzsVAtepnWan0n3ZWMjJntml2RH2ZpcjCmlqAEqgBlc/tKFeOuCg/0uKqUDyqdKGNgn8I9AWmHZcGJGjpR0Ogv1XQqQ6rc9B8YYwk+KHVdVSz6808R0gsy5+a+9z614HYpjfGlYg2I7Qac91XUmmJAgR/rphEWWbFKlOTxK+PymvvB2kgKAydrepgGz4+FnBIw+FeXXisKPVrwjSHeGfcT9szyM+7RdKrkEXPNtIP4OJY/QgVYI0JlaOtWN1FvOc2kCzDULN7Njgzp0O9vAnP3Whj0KZ+1Mjhe39QDOPDvuoHPPOwPc3WwPJlbwwwWf755cfqqGvK86dHa49y/1YPnJIkoVeV+cqtbqMpsfAF5nP4ENPL/s3ODvvy11at3fzQhKFhn7F12/dBxNFfeNwPr2BY7Ie3z3ALY4zms6GL+lpzZuwvZ9rDFgmC4pvwosKJYWqY8FcNHTgnF/AryJyfRmNVz8Nh3rh0lBmi5+MwM/v3pGSJovfjOHU36VXdUqAFDiPuzanZ/wsxhp1QrX2CEMt3OUT5lHVIRYs6wWUBc6cW6DaVBFlKflFfUQT4AYOfd6yf4Suzei7JLcISOKKaMKfsmyPyNKsUsgvsXBwT61qYdTdMiDc5xcb7uteKfgvruFj/RSZOvoCxb9f7sl3GI6NhdIAAAAAElFTkSuQmCC;" vertex="1" parent="1">
          <mxGeometry x="360" y="920" width="70.31" height="70" as="geometry" />
        </mxCell>
        <mxCell id="ybhc-z9wy3QsHHDPgn1F-37" value="&lt;b&gt;Server&lt;/b&gt;" style="text;strokeColor=none;align=center;fillColor=none;html=1;verticalAlign=middle;whiteSpace=wrap;rounded=0;" vertex="1" parent="1">
          <mxGeometry x="100" y="555" width="60" height="30" as="geometry" />
        </mxCell>
        <mxCell id="ybhc-z9wy3QsHHDPgn1F-57" style="edgeStyle=orthogonalEdgeStyle;rounded=0;orthogonalLoop=1;jettySize=auto;html=1;" edge="1" parent="1" source="ybhc-z9wy3QsHHDPgn1F-39" target="ybhc-z9wy3QsHHDPgn1F-22">
          <mxGeometry relative="1" as="geometry" />
        </mxCell>
        <mxCell id="ybhc-z9wy3QsHHDPgn1F-39" value="&lt;b&gt;Telegraf&lt;/b&gt;" style="text;strokeColor=none;align=center;fillColor=none;html=1;verticalAlign=middle;whiteSpace=wrap;rounded=0;" vertex="1" parent="1">
          <mxGeometry x="334" y="550" width="60" height="30" as="geometry" />
        </mxCell>
        <mxCell id="ybhc-z9wy3QsHHDPgn1F-42" style="edgeStyle=orthogonalEdgeStyle;rounded=0;orthogonalLoop=1;jettySize=auto;html=1;strokeWidth=2;" edge="1" parent="1" source="ybhc-z9wy3QsHHDPgn1F-40" target="ybhc-z9wy3QsHHDPgn1F-28">
          <mxGeometry relative="1" as="geometry" />
        </mxCell>
        <mxCell id="ybhc-z9wy3QsHHDPgn1F-40" value="" style="rounded=0;whiteSpace=wrap;html=1;fillColor=none;strokeWidth=2;" vertex="1" parent="1">
          <mxGeometry y="352" width="260" height="88" as="geometry" />
        </mxCell>
        <mxCell id="ybhc-z9wy3QsHHDPgn1F-41" value="" style="endArrow=none;html=1;rounded=0;exitX=0.5;exitY=0;exitDx=0;exitDy=0;strokeWidth=2;" edge="1" parent="1" source="ybhc-z9wy3QsHHDPgn1F-15" target="ybhc-z9wy3QsHHDPgn1F-40">
          <mxGeometry width="50" height="50" relative="1" as="geometry">
            <mxPoint x="120" y="465" as="sourcePoint" />
            <mxPoint x="170" y="415" as="targetPoint" />
          </mxGeometry>
        </mxCell>
        <mxCell id="ybhc-z9wy3QsHHDPgn1F-43" value="&lt;b&gt;InfluxDB&lt;/b&gt;" style="text;strokeColor=none;align=center;fillColor=none;html=1;verticalAlign=middle;whiteSpace=wrap;rounded=0;" vertex="1" parent="1">
          <mxGeometry x="333.83" y="708" width="60" height="30" as="geometry" />
        </mxCell>
        <mxCell id="ybhc-z9wy3QsHHDPgn1F-46" value="" style="endArrow=none;html=1;rounded=0;exitX=0.163;exitY=0.006;exitDx=0;exitDy=0;exitPerimeter=0;entryX=0.4;entryY=0.933;entryDx=0;entryDy=0;entryPerimeter=0;strokeWidth=2;" edge="1" parent="1" source="ybhc-z9wy3QsHHDPgn1F-44">
          <mxGeometry width="50" height="50" relative="1" as="geometry">
            <mxPoint x="130.21000000000004" y="859.06" as="sourcePoint" />
            <mxPoint x="131" y="582.99" as="targetPoint" />
          </mxGeometry>
        </mxCell>
        <mxCell id="ybhc-z9wy3QsHHDPgn1F-48" value="&lt;b&gt;Application&lt;/b&gt;" style="text;strokeColor=none;align=center;fillColor=none;html=1;verticalAlign=middle;whiteSpace=wrap;rounded=0;" vertex="1" parent="1">
          <mxGeometry x="365.16" y="990" width="60" height="30" as="geometry" />
        </mxCell>
        <mxCell id="ybhc-z9wy3QsHHDPgn1F-54" value="웹사이트 속도(성능) 측정" style="text;strokeColor=none;align=center;fillColor=none;html=1;verticalAlign=middle;whiteSpace=wrap;rounded=0;" vertex="1" parent="1">
          <mxGeometry x="520" y="830" width="156.09" height="40" as="geometry" />
        </mxCell>
        <mxCell id="ybhc-z9wy3QsHHDPgn1F-59" value="부하 테스트 데이터 수집" style="text;strokeColor=none;align=center;fillColor=none;html=1;verticalAlign=middle;whiteSpace=wrap;rounded=0;" vertex="1" parent="1">
          <mxGeometry x="140" y="630.5" width="156.09" height="40" as="geometry" />
        </mxCell>
        <mxCell id="ybhc-z9wy3QsHHDPgn1F-61" value="데이터 시각화" style="text;strokeColor=none;align=center;fillColor=none;html=1;verticalAlign=middle;whiteSpace=wrap;rounded=0;" vertex="1" parent="1">
          <mxGeometry x="380" y="360" width="126.09" height="32.31" as="geometry" />
        </mxCell>
      </root>
    </mxGraphModel>
  </diagram>
</mxfile>
